<ttFont>
<head>
    <!-- Most of this table will be recalculated by the compiler -->
    <tableVersion value="1.0"/>
    <fontRevision value="2.0"/>
    <checkSumAdjustment value="0x381c0fa3"/>
    <magicNumber value="0x5f0f3cf5"/>
    <flags value="00000000 00000011"/>
    <unitsPerEm value="1000"/>
    <created value="Wed Jul  6 18:06:29 2016"/>
    <modified value="Thu Dec 12 14:40:41 2019"/>
    <xMin value="-220"/>
    <yMin value="-738"/>
    <xMax value="2785"/>
    <yMax value="1387"/>
    <macStyle value="00000000 00000000"/>
    <lowestRecPPEM value="6"/>
    <fontDirectionHint value="2"/>
    <indexToLocFormat value="0"/>
    <glyphDataFormat value="0"/>
  </head>
    <TTGlyph name=".notdef" xMin="94" yMin="0" xMax="505" yMax="714">
      <contour>
        <pt x="94" y="0" on="1" overlap="1"/>
        <pt x="94" y="714" on="1"/>
        <pt x="505" y="714" on="1"/>
        <pt x="505" y="0" on="1"/>
      </contour>
      <contour>
        <pt x="145" y="51" on="1"/>
        <pt x="454" y="51" on="1"/>
        <pt x="454" y="663" on="1"/>
        <pt x="145" y="663" on="1"/>
      </contour>
    </TTGlyph>
    <TTGlyph name="TahSmallTwoDots" xMin="37" yMin="24" xMax="237" yMax="310">
      <contour>
        <pt x="122" y="127" on="1" overlap="1"/>
        <pt x="110" y="127" on="0"/>
        <pt x="77" y="129" on="0"/>
        <pt x="47" y="132" on="0"/>
        <pt x="40" y="132" on="1"/>
        <pt x="43" y="187" on="1"/>
        <pt x="56" y="186" on="0"/>
        <pt x="99" y="182" on="0"/>
        <pt x="118" y="182" on="1"/>
        <pt x="159" y="182" on="0"/>
        <pt x="183" y="193" on="0"/>
        <pt x="183" y="201" on="1"/>
        <pt x="183" y="209" on="0"/>
        <pt x="174" y="219" on="0"/>
        <pt x="166" y="219" on="1"/>
        <pt x="157" y="219" on="0"/>
        <pt x="138" y="203" on="0"/>
        <pt x="121" y="180" on="0"/>
        <pt x="115" y="169" on="1"/>
        <pt x="60" y="178" on="1"/>
        <pt x="73" y="207" on="0"/>
        <pt x="111" y="248" on="0"/>
        <pt x="154" y="271" on="0"/>
        <pt x="174" y="271" on="1"/>
        <pt x="204" y="271" on="0"/>
        <pt x="237" y="233" on="0"/>
        <pt x="237" y="204" on="1"/>
        <pt x="237" y="189" on="0"/>
        <pt x="221" y="153" on="0"/>
        <pt x="172" y="127" on="0"/>
      </contour>
      <contour>
        <pt x="72" y="182" on="1"/>
        <pt x="67" y="310" on="1"/>
        <pt x="119" y="310" on="1"/>
        <pt x="124" y="197" on="1"/>
      </contour>
      <contour>
        <pt x="190" y="24" on="1"/>
        <pt x="171" y="24" on="0"/>
        <pt x="146" y="49" on="0"/>
        <pt x="146" y="67" on="1"/>
        <pt x="146" y="86" on="0"/>
        <pt x="171" y="112" on="0"/>
        <pt x="190" y="112" on="1"/>
        <pt x="208" y="112" on="0"/>
        <pt x="235" y="86" on="0"/>
        <pt x="235" y="67" on="1"/>
        <pt x="235" y="49" on="0"/>
        <pt x="208" y="24" on="0"/>
      </contour>
      <contour>
        <pt x="81" y="24" on="1"/>
        <pt x="63" y="24" on="0"/>
        <pt x="37" y="49" on="0"/>
        <pt x="37" y="67" on="1"/>
        <pt x="37" y="86" on="0"/>
        <pt x="63" y="112" on="0"/>
        <pt x="81" y="112" on="1"/>
        <pt x="100" y="112" on="0"/>
        <pt x="126" y="86" on="0"/>
        <pt x="126" y="67" on="1"/>
        <pt x="126" y="49" on="0"/>
        <pt x="100" y="24" on="0"/>
      </contour>
    </TTGlyph>
    <TTGlyph name="_bar" xMin="0" yMin="396" xMax="425" yMax="495">
      <contour>
        <pt x="0" y="396" on="1" overlap="1"/>
        <pt x="0" y="495" on="1"/>
        <pt x="425" y="495" on="1"/>
        <pt x="425" y="396" on="1"/>
      </contour>
    </TTGlyph>
    <TTGlyph name="_barshort" xMin="0" yMin="396" xMax="310" yMax="495">
      <contour>
        <pt x="0" y="396" on="1" overlap="1"/>
        <pt x="0" y="495" on="1"/>
        <pt x="310" y="495" on="1"/>
        <pt x="310" y="396" on="1"/>
      </contour>
    </TTGlyph>
    <TTGlyph name="_dots.horz.below" xMin="31" yMin="-213" xMax="442" yMax="-86">
      <contour>
        <pt x="94" y="-213" on="1" overlap="1"/>
        <pt x="68" y="-213" on="0"/>
        <pt x="31" y="-176" on="0"/>
        <pt x="31" y="-151" on="1"/>
        <pt x="31" y="-124" on="0"/>
        <pt x="68" y="-86" on="0"/>
        <pt x="94" y="-86" on="1"/>
        <pt x="121" y="-86" on="0"/>
        <pt x="157" y="-124" on="0"/>
        <pt x="157" y="-151" on="1"/>
        <pt x="157" y="-176" on="0"/>
        <pt x="121" y="-213" on="0"/>
      </contour>
      <contour>
        <pt x="236" y="-213" on="1"/>
        <pt x="210" y="-213" on="0"/>
        <pt x="173" y="-176" on="0"/>
        <pt x="173" y="-151" on="1"/>
        <pt x="173" y="-124" on="0"/>
        <pt x="210" y="-86" on="0"/>
        <pt x="236" y="-86" on="1"/>
        <pt x="263" y="-86" on="0"/>
        <pt x="299" y="-124" on="0"/>
        <pt x="299" y="-151" on="1"/>
        <pt x="299" y="-176" on="0"/>
        <pt x="263" y="-213" on="0"/>
      </contour>
      <contour>
        <pt x="379" y="-213" on="1"/>
        <pt x="353" y="-213" on="0"/>
        <pt x="316" y="-176" on="0"/>
        <pt x="316" y="-151" on="1"/>
        <pt x="316" y="-124" on="0"/>
        <pt x="353" y="-86" on="0"/>
        <pt x="379" y="-86" on="1"/>
        <pt x="406" y="-86" on="0"/>
        <pt x="442" y="-124" on="0"/>
        <pt x="442" y="-151" on="1"/>
        <pt x="442" y="-176" on="0"/>
        <pt x="406" y="-213" on="0"/>
      </contour>
    </TTGlyph>
    <TTGlyph name="_doublebar" xMin="0" yMin="278" xMax="425" yMax="517">
      <component glyphName="_bar" x="0" y="-118" flags="0x604"/>
      <component glyphName="_bar" x="0" y="22" flags="0x4"/>
    </TTGlyph>
    <TTGlyph name="_doublebarshort" xMin="0" yMin="278" xMax="310" yMax="517">
      <component glyphName="_barshort" x="0" y="-118" flags="0x604"/>
      <component glyphName="_barshort" x="0" y="22" flags="0x4"/>
    </TTGlyph>
    <TTGlyph name="_hehgoalcomma" xMin="0" yMin="-195" xMax="144" yMax="-8">
      <contour>
        <pt x="97" y="-8" on="1" overlap="1"/>
        <pt x="132" y="-55" on="1"/>
        <pt x="94" y="-72" on="0"/>
        <pt x="75" y="-115" on="0"/>
        <pt x="92" y="-145" on="1"/>
        <pt x="7" y="-115" on="1"/>
        <pt x="21" y="-105" on="0"/>
        <pt x="65" y="-96" on="0"/>
        <pt x="86" y="-96" on="1"/>
        <pt x="117" y="-96" on="0"/>
        <pt x="144" y="-121" on="0"/>
        <pt x="144" y="-139" on="1"/>
        <pt x="144" y="-161" on="0"/>
        <pt x="107" y="-195" on="0"/>
        <pt x="74" y="-195" on="1"/>
        <pt x="44" y="-195" on="0"/>
        <pt x="0" y="-161" on="0"/>
        <pt x="0" y="-128" on="1"/>
        <pt x="0" y="-108" on="0"/>
        <pt x="16" y="-60" on="0"/>
        <pt x="58" y="-17" on="0"/>
      </contour>
    </TTGlyph>
    <TTGlyph name="_invertedstroke" xMin="89" yMin="484" xMax="316" yMax="672">
      <contour>
        <pt x="147" y="484" on="1" overlap="1"/>
        <pt x="89" y="591" on="1"/>
        <pt x="115" y="603" on="0"/>
        <pt x="171" y="629" on="0"/>
        <pt x="231" y="658" on="0"/>
        <pt x="262" y="672" on="1"/>
        <pt x="316" y="564" on="1"/>
        <pt x="267" y="543" on="0"/>
        <pt x="182" y="501" on="0"/>
      </contour>
    </TTGlyph>
    <TTGlyph name="_part.Gaf.stroke" xMin="3" yMin="624" xMax="439" yMax="932">
      <contour>
        <pt x="63" y="624" on="1" overlap="1"/>
        <pt x="3" y="739" on="1"/>
        <pt x="40" y="761" on="0"/>
        <pt x="150" y="818" on="0"/>
        <pt x="297" y="889" on="0"/>
        <pt x="387" y="932" on="1"/>
        <pt x="439" y="805" on="1"/>
        <pt x="347" y="762" on="0"/>
        <pt x="208" y="697" on="0"/>
        <pt x="103" y="646" on="0"/>
      </contour>
    </TTGlyph>
    <TTGlyph name="_part.beh.fina" xMin="34" yMin="-21" xMax="500" yMax="425">
      <contour>
        <pt x="454" y="-21" on="1" overlap="1"/>
        <pt x="328" y="-21" on="0"/>
        <pt x="164" y="19" on="0"/>
        <pt x="72" y="87" on="0"/>
        <pt x="34" y="173" on="0"/>
        <pt x="34" y="219" on="1"/>
        <pt x="34" y="259" on="0"/>
        <pt x="47" y="334" on="0"/>
        <pt x="66" y="400" on="0"/>
        <pt x="74" y="425" on="1"/>
        <pt x="221" y="390" on="1"/>
        <pt x="216" y="370" on="0"/>
        <pt x="207" y="328" on="0"/>
        <pt x="201" y="287" on="0"/>
        <pt x="201" y="268" on="1"/>
        <pt x="201" y="232" on="0"/>
        <pt x="252" y="178" on="0"/>
        <pt x="374" y="147" on="0"/>
        <pt x="480" y="147" on="1"/>
        <pt x="500" y="11" on="1"/>
      </contour>
    </TTGlyph>
    <TTGlyph name="_part.instroke" xMin="-41" yMin="-5" xMax="323" yMax="193">
      <contour>
        <pt x="223" y="-5" on="1" overlap="1"/>
        <pt x="155" y="-5" on="0"/>
        <pt x="52" y="19" on="0"/>
        <pt x="-20" y="54" on="0"/>
        <pt x="-41" y="71" on="1"/>
        <pt x="54" y="193" on="1"/>
        <pt x="91" y="177" on="0"/>
        <pt x="168" y="163" on="0"/>
        <pt x="232" y="163" on="1"/>
        <pt x="281" y="163" on="0"/>
        <pt x="323" y="115" on="0"/>
        <pt x="323" y="81" on="1"/>
        <pt x="323" y="43" on="0"/>
        <pt x="273" y="-5" on="0"/>
      </contour>
    </TTGlyph>
    <TTGlyph name="_stroke" xMin="0" yMin="-59" xMax="421" yMax="40">
      <contour>
        <pt x="0" y="-59" on="1" overlap="1"/>
        <pt x="0" y="40" on="1"/>
        <pt x="421" y="40" on="1"/>
        <pt x="421" y="-59" on="1"/>
      </contour>
    </TTGlyph>
    <TTGlyph name="_stroke.wide" xMin="0" yMin="-59" xMax="394" yMax="40">
      <contour>
        <pt x="0" y="-59" on="1" overlap="1"/>
        <pt x="0" y="40" on="1"/>
        <pt x="394" y="40" on="1"/>
        <pt x="394" y="-59" on="1"/>
      </contour>
    </TTGlyph>
    <TTGlyph name="_vbelowar" xMin="0" yMin="-263" xMax="256" yMax="-60">
      <contour>
        <pt x="93" y="-263" on="1" overlap="1"/>
        <pt x="83" y="-243" on="0"/>
        <pt x="49" y="-181" on="0"/>
        <pt x="14" y="-119" on="0"/>
        <pt x="0" y="-98" on="1"/>
        <pt x="66" y="-63" on="1"/>
        <pt x="73" y="-73" on="0"/>
        <pt x="95" y="-113" on="0"/>
        <pt x="120" y="-160" on="0"/>
        <pt x="144" y="-204" on="0"/>
        <pt x="152" y="-218" on="1"/>
        <pt x="173" y="-257" on="1"/>
      </contour>
      <contour>
        <pt x="173" y="-257" on="1"/>
        <pt x="114" y="-232" on="1"/>
        <pt x="121" y="-215" on="0"/>
        <pt x="142" y="-163" on="0"/>
        <pt x="166" y="-110" on="0"/>
        <pt x="185" y="-68" on="0"/>
        <pt x="190" y="-60" on="1"/>
        <pt x="256" y="-88" on="1"/>
        <pt x="250" y="-98" on="0"/>
        <pt x="228" y="-141" on="0"/>
        <pt x="202" y="-193" on="0"/>
        <pt x="179" y="-241" on="0"/>
      </contour>
    </TTGlyph>
    <TTGlyph name="_vinvertedbelowar" xMin="0" yMin="-263" xMax="256" yMax="-60">
      <contour>
        <pt x="163" y="-60" on="1" overlap="1"/>
        <pt x="174" y="-80" on="0"/>
        <pt x="207" y="-142" on="0"/>
        <pt x="243" y="-204" on="0"/>
        <pt x="256" y="-225" on="1"/>
        <pt x="190" y="-260" on="1"/>
        <pt x="183" y="-250" on="0"/>
        <pt x="161" y="-210" on="0"/>
        <pt x="136" y="-163" on="0"/>
        <pt x="112" y="-119" on="0"/>
        <pt x="104" y="-105" on="1"/>
        <pt x="83" y="-66" on="1"/>
      </contour>
      <contour>
        <pt x="83" y="-66" on="1"/>
        <pt x="142" y="-91" on="1"/>
        <pt x="135" y="-108" on="0"/>
        <pt x="114" y="-160" on="0"/>
        <pt x="90" y="-213" on="0"/>
        <pt x="71" y="-255" on="0"/>
        <pt x="66" y="-263" on="1"/>
        <pt x="0" y="-235" on="1"/>
        <pt x="6" y="-225" on="0"/>
        <pt x="28" y="-182" on="0"/>
        <pt x="54" y="-130" on="0"/>
        <pt x="77" y="-82" on="0"/>
      </contour>
    </TTGlyph>
    <TTGlyph name="_wavyhamzaabovear" xMin="0" yMin="565" xMax="328" yMax="821">
      <component glyphName="uni065F" x="0" y="881" flags="0x404"/>
    </TTGlyph>
    <TTGlyph name="alefMaksura_hehar.init" xMin="35" yMin="-5" xMax="911" yMax="634">
      <component glyphName="uniFBE8" x="621" y="0" flags="0x404"/>
      <component glyphName="uniFEEA" x="0" y="0" flags="0x4"/>
    </TTGlyph>
    <TTGlyph name="alefMaksura_hehar.medi" xMin="35" yMin="-5" xMax="911" yMax="634">
      <component glyphName="uniFBE8" x="621" y="0" flags="0x404"/>
      <component glyphName="uniFEEA" x="0" y="0" flags="0x4"/>
    </TTGlyph>
    <TTGlyph name="alefMaksura_meemar" xMin="15" yMin="-393" xMax="997" yMax="520">
      <component glyphName="uniFBE8" x="707" y="0" flags="0x404"/>
      <component glyphName="uniFEE2" x="0" y="0" flags="0x4"/>
    </TTGlyph>
    <TTGlyph name="alefMaksura_meemar.fina" xMin="15" yMin="-393" xMax="997" yMax="520">
      <component glyphName="uniFBE8" x="707" y="0" flags="0x404"/>
      <component glyphName="uniFEE2" x="0" y="0" flags="0x4"/>
    </TTGlyph>
    <TTGlyph name="alefMaksura_meemar.init" xMin="15" yMin="-393" xMax="997" yMax="520">
      <component glyphName="uniFBE8" x="707" y="0" flags="0x404"/>
      <component glyphName="uniFEE2" x="0" y="0" flags="0x4"/>
    </TTGlyph>
    <TTGlyph name="alefMaksura_meemar.medi" xMin="15" yMin="-393" xMax="997" yMax="520">
      <component glyphName="uniFBE8" x="707" y="0" flags="0x404"/>
      <component glyphName="uniFEE2" x="0" y="0" flags="0x4"/>
    </TTGlyph>
    <TTGlyph name="alefMaksura_noonar.fina" xMin="24" yMin="-231" xMax="1113" yMax="642">
      <component glyphName="uniFBE8" x="823" y="0" flags="0x404"/>
      <component glyphName="uniFEE6" x="0" y="0" flags="0x4"/>
    </TTGlyph>
    <TTGlyph name="alefMaksura_rehar.fina" xMin="-37" yMin="-231" xMax="750" yMax="520">
      <component glyphName="uniFBE8" x="460" y="0" flags="0x404"/>
      <component glyphName="uniFEAE" x="0" y="0" flags="0x4"/>
    </TTGlyph>
    <TTGlyph name="alefMaksura_zainar.fina" xMin="-37" yMin="-231" xMax="750" yMax="677">
      <component glyphName="uniFBE8" x="460" y="0" flags="0x404"/>
      <component glyphName="uniFEB0" x="0" y="0" flags="0x4"/>
    </TTGlyph>
    <TTGlyph name="beh_yehHamzaabovear" xMin="24" yMin="-253" xMax="1131" yMax="600">
      <component glyphName="uniFE91" x="841" y="0" flags="0x404"/>
      <component glyphName="uniFE8A" x="0" y="0" flags="0x4"/>
    </TTGlyph>
    <TTGlyph name="beh_yehHamzaabovear.fina" xMin="24" yMin="-253" xMax="1131" yMax="600">
      <component glyphName="uniFE91" x="841" y="0" flags="0x404"/>
      <component glyphName="uniFE8A" x="0" y="0" flags="0x4"/>
    </TTGlyph>
    <TTGlyph name="colon" xMin="42" yMin="-12" xMax="246" yMax="560">
      <contour>
        <pt x="42" y="81" on="1" overlap="1"/>
        <pt x="42" y="133" on="0"/>
        <pt x="103" y="175" on="0"/>
        <pt x="146" y="175" on="1"/>
        <pt x="187" y="175" on="0"/>
        <pt x="246" y="133" on="0"/>
        <pt x="246" y="81" on="1"/>
        <pt x="246" y="32" on="0"/>
        <pt x="187" y="-12" on="0"/>
        <pt x="146" y="-12" on="1"/>
        <pt x="103" y="-12" on="0"/>
        <pt x="42" y="32" on="0"/>
      </contour>
      <contour>
        <pt x="42" y="467" on="1"/>
        <pt x="42" y="518" on="0"/>
        <pt x="103" y="560" on="0"/>
        <pt x="146" y="560" on="1"/>
        <pt x="187" y="560" on="0"/>
        <pt x="246" y="518" on="0"/>
        <pt x="246" y="467" on="1"/>
        <pt x="246" y="417" on="0"/>
        <pt x="187" y="373" on="0"/>
        <pt x="146" y="373" on="1"/>
        <pt x="103" y="373" on="0"/>
        <pt x="42" y="417" on="0"/>
      </contour>
    </TTGlyph>
    <TTGlyph name="comma" xMin="28" yMin="-139" xMax="250" yMax="146">
      <contour>
        <pt x="243" y="146" on="1" overlap="1"/>
        <pt x="250" y="135" on="1"/>
        <pt x="241" y="99" on="0"/>
        <pt x="213" y="-1" on="0"/>
        <pt x="181" y="-102" on="0"/>
        <pt x="164" y="-139" on="1"/>
        <pt x="28" y="-139" on="1"/>
        <pt x="38" y="-93" on="0"/>
        <pt x="56" y="8" on="0"/>
        <pt x="72" y="106" on="0"/>
        <pt x="76" y="146" on="1"/>
      </contour>
    </TTGlyph>
    <TTGlyph name="dad_hehar.init" xMin="35" yMin="-18" xMax="1601" yMax="731">
      <component glyphName="uniFEBF" x="621" y="0" flags="0x404"/>
      <component glyphName="uniFEEA" x="0" y="0" flags="0x4"/>
    </TTGlyph>
    <TTGlyph name="dad_hehar.medi" xMin="35" yMin="-18" xMax="1601" yMax="731">
      <component glyphName="uniFEBF" x="621" y="0" flags="0x404"/>
      <component glyphName="uniFEEA" x="0" y="0" flags="0x4"/>
    </TTGlyph>
    <TTGlyph name="dad_yehHamzaabovear" xMin="24" yMin="-231" xMax="1821" yMax="731">
      <component glyphName="uniFEBF" x="841" y="0" flags="0x404"/>
      <component glyphName="uniFE8A" x="0" y="0" flags="0x4"/>
    </TTGlyph>
    <TTGlyph name="dad_yehHamzaabovear.fina" xMin="24" yMin="-231" xMax="1821" yMax="731">
      <component glyphName="uniFEBF" x="841" y="0" flags="0x404"/>
      <component glyphName="uniFE8A" x="0" y="0" flags="0x4"/>
    </TTGlyph>
    <TTGlyph name="dad_zainar" xMin="-37" yMin="-231" xMax="1440" yMax="731">
      <component glyphName="uniFEBF" x="460" y="0" flags="0x404"/>
      <component glyphName="uniFEB0" x="0" y="0" flags="0x4"/>
    </TTGlyph>
    <TTGlyph name="dad_zainar.fina" xMin="-37" yMin="-231" xMax="1440" yMax="731">
      <component glyphName="uniFEBF" x="460" y="0" flags="0x404"/>
      <component glyphName="uniFEB0" x="0" y="0" flags="0x4"/>
    </TTGlyph>
    <TTGlyph name="dalTwodotsverblTahabvar.fina" xMin="30" yMin="-418" xMax="699" yMax="953">
      <component glyphName="uniFEAA" x="0" y="0" flags="0x604"/>
      <component glyphName="uniFBC0" x="92" y="83" flags="0x4"/>
      <component glyphName="uniFBBE" x="142" y="-5" flags="0x4"/>
    </TTGlyph>
    <TTGlyph name="dalTwodotsverticalbelowTahabovear" xMin="30" yMin="-418" xMax="502" yMax="953">
      <component glyphName="uni062F" x="0" y="0" flags="0x604"/>
      <component glyphName="uniFBC0" x="92" y="83" flags="0x4"/>
      <component glyphName="uniFBBE" x="169" y="-5" flags="0x4"/>
    </TTGlyph>
    <TTGlyph name="dotcenterar" xMin="22" yMin="-276" xMax="185" yMax="-110">
      <contour>
        <pt x="104" y="-276" on="1" overlap="1"/>
        <pt x="70" y="-276" on="0"/>
        <pt x="22" y="-228" on="0"/>
        <pt x="22" y="-194" on="1"/>
        <pt x="22" y="-159" on="0"/>
        <pt x="70" y="-110" on="0"/>
        <pt x="104" y="-110" on="1"/>
        <pt x="138" y="-110" on="0"/>
        <pt x="185" y="-159" on="0"/>
        <pt x="185" y="-194" on="1"/>
        <pt x="185" y="-228" on="0"/>
        <pt x="138" y="-276" on="0"/>
      </contour>
    </TTGlyph>
    <TTGlyph name="dotcenterar.small" xMin="10" yMin="-209" xMax="136" yMax="-82">
      <contour>
        <pt x="73" y="-209" on="1" overlap="1"/>
        <pt x="47" y="-209" on="0"/>
        <pt x="10" y="-172" on="0"/>
        <pt x="10" y="-147" on="1"/>
        <pt x="10" y="-120" on="0"/>
        <pt x="47" y="-82" on="0"/>
        <pt x="73" y="-82" on="1"/>
        <pt x="100" y="-82" on="0"/>
        <pt x="136" y="-120" on="0"/>
        <pt x="136" y="-147" on="1"/>
        <pt x="136" y="-172" on="0"/>
        <pt x="100" y="-209" on="0"/>
      </contour>
    </TTGlyph>
    <TTGlyph name="eight" xMin="33" yMin="-10" xMax="554" yMax="724">
      <contour>
        <pt x="295" y="724" on="1" overlap="1"/>
        <pt x="366" y="724" on="0"/>
        <pt x="473" y="686" on="0"/>
        <pt x="533" y="609" on="0"/>
        <pt x="533" y="550" on="1"/>
        <pt x="533" y="507" on="0"/>
        <pt x="501" y="442" on="0"/>
        <pt x="446" y="394" on="0"/>
        <pt x="410" y="376" on="1"/>
        <pt x="444" y="357" on="0"/>
        <pt x="510" y="306" on="0"/>
        <pt x="554" y="237" on="0"/>
        <pt x="554" y="190" on="1"/>
        <pt x="554" y="133" on="0"/>
        <pt x="498" y="42" on="0"/>
        <pt x="383" y="-10" on="0"/>
        <pt x="293" y="-10" on="1"/>
        <pt x="157" y="-10" on="0"/>
        <pt x="33" y="100" on="0"/>
        <pt x="33" y="188" on="1"/>
        <pt x="33" y="238" on="0"/>
        <pt x="67" y="306" on="0"/>
        <pt x="126" y="354" on="0"/>
        <pt x="163" y="373" on="1"/>
        <pt x="133" y="393" on="0"/>
        <pt x="84" y="444" on="0"/>
        <pt x="54" y="510" on="0"/>
        <pt x="54" y="551" on="1"/>
        <pt x="54" y="609" on="0"/>
        <pt x="116" y="685" on="0"/>
        <pt x="225" y="724" on="0"/>
      </contour>
      <contour>
        <pt x="210" y="196" on="1"/>
        <pt x="210" y="166" on="0"/>
        <pt x="253" y="129" on="0"/>
        <pt x="291" y="129" on="1"/>
        <pt x="321" y="129" on="0"/>
        <pt x="359" y="144" on="0"/>
        <pt x="377" y="173" on="0"/>
        <pt x="377" y="192" on="1"/>
        <pt x="377" y="214" on="0"/>
        <pt x="351" y="250" on="0"/>
        <pt x="317" y="276" on="0"/>
        <pt x="304" y="283" on="1"/>
        <pt x="291" y="291" on="1"/>
        <pt x="269" y="280" on="0"/>
        <pt x="232" y="252" on="0"/>
        <pt x="210" y="218" on="0"/>
      </contour>
      <contour>
        <pt x="294" y="585" on="1"/>
        <pt x="270" y="585" on="0"/>
        <pt x="235" y="557" on="0"/>
        <pt x="235" y="533" on="1"/>
        <pt x="235" y="518" on="0"/>
        <pt x="250" y="491" on="0"/>
        <pt x="276" y="468" on="0"/>
        <pt x="292" y="459" on="1"/>
        <pt x="306" y="467" on="0"/>
        <pt x="334" y="487" on="0"/>
        <pt x="352" y="514" on="0"/>
        <pt x="352" y="533" on="1"/>
        <pt x="352" y="557" on="0"/>
        <pt x="317" y="585" on="0"/>
      </contour>
    </TTGlyph>
    <TTGlyph name="exclam" xMin="40" yMin="-12" xMax="251" yMax="714">
      <contour>
        <pt x="226" y="252" on="1" overlap="1"/>
        <pt x="65" y="252" on="1"/>
        <pt x="40" y="714" on="1"/>
        <pt x="251" y="714" on="1"/>
      </contour>
      <contour>
        <pt x="42" y="81" on="1"/>
        <pt x="42" y="133" on="0"/>
        <pt x="103" y="175" on="0"/>
        <pt x="145" y="175" on="1"/>
        <pt x="186" y="175" on="0"/>
        <pt x="246" y="133" on="0"/>
        <pt x="246" y="81" on="1"/>
        <pt x="246" y="32" on="0"/>
        <pt x="186" y="-12" on="0"/>
        <pt x="145" y="-12" on="1"/>
        <pt x="103" y="-12" on="0"/>
        <pt x="42" y="32" on="0"/>
      </contour>
    </TTGlyph>
    <TTGlyph name="fehDotMovedbelowar" xMin="34" yMin="-273" xMax="1005" yMax="599">
      <component glyphName="uni06A1" x="0" y="0" flags="0x604"/>
      <component glyphName="uniFBB3" x="369" y="-22" flags="0x4"/>
    </TTGlyph>
    <TTGlyph name="fehDotMovedbelowar.fina" xMin="34" yMin="-273" xMax="1225" yMax="501">
      <component glyphName="uni06A1.fina" x="0" y="0" flags="0x604"/>
      <component glyphName="uniFBB3" x="369" y="-22" flags="0x4"/>
    </TTGlyph>
    <TTGlyph name="fehDotMovedbelowar.init" xMin="0" yMin="-273" xMax="495" yMax="594">
      <component glyphName="uni06A1.init" x="0" y="0" flags="0x604"/>
      <component glyphName="uniFBB3" x="122" y="-22" flags="0x4"/>
    </TTGlyph>
    <TTGlyph name="fehDotMovedbelowar.medi" xMin="0" yMin="-272" xMax="649" yMax="501">
      <component glyphName="uni06A1.medi" x="0" y="0" flags="0x604"/>
      <component glyphName="uniFBB3" x="165" y="-21" flags="0x4"/>
    </TTGlyph>
    <TTGlyph name="feh_yehHamzaabovear" xMin="24" yMin="-231" xMax="1336" yMax="852">
      <component glyphName="uniFED3" x="841" y="0" flags="0x404"/>
      <component glyphName="uniFE8A" x="0" y="0" flags="0x4"/>
    </TTGlyph>
    <TTGlyph name="five" xMin="46" yMin="-10" xMax="540" yMax="714">
      <contour>
        <pt x="324" y="468" on="1" overlap="1"/>
        <pt x="384" y="468" on="0"/>
        <pt x="482" y="414" on="0"/>
        <pt x="540" y="312" on="0"/>
        <pt x="540" y="238" on="1"/>
        <pt x="540" y="158" on="0"/>
        <pt x="476" y="47" on="0"/>
        <pt x="348" y="-10" on="0"/>
        <pt x="250" y="-10" on="1"/>
        <pt x="188" y="-10" on="0"/>
        <pt x="86" y="10" on="0"/>
        <pt x="46" y="29" on="1"/>
        <pt x="46" y="187" on="1"/>
        <pt x="84" y="170" on="0"/>
        <pt x="190" y="142" on="0"/>
        <pt x="234" y="142" on="1"/>
        <pt x="270" y="142" on="0"/>
        <pt x="319" y="162" on="0"/>
        <pt x="345" y="203" on="0"/>
        <pt x="345" y="232" on="1"/>
        <pt x="345" y="273" on="0"/>
        <pt x="286" y="319" on="0"/>
        <pt x="227" y="319" on="1"/>
        <pt x="200" y="319" on="0"/>
        <pt x="149" y="308" on="0"/>
        <pt x="129" y="302" on="1"/>
        <pt x="58" y="337" on="1"/>
        <pt x="85" y="714" on="1"/>
        <pt x="492" y="714" on="1"/>
        <pt x="492" y="553" on="1"/>
        <pt x="249" y="553" on="1"/>
        <pt x="240" y="459" on="1"/>
        <pt x="256" y="462" on="0"/>
        <pt x="289" y="468" on="0"/>
      </contour>
    </TTGlyph>
    <TTGlyph name="four" xMin="17" yMin="0" xMax="571" yMax="714">
      <contour>
        <pt x="571" y="138" on="1" overlap="1"/>
        <pt x="492" y="138" on="1"/>
        <pt x="492" y="0" on="1"/>
        <pt x="302" y="0" on="1"/>
        <pt x="302" y="138" on="1"/>
        <pt x="17" y="138" on="1"/>
        <pt x="17" y="280" on="1"/>
        <pt x="314" y="714" on="1"/>
        <pt x="492" y="714" on="1"/>
        <pt x="492" y="282" on="1"/>
        <pt x="571" y="282" on="1"/>
      </contour>
      <contour>
        <pt x="302" y="282" on="1"/>
        <pt x="302" y="365" on="1"/>
        <pt x="302" y="376" on="0"/>
        <pt x="303" y="411" on="0"/>
        <pt x="304" y="445" on="0"/>
        <pt x="306" y="469" on="0"/>
        <pt x="306" y="470" on="1"/>
        <pt x="301" y="470" on="1"/>
        <pt x="291" y="448" on="0"/>
        <pt x="276" y="420" on="0"/>
        <pt x="263" y="400" on="1"/>
        <pt x="184" y="282" on="1"/>
      </contour>
    </TTGlyph>
    <TTGlyph name="gaf_alefMaksuraar" xMin="24" yMin="-231" xMax="1334" yMax="932">
      <component glyphName="uniFB94" x="841" y="0" flags="0x404"/>
      <component glyphName="uniFEF0" x="0" y="0" flags="0x4"/>
    </TTGlyph>
    <TTGlyph name="gaf_alefMaksuraar.fina" xMin="24" yMin="-231" xMax="1334" yMax="932">
      <component glyphName="uniFB94" x="841" y="0" flags="0x404"/>
      <component glyphName="uniFEF0" x="0" y="0" flags="0x4"/>
    </TTGlyph>
    <TTGlyph name="gaf_yehHamzaabovear" xMin="24" yMin="-231" xMax="1334" yMax="932">
      <component glyphName="uniFB94" x="841" y="0" flags="0x404"/>
      <component glyphName="uniFE8A" x="0" y="0" flags="0x4"/>
    </TTGlyph>
    <TTGlyph name="gaf_yehHamzaabovear.fina" xMin="24" yMin="-231" xMax="1334" yMax="932">
      <component glyphName="uniFB94" x="841" y="0" flags="0x404"/>
      <component glyphName="uniFE8A" x="0" y="0" flags="0x4"/>
    </TTGlyph>
    <TTGlyph name="gaf_yehar" xMin="24" yMin="-463" xMax="1334" yMax="932">
      <component glyphName="uniFB94" x="841" y="0" flags="0x404"/>
      <component glyphName="uniFEF2" x="0" y="0" flags="0x4"/>
    </TTGlyph>
    <TTGlyph name="gaf_yehar.fina" xMin="24" yMin="-463" xMax="1334" yMax="932">
      <component glyphName="uniFB94" x="841" y="0" flags="0x404"/>
      <component glyphName="uniFEF2" x="0" y="0" flags="0x4"/>
    </TTGlyph>
    <TTGlyph name="guillemotleft" xMin="36" yMin="39" xMax="644" yMax="523">
      <contour>
        <pt x="36" y="287" on="1" overlap="1"/>
        <pt x="226" y="523" on="1"/>
        <pt x="363" y="450" on="1"/>
        <pt x="230" y="281" on="1"/>
        <pt x="363" y="111" on="1"/>
        <pt x="226" y="39" on="1"/>
        <pt x="36" y="274" on="1"/>
      </contour>
      <contour>
        <pt x="317" y="287" on="1"/>
        <pt x="506" y="523" on="1"/>
        <pt x="644" y="450" on="1"/>
        <pt x="510" y="281" on="1"/>
        <pt x="644" y="111" on="1"/>
        <pt x="506" y="39" on="1"/>
        <pt x="317" y="274" on="1"/>
      </contour>
    </TTGlyph>
    <TTGlyph name="guillemotright" xMin="37" yMin="39" xMax="645" yMax="523">
      <contour>
        <pt x="645" y="274" on="1" overlap="1"/>
        <pt x="456" y="39" on="1"/>
        <pt x="317" y="111" on="1"/>
        <pt x="451" y="281" on="1"/>
        <pt x="317" y="450" on="1"/>
        <pt x="456" y="523" on="1"/>
        <pt x="645" y="287" on="1"/>
      </contour>
      <contour>
        <pt x="364" y="274" on="1"/>
        <pt x="175" y="39" on="1"/>
        <pt x="37" y="111" on="1"/>
        <pt x="170" y="281" on="1"/>
        <pt x="37" y="450" on="1"/>
        <pt x="175" y="523" on="1"/>
        <pt x="364" y="287" on="1"/>
      </contour>
    </TTGlyph>
    <TTGlyph name="hamzaaboveFathatanar" xMin="27" yMin="578" xMax="271" yMax="1159">
      <component glyphName="uni0654" x="1" y="0" flags="0x404"/>
      <component glyphName="uni064B" x="-13" y="312" flags="0x4"/>
    </TTGlyph>
    <TTGlyph name="hamzaabove_dammaar" xMin="-34" yMin="578" xMax="244" yMax="1170">
      <component glyphName="uni0654" x="-8" y="0" flags="0x404"/>
      <component glyphName="uni064F" x="-51" y="312" flags="0x4"/>
    </TTGlyph>
    <TTGlyph name="hamzaabove_dammatanar" xMin="-76" yMin="578" xMax="295" yMax="1180">
      <component glyphName="uni0654" x="0" y="0" flags="0x404"/>
      <component glyphName="uni064C" x="-82" y="312" flags="0x4"/>
    </TTGlyph>
    <TTGlyph name="hamzaabove_fathaar" xMin="0" yMin="578" xMax="244" yMax="1042">
      <component glyphName="uni0654" x="-16" y="0" flags="0x404"/>
      <component glyphName="uni064E" x="-40" y="312" flags="0x4"/>
    </TTGlyph>
    <TTGlyph name="hamzaabove_sukunar" xMin="27" yMin="578" xMax="252" yMax="1162">
      <component glyphName="uni0654" x="0" y="0" flags="0x404"/>
      <component glyphName="uni0652" x="1" y="312" flags="0x4"/>
    </TTGlyph>
    <TTGlyph name="hamzabelow_kasraar" xMin="27" yMin="-450" xMax="275" yMax="-37">
      <component glyphName="uni0655" x="0" y="0" flags="0x404"/>
      <component glyphName="uni0650" x="-9" y="-269" flags="0x4"/>
    </TTGlyph>
    <TTGlyph name="hamzabelow_kasratanar" xMin="26" yMin="-569" xMax="270" yMax="-37">
      <component glyphName="uni0655" x="0" y="0" flags="0x404"/>
      <component glyphName="uni064D" x="-14" y="-273" flags="0x4"/>
    </TTGlyph>
    <TTGlyph name="hehAlefabovear.init.fina" xMin="15" yMin="-222" xMax="826" yMax="816">
      <component glyphName="uniFBAB" x="0" y="0" flags="0x604"/>
      <component glyphName="uni0670" x="362" y="50" flags="0x4"/>
    </TTGlyph>
    <TTGlyph name="hyphen" xMin="21" yMin="192" xMax="297" yMax="344">
      <contour>
        <pt x="21" y="192" on="1" overlap="1"/>
        <pt x="21" y="344" on="1"/>
        <pt x="297" y="344" on="1"/>
        <pt x="297" y="192" on="1"/>
      </contour>
    </TTGlyph>
    <TTGlyph name="kaf_yehHamzaabovear" xMin="24" yMin="-231" xMax="1334" yMax="750">
      <component glyphName="uniFEDB" x="841" y="0" flags="0x404"/>
      <component glyphName="uniFE8A" x="0" y="0" flags="0x4"/>
    </TTGlyph>
    <TTGlyph name="kaf_yehHamzaabovear.fina" xMin="24" yMin="-231" xMax="1334" yMax="750">
      <component glyphName="uniFEDB" x="841" y="0" flags="0x404"/>
      <component glyphName="uniFE8A" x="0" y="0" flags="0x4"/>
    </TTGlyph>
    <TTGlyph name="keheh_yehar" xMin="24" yMin="-463" xMax="1334" yMax="750">
      <component glyphName="uniFB90" x="841" y="0" flags="0x404"/>
      <component glyphName="uniFEF2" x="0" y="0" flags="0x4"/>
    </TTGlyph>
    <TTGlyph name="khah_yehHamzaabovear" xMin="24" yMin="-231" xMax="1500" yMax="740">
      <component glyphName="uniFEA7" x="841" y="0" flags="0x404"/>
      <component glyphName="uniFE8A" x="0" y="0" flags="0x4"/>
    </TTGlyph>
    <TTGlyph name="khah_yehHamzaabovear.fina" xMin="24" yMin="-231" xMax="1500" yMax="740">
      <component glyphName="uniFEA7" x="841" y="0" flags="0x404"/>
      <component glyphName="uniFE8A" x="0" y="0" flags="0x4"/>
    </TTGlyph>
    <TTGlyph name="lamDotabove_alefar.fina" xMin="35" yMin="-5" xMax="798" yMax="986">
      <component glyphName="uniFEFC" x="0" y="0" flags="0x604"/>
      <component glyphName="uniFBB2" x="392" y="281" flags="0x4"/>
    </TTGlyph>
    <TTGlyph name="lamDotabove_alefar.isol" xMin="35" yMin="0" xMax="607" yMax="983">
      <component glyphName="uniFEFB" x="0" y="0" flags="0x604"/>
      <component glyphName="uniFBB2" x="338" y="278" flags="0x4"/>
    </TTGlyph>
    <TTGlyph name="lamThreedotsabove_alefar.fina" xMin="35" yMin="-5" xMax="798" yMax="1121">
      <component glyphName="uniFEFC" x="0" y="0" flags="0x604"/>
      <component glyphName="uniFBB6" x="309" y="279" flags="0x4"/>
    </TTGlyph>
    <TTGlyph name="lamThreedotsabove_alefar.isol" xMin="35" yMin="0" xMax="618" yMax="1122">
      <component glyphName="uniFEFB" x="0" y="0" flags="0x604"/>
      <component glyphName="uniFBB6" x="264" y="280" flags="0x4"/>
    </TTGlyph>
    <TTGlyph name="lamThreedotsbelow_alefar.fina" xMin="35" yMin="-390" xMax="798" yMax="760">
      <component glyphName="uniFEFC" x="0" y="0" flags="0x604"/>
      <component glyphName="uniFBB7" x="317" y="0" flags="0x4"/>
    </TTGlyph>
    <TTGlyph name="lamThreedotsbelow_alefar.isol" xMin="35" yMin="-390" xMax="627" yMax="750">
      <component glyphName="uniFEFB" x="0" y="0" flags="0x604"/>
      <component glyphName="uniFBB7" x="251" y="0" flags="0x4"/>
    </TTGlyph>
    <TTGlyph name="lamVabove_alefar.fina" xMin="35" yMin="-5" xMax="798" yMax="1035">
      <component glyphName="uniFEFC" x="0" y="0" flags="0x604"/>
      <component glyphName="uni065A" x="368" y="265" flags="0x4"/>
    </TTGlyph>
    <TTGlyph name="lamVabove_alefar.isol" xMin="35" yMin="0" xMax="607" yMax="1035">
      <component glyphName="uniFEFB" x="0" y="0" flags="0x604"/>
      <component glyphName="uni065A" x="298" y="265" flags="0x4"/>
    </TTGlyph>
    <TTGlyph name="lam_alefMaksura_meemar" xMin="15" yMin="-393" xMax="1323" yMax="760">
      <component glyphName="uniFEDF" x="1052" y="0" flags="0x404"/>
      <component glyphName="alefMaksura_meemar.fina" x="0" y="0" flags="0x4"/>
    </TTGlyph>
    <TTGlyph name="lam_alefWaslaar" xMin="0" yMin="0" xMax="607" yMax="920">
      <component glyphName="uniFEFB" x="0" y="0" flags="0x404"/>
      <component glyphName="waslaar" x="-25" y="96" flags="0x4"/>
    </TTGlyph>
    <TTGlyph name="lam_alefWaslaar.fina" xMin="0" yMin="-5" xMax="798" yMax="920">
      <component glyphName="uniFEFC" x="0" y="0" flags="0x404"/>
      <component glyphName="waslaar" x="-25" y="96" flags="0x4"/>
    </TTGlyph>
    <TTGlyph name="lam_alefWaslaar.isol" xMin="0" yMin="0" xMax="607" yMax="920">
      <component glyphName="uniFEFB" x="0" y="0" flags="0x404"/>
      <component glyphName="waslaar" x="-25" y="96" flags="0x4"/>
    </TTGlyph>
    <TTGlyph name="lam_alefWavyhamzaabovear.fina" xMin="0" yMin="-5" xMax="798" yMax="933">
      <component glyphName="uniFEFC" x="0" y="0" flags="0x404"/>
      <component glyphName="_wavyhamzaabovear" x="0" y="112" flags="0x4"/>
    </TTGlyph>
    <TTGlyph name="lam_alefWavyhamzaabovear.isol" xMin="0" yMin="0" xMax="607" yMax="933">
      <component glyphName="uniFEFB" x="0" y="0" flags="0x404"/>
      <component glyphName="_wavyhamzaabovear" x="0" y="112" flags="0x4"/>
    </TTGlyph>
    <TTGlyph name="lam_alefWavyhamzabelowar.fina" xMin="0" yMin="-317" xMax="798" yMax="760">
      <component glyphName="uniFEFC" x="0" y="0" flags="0x404"/>
      <component glyphName="uni065F" x="0" y="-1" flags="0x4"/>
    </TTGlyph>
    <TTGlyph name="lam_alefWavyhamzabelowar.isol" xMin="0" yMin="-317" xMax="607" yMax="750">
      <component glyphName="uniFEFB" x="0" y="0" flags="0x404"/>
      <component glyphName="uni065F" x="0" y="-1" flags="0x4"/>
    </TTGlyph>
    <TTGlyph name="lam_beh_meemar" xMin="15" yMin="-393" xMax="1388" yMax="760">
      <component glyphName="uniFEDF" x="1117" y="0" flags="0x404"/>
      <component glyphName="uniFC6C" x="0" y="0" flags="0x4"/>
    </TTGlyph>
    <TTGlyph name="lam_noon_meemar" xMin="15" yMin="-393" xMax="1388" yMax="760">
      <component glyphName="uniFEDF" x="1117" y="0" flags="0x404"/>
      <component glyphName="uniFC8C" x="0" y="0" flags="0x4"/>
    </TTGlyph>
    <TTGlyph name="lam_peh_meemar" xMin="15" yMin="-395" xMax="1381" yMax="760">
      <component glyphName="uniFEDF" x="1110" y="0" flags="0x404"/>
      <component glyphName="peh_meemar.fina" x="0" y="0" flags="0x4"/>
    </TTGlyph>
    <TTGlyph name="lam_teh_meemar" xMin="15" yMin="-393" xMax="1423" yMax="760">
      <component glyphName="uniFEDF" x="1152" y="0" flags="0x404"/>
      <component glyphName="uniFC72" x="0" y="0" flags="0x4"/>
    </TTGlyph>
    <TTGlyph name="lam_theh_meemar" xMin="15" yMin="-393" xMax="1423" yMax="786">
      <component glyphName="uniFEDF" x="1152" y="0" flags="0x404"/>
      <component glyphName="uniFC78" x="0" y="0" flags="0x4"/>
    </TTGlyph>
    <TTGlyph name="lam_yehHamzaabove_meemar" xMin="15" yMin="-393" xMax="1388" yMax="760">
      <component glyphName="uniFEDF" x="1117" y="0" flags="0x404"/>
      <component glyphName="uniFC66" x="0" y="0" flags="0x4"/>
    </TTGlyph>
    <TTGlyph name="lam_yehHamzaabovear" xMin="24" yMin="-231" xMax="1112" yMax="760">
      <component glyphName="uniFEDF" x="841" y="0" flags="0x404"/>
      <component glyphName="uniFE8A" x="0" y="0" flags="0x4"/>
    </TTGlyph>
    <TTGlyph name="lam_yehHamzaabovear.fina" xMin="24" yMin="-231" xMax="1112" yMax="760">
      <component glyphName="uniFEDF" x="841" y="0" flags="0x404"/>
      <component glyphName="uniFE8A" x="0" y="0" flags="0x4"/>
    </TTGlyph>
    <TTGlyph name="lam_yeh_meemar" xMin="15" yMin="-393" xMax="1423" yMax="760">
      <component glyphName="uniFEDF" x="1152" y="0" flags="0x404"/>
      <component glyphName="uniFC93" x="0" y="0" flags="0x4"/>
    </TTGlyph>
    <TTGlyph name="meem_rehar.fina" xMin="-37" yMin="-231" xMax="1031" yMax="454">
      <component glyphName="uniFEE3" x="460" y="0" flags="0x404"/>
      <component glyphName="uniFEAE" x="0" y="0" flags="0x4"/>
    </TTGlyph>
    <TTGlyph name="meem_zainar.fina" xMin="-37" yMin="-231" xMax="1031" yMax="677">
      <component glyphName="uniFEE3" x="460" y="0" flags="0x404"/>
      <component glyphName="uniFEB0" x="0" y="0" flags="0x4"/>
    </TTGlyph>
    <TTGlyph name="nine" xMin="26" yMin="-10" xMax="553" yMax="721">
      <contour>
        <pt x="553" y="387" on="1" overlap="1"/>
        <pt x="553" y="308" on="0"/>
        <pt x="527" y="180" on="0"/>
        <pt x="472" y="85" on="0"/>
        <pt x="383" y="22" on="0"/>
        <pt x="257" y="-10" on="0"/>
        <pt x="174" y="-10" on="1"/>
        <pt x="152" y="-10" on="0"/>
        <pt x="94" y="-8" on="0"/>
        <pt x="74" y="-5" on="1"/>
        <pt x="74" y="148" on="1"/>
        <pt x="95" y="144" on="0"/>
        <pt x="136" y="140" on="0"/>
        <pt x="158" y="140" on="1"/>
        <pt x="223" y="140" on="0"/>
        <pt x="307" y="169" on="0"/>
        <pt x="356" y="220" on="0"/>
        <pt x="377" y="284" on="0"/>
        <pt x="379" y="318" on="1"/>
        <pt x="373" y="318" on="1"/>
        <pt x="360" y="294" on="0"/>
        <pt x="327" y="257" on="0"/>
        <pt x="271" y="235" on="0"/>
        <pt x="223" y="235" on="1"/>
        <pt x="163" y="235" on="0"/>
        <pt x="74" y="289" on="0"/>
        <pt x="26" y="394" on="0"/>
        <pt x="26" y="468" on="1"/>
        <pt x="26" y="548" on="0"/>
        <pt x="87" y="661" on="0"/>
        <pt x="201" y="721" on="0"/>
        <pt x="279" y="721" on="1"/>
        <pt x="336" y="721" on="0"/>
        <pt x="436" y="683" on="0"/>
        <pt x="511" y="603" on="0"/>
        <pt x="553" y="476" on="0"/>
      </contour>
      <contour>
        <pt x="284" y="567" on="1"/>
        <pt x="253" y="567" on="0"/>
        <pt x="213" y="521" on="0"/>
        <pt x="213" y="470" on="1"/>
        <pt x="213" y="430" on="0"/>
        <pt x="248" y="383" on="0"/>
        <pt x="282" y="383" on="1"/>
        <pt x="306" y="383" on="0"/>
        <pt x="341" y="406" on="0"/>
        <pt x="361" y="442" on="0"/>
        <pt x="361" y="461" on="1"/>
        <pt x="361" y="480" on="0"/>
        <pt x="351" y="518" on="0"/>
        <pt x="331" y="549" on="0"/>
        <pt x="302" y="567" on="0"/>
      </contour>
    </TTGlyph>
    <TTGlyph name="noon_yehHamzaabovear" xMin="24" yMin="-231" xMax="1131" yMax="777">
      <component glyphName="uniFEE7" x="841" y="0" flags="0x404"/>
      <component glyphName="uniFE8A" x="0" y="0" flags="0x4"/>
    </TTGlyph>
    <TTGlyph name="noon_yehHamzaabovear.fina" xMin="24" yMin="-231" xMax="1131" yMax="777">
      <component glyphName="uniFEE7" x="841" y="0" flags="0x404"/>
      <component glyphName="uniFE8A" x="0" y="0" flags="0x4"/>
    </TTGlyph>
    <TTGlyph name="one" xMin="41" yMin="0" xMax="460" yMax="714">
      <contour>
        <pt x="460" y="0" on="1" overlap="1"/>
        <pt x="264" y="0" on="1"/>
        <pt x="264" y="353" on="1"/>
        <pt x="264" y="363" on="0"/>
        <pt x="264" y="415" on="0"/>
        <pt x="266" y="479" on="0"/>
        <pt x="267" y="504" on="1"/>
        <pt x="254" y="489" on="0"/>
        <pt x="233" y="467" on="0"/>
        <pt x="222" y="458" on="1"/>
        <pt x="141" y="391" on="1"/>
        <pt x="41" y="514" on="1"/>
        <pt x="286" y="714" on="1"/>
        <pt x="460" y="714" on="1"/>
      </contour>
    </TTGlyph>
    <TTGlyph name="peh_alefMaksuraar" xMin="24" yMin="-395" xMax="1202" yMax="520">
      <component glyphName="uniFB58" x="841" y="0" flags="0x404"/>
      <component glyphName="uniFEF0" x="0" y="0" flags="0x4"/>
    </TTGlyph>
    <TTGlyph name="peh_alefMaksuraar.fina" xMin="24" yMin="-395" xMax="1202" yMax="520">
      <component glyphName="uniFB58" x="841" y="0" flags="0x404"/>
      <component glyphName="uniFEF0" x="0" y="0" flags="0x4"/>
    </TTGlyph>
    <TTGlyph name="peh_hehar.init" xMin="35" yMin="-395" xMax="982" yMax="634">
      <component glyphName="uniFB58" x="621" y="0" flags="0x404"/>
      <component glyphName="uniFEEA" x="0" y="0" flags="0x4"/>
    </TTGlyph>
    <TTGlyph name="peh_hehar.medi" xMin="35" yMin="-395" xMax="982" yMax="634">
      <component glyphName="uniFB58" x="621" y="0" flags="0x404"/>
      <component glyphName="uniFEEA" x="0" y="0" flags="0x4"/>
    </TTGlyph>
    <TTGlyph name="peh_meemar" xMin="15" yMin="-395" xMax="1068" yMax="520">
      <component glyphName="uniFB58" x="707" y="0" flags="0x404"/>
      <component glyphName="uniFEE2" x="0" y="0" flags="0x4"/>
    </TTGlyph>
    <TTGlyph name="peh_meemar.fina" xMin="15" yMin="-395" xMax="1068" yMax="520">
      <component glyphName="uniFB58" x="707" y="0" flags="0x404"/>
      <component glyphName="uniFEE2" x="0" y="0" flags="0x4"/>
    </TTGlyph>
    <TTGlyph name="peh_meemar.init" xMin="15" yMin="-395" xMax="1068" yMax="520">
      <component glyphName="uniFB58" x="707" y="0" flags="0x404"/>
      <component glyphName="uniFEE2" x="0" y="0" flags="0x4"/>
    </TTGlyph>
    <TTGlyph name="peh_meemar.medi" xMin="15" yMin="-395" xMax="1068" yMax="520">
      <component glyphName="uniFB58" x="707" y="0" flags="0x404"/>
      <component glyphName="uniFEE2" x="0" y="0" flags="0x4"/>
    </TTGlyph>
    <TTGlyph name="peh_noonar.fina" xMin="24" yMin="-395" xMax="1184" yMax="642">
      <component glyphName="uniFB58" x="823" y="0" flags="0x404"/>
      <component glyphName="uniFEE6" x="0" y="0" flags="0x4"/>
    </TTGlyph>
    <TTGlyph name="peh_rehar.fina" xMin="-37" yMin="-395" xMax="821" yMax="520">
      <component glyphName="uniFB58" x="460" y="0" flags="0x404"/>
      <component glyphName="uniFEAE" x="0" y="0" flags="0x4"/>
    </TTGlyph>
    <TTGlyph name="peh_yehHamzaabovear" xMin="24" yMin="-395" xMax="1202" yMax="600">
      <component glyphName="uniFB58" x="841" y="0" flags="0x404"/>
      <component glyphName="uniFE8A" x="0" y="0" flags="0x4"/>
    </TTGlyph>
    <TTGlyph name="peh_yehHamzaabovear.fina" xMin="24" yMin="-395" xMax="1202" yMax="600">
      <component glyphName="uniFB58" x="841" y="0" flags="0x404"/>
      <component glyphName="uniFE8A" x="0" y="0" flags="0x4"/>
    </TTGlyph>
    <TTGlyph name="peh_yehar" xMin="24" yMin="-463" xMax="1202" yMax="520">
      <component glyphName="uniFB58" x="841" y="0" flags="0x404"/>
      <component glyphName="uniFEF2" x="0" y="0" flags="0x4"/>
    </TTGlyph>
    <TTGlyph name="peh_yehar.fina" xMin="24" yMin="-463" xMax="1202" yMax="520">
      <component glyphName="uniFB58" x="841" y="0" flags="0x404"/>
      <component glyphName="uniFEF2" x="0" y="0" flags="0x4"/>
    </TTGlyph>
    <TTGlyph name="peh_zainar.fina" xMin="-37" yMin="-395" xMax="821" yMax="677">
      <component glyphName="uniFB58" x="460" y="0" flags="0x404"/>
      <component glyphName="uniFEB0" x="0" y="0" flags="0x4"/>
    </TTGlyph>
    <TTGlyph name="period" xMin="42" yMin="-12" xMax="246" yMax="175">
      <contour>
        <pt x="42" y="81" on="1" overlap="1"/>
        <pt x="42" y="133" on="0"/>
        <pt x="103" y="175" on="0"/>
        <pt x="146" y="175" on="1"/>
        <pt x="187" y="175" on="0"/>
        <pt x="246" y="133" on="0"/>
        <pt x="246" y="81" on="1"/>
        <pt x="246" y="32" on="0"/>
        <pt x="187" y="-12" on="0"/>
        <pt x="146" y="-12" on="1"/>
        <pt x="103" y="-12" on="0"/>
        <pt x="42" y="32" on="0"/>
      </contour>
    </TTGlyph>
    <TTGlyph name="qaf_yehHamzaabovear" xMin="24" yMin="-231" xMax="1336" yMax="835">
      <component glyphName="uniFED7" x="841" y="0" flags="0x404"/>
      <component glyphName="uniFE8A" x="0" y="0" flags="0x4"/>
    </TTGlyph>
    <TTGlyph name="ringArabic" xMin="20" yMin="-27" xMax="233" yMax="187">
      <contour>
        <pt x="126" y="-27" on="1" overlap="1"/>
        <pt x="82" y="-27" on="0"/>
        <pt x="20" y="36" on="0"/>
        <pt x="20" y="80" on="1"/>
        <pt x="20" y="124" on="0"/>
        <pt x="82" y="187" on="0"/>
        <pt x="126" y="187" on="1"/>
        <pt x="171" y="187" on="0"/>
        <pt x="233" y="124" on="0"/>
        <pt x="233" y="80" on="1"/>
        <pt x="233" y="36" on="0"/>
        <pt x="171" y="-27" on="0"/>
      </contour>
      <contour>
        <pt x="126" y="48" on="1"/>
        <pt x="140" y="48" on="0"/>
        <pt x="160" y="66" on="0"/>
        <pt x="160" y="80" on="1"/>
        <pt x="160" y="95" on="0"/>
        <pt x="140" y="113" on="0"/>
        <pt x="126" y="113" on="1"/>
        <pt x="113" y="113" on="0"/>
        <pt x="92" y="94" on="0"/>
        <pt x="92" y="80" on="1"/>
        <pt x="92" y="66" on="0"/>
        <pt x="113" y="48" on="0"/>
      </contour>
    </TTGlyph>
    <TTGlyph name="sad_hehar.init" xMin="35" yMin="-18" xMax="1601" yMax="634">
      <component glyphName="uniFEBB" x="621" y="0" flags="0x404"/>
      <component glyphName="uniFEEA" x="0" y="0" flags="0x4"/>
    </TTGlyph>
    <TTGlyph name="sad_hehar.medi" xMin="35" yMin="-18" xMax="1601" yMax="634">
      <component glyphName="uniFEBB" x="621" y="0" flags="0x404"/>
      <component glyphName="uniFEEA" x="0" y="0" flags="0x4"/>
    </TTGlyph>
    <TTGlyph name="sad_yehHamzaabovear" xMin="24" yMin="-231" xMax="1821" yMax="600">
      <component glyphName="uniFEBB" x="841" y="0" flags="0x404"/>
      <component glyphName="uniFE8A" x="0" y="0" flags="0x4"/>
    </TTGlyph>
    <TTGlyph name="sad_yehHamzaabovear.fina" xMin="24" yMin="-231" xMax="1821" yMax="600">
      <component glyphName="uniFEBB" x="841" y="0" flags="0x404"/>
      <component glyphName="uniFE8A" x="0" y="0" flags="0x4"/>
    </TTGlyph>
    <TTGlyph name="sad_zainar" xMin="-37" yMin="-231" xMax="1440" yMax="677">
      <component glyphName="uniFEBB" x="460" y="0" flags="0x404"/>
      <component glyphName="uniFEB0" x="0" y="0" flags="0x4"/>
    </TTGlyph>
    <TTGlyph name="sad_zainar.fina" xMin="-37" yMin="-231" xMax="1440" yMax="677">
      <component glyphName="uniFEBB" x="460" y="0" flags="0x404"/>
      <component glyphName="uniFEB0" x="0" y="0" flags="0x4"/>
    </TTGlyph>
    <TTGlyph name="seenThrdotsblwthrdotsar.fina" xMin="24" yMin="-390" xMax="1646" yMax="821">
      <component glyphName="uniFEB2" x="0" y="0" flags="0x604"/>
      <component glyphName="uniFBB6" x="740" y="-21" flags="0x4"/>
      <component glyphName="uniFBB7" x="795" y="0" flags="0x4"/>
    </TTGlyph>
    <TTGlyph name="seenThrdotsblwthrdotsar.init" xMin="0" yMin="-395" xMax="995" yMax="821">
      <component glyphName="uniFEB3" x="0" y="0" flags="0x604"/>
      <component glyphName="uniFBB6" x="382" y="-21" flags="0x4"/>
      <component glyphName="uniFBB7" x="319" y="-5" flags="0x4"/>
    </TTGlyph>
    <TTGlyph name="seenThrdotsblwthrdotsar.medi" xMin="0" yMin="-395" xMax="1216" yMax="821">
      <component glyphName="uniFEB4" x="0" y="0" flags="0x604"/>
      <component glyphName="uniFBB6" x="366" y="-21" flags="0x4"/>
      <component glyphName="uniFBB7" x="291" y="-5" flags="0x4"/>
    </TTGlyph>
    <TTGlyph name="seenThreedotsbelowthreedotsar" xMin="24" yMin="-395" xMax="1421" yMax="821">
      <component glyphName="uni0633" x="0" y="0" flags="0x604"/>
      <component glyphName="uniFBB6" x="740" y="-21" flags="0x4"/>
      <component glyphName="uniFBB7" x="791" y="-5" flags="0x4"/>
    </TTGlyph>
    <TTGlyph name="seen_yehHamzaabovear" xMin="24" yMin="-231" xMax="1836" yMax="600">
      <component glyphName="uniFEB3" x="841" y="0" flags="0x404"/>
      <component glyphName="uniFE8A" x="0" y="0" flags="0x4"/>
    </TTGlyph>
    <TTGlyph name="seen_yehHamzaabovear.fina" xMin="24" yMin="-231" xMax="1836" yMax="600">
      <component glyphName="uniFEB3" x="841" y="0" flags="0x404"/>
      <component glyphName="uniFE8A" x="0" y="0" flags="0x4"/>
    </TTGlyph>
    <TTGlyph name="seen_zainar" xMin="-37" yMin="-231" xMax="1455" yMax="677">
      <component glyphName="uniFEB3" x="460" y="0" flags="0x404"/>
      <component glyphName="uniFEB0" x="0" y="0" flags="0x4"/>
    </TTGlyph>
    <TTGlyph name="seen_zainar.fina" xMin="-37" yMin="-231" xMax="1455" yMax="677">
      <component glyphName="uniFEB3" x="460" y="0" flags="0x404"/>
      <component glyphName="uniFEB0" x="0" y="0" flags="0x4"/>
    </TTGlyph>
    <TTGlyph name="seven" xMin="38" yMin="0" xMax="553" yMax="714">
      <contour>
        <pt x="102" y="0" on="1" overlap="1"/>
        <pt x="347" y="554" on="1"/>
        <pt x="38" y="554" on="1"/>
        <pt x="38" y="714" on="1"/>
        <pt x="553" y="714" on="1"/>
        <pt x="553" y="600" on="1"/>
        <pt x="302" y="0" on="1"/>
      </contour>
    </TTGlyph>
    <TTGlyph name="shadda_fathatanar" xMin="26" yMin="591" xMax="313" yMax="1107">
      <component glyphName="uni0651" x="0" y="0" flags="0x404"/>
      <component glyphName="uni064B" x="2" y="260" flags="0x4"/>
    </TTGlyph>
    <TTGlyph name="sheen_yehHamzaabovear" xMin="24" yMin="-231" xMax="1836" yMax="821">
      <component glyphName="uniFEB7" x="841" y="0" flags="0x404"/>
      <component glyphName="uniFE8A" x="0" y="0" flags="0x4"/>
    </TTGlyph>
    <TTGlyph name="sheen_yehHamzaabovear.fina" xMin="24" yMin="-231" xMax="1836" yMax="821">
      <component glyphName="uniFEB7" x="841" y="0" flags="0x404"/>
      <component glyphName="uniFE8A" x="0" y="0" flags="0x4"/>
    </TTGlyph>
    <TTGlyph name="sheen_zainar" xMin="-37" yMin="-231" xMax="1455" yMax="821">
      <component glyphName="uniFEB7" x="460" y="0" flags="0x404"/>
      <component glyphName="uniFEB0" x="0" y="0" flags="0x4"/>
    </TTGlyph>
    <TTGlyph name="sheen_zainar.fina" xMin="-37" yMin="-231" xMax="1455" yMax="821">
      <component glyphName="uniFEB7" x="460" y="0" flags="0x404"/>
      <component glyphName="uniFEB0" x="0" y="0" flags="0x4"/>
    </TTGlyph>
    <TTGlyph name="six" xMin="34" yMin="-10" xMax="555" yMax="724">
      <contour>
        <pt x="34" y="302" on="1" overlap="1"/>
        <pt x="34" y="363" on="0"/>
        <pt x="52" y="485" on="0"/>
        <pt x="98" y="593" on="0"/>
        <pt x="182" y="676" on="0"/>
        <pt x="313" y="724" on="0"/>
        <pt x="408" y="724" on="1"/>
        <pt x="429" y="724" on="0"/>
        <pt x="490" y="719" on="0"/>
        <pt x="510" y="716" on="1"/>
        <pt x="510" y="565" on="1"/>
        <pt x="490" y="569" on="0"/>
        <pt x="440" y="574" on="0"/>
        <pt x="404" y="574" on="1"/>
        <pt x="350" y="574" on="0"/>
        <pt x="276" y="549" on="0"/>
        <pt x="232" y="502" on="0"/>
        <pt x="210" y="435" on="0"/>
        <pt x="208" y="393" on="1"/>
        <pt x="214" y="393" on="1"/>
        <pt x="227" y="417" on="0"/>
        <pt x="263" y="454" on="0"/>
        <pt x="317" y="476" on="0"/>
        <pt x="355" y="476" on="1"/>
        <pt x="418" y="476" on="0"/>
        <pt x="507" y="422" on="0"/>
        <pt x="555" y="318" on="0"/>
        <pt x="555" y="244" on="1"/>
        <pt x="555" y="164" on="0"/>
        <pt x="494" y="50" on="0"/>
        <pt x="381" y="-10" on="0"/>
        <pt x="303" y="-10" on="1"/>
        <pt x="246" y="-10" on="0"/>
        <pt x="148" y="27" on="0"/>
        <pt x="75" y="104" on="0"/>
        <pt x="34" y="222" on="0"/>
      </contour>
      <contour>
        <pt x="299" y="143" on="1"/>
        <pt x="330" y="143" on="0"/>
        <pt x="368" y="190" on="0"/>
        <pt x="368" y="240" on="1"/>
        <pt x="368" y="281" on="0"/>
        <pt x="336" y="327" on="0"/>
        <pt x="301" y="327" on="1"/>
        <pt x="277" y="327" on="0"/>
        <pt x="244" y="304" on="0"/>
        <pt x="226" y="269" on="0"/>
        <pt x="226" y="250" on="1"/>
        <pt x="226" y="231" on="0"/>
        <pt x="235" y="193" on="0"/>
        <pt x="252" y="162" on="0"/>
        <pt x="280" y="143" on="0"/>
      </contour>
    </TTGlyph>
    <TTGlyph name="teh_yehHamzaabovear" xMin="24" yMin="-231" xMax="1208" yMax="760">
      <component glyphName="uniFE97" x="841" y="0" flags="0x404"/>
      <component glyphName="uniFE8A" x="0" y="0" flags="0x4"/>
    </TTGlyph>
    <TTGlyph name="teh_yehHamzaabovear.fina" xMin="24" yMin="-231" xMax="1208" yMax="760">
      <component glyphName="uniFE97" x="841" y="0" flags="0x404"/>
      <component glyphName="uniFE8A" x="0" y="0" flags="0x4"/>
    </TTGlyph>
    <TTGlyph name="tehabovear.small" xMin="30" yMin="597" xMax="319" yMax="816">
      <contour>
        <pt x="167" y="597" on="1" overlap="1"/>
        <pt x="96" y="597" on="0"/>
        <pt x="30" y="630" on="0"/>
        <pt x="30" y="685" on="1"/>
        <pt x="30" y="696" on="0"/>
        <pt x="34" y="720" on="0"/>
        <pt x="39" y="738" on="1"/>
        <pt x="101" y="728" on="1"/>
        <pt x="100" y="721" on="0"/>
        <pt x="95" y="702" on="0"/>
        <pt x="95" y="694" on="1"/>
        <pt x="95" y="680" on="0"/>
        <pt x="115" y="666" on="0"/>
        <pt x="148" y="662" on="0"/>
        <pt x="167" y="662" on="1"/>
        <pt x="192" y="662" on="0"/>
        <pt x="231" y="667" on="0"/>
        <pt x="254" y="680" on="0"/>
        <pt x="254" y="692" on="1"/>
        <pt x="254" y="703" on="0"/>
        <pt x="246" y="731" on="0"/>
        <pt x="239" y="747" on="1"/>
        <pt x="304" y="768" on="1"/>
        <pt x="309" y="755" on="0"/>
        <pt x="319" y="713" on="0"/>
        <pt x="319" y="692" on="1"/>
        <pt x="319" y="633" on="0"/>
        <pt x="241" y="597" on="0"/>
      </contour>
      <contour>
        <pt x="128" y="751" on="1"/>
        <pt x="114" y="751" on="0"/>
        <pt x="97" y="771" on="0"/>
        <pt x="97" y="784" on="1"/>
        <pt x="97" y="798" on="0"/>
        <pt x="114" y="816" on="0"/>
        <pt x="128" y="816" on="1"/>
        <pt x="141" y="816" on="0"/>
        <pt x="160" y="798" on="0"/>
        <pt x="160" y="784" on="1"/>
        <pt x="160" y="771" on="0"/>
        <pt x="141" y="751" on="0"/>
      </contour>
      <contour>
        <pt x="207" y="751" on="1"/>
        <pt x="194" y="751" on="0"/>
        <pt x="175" y="771" on="0"/>
        <pt x="175" y="784" on="1"/>
        <pt x="175" y="798" on="0"/>
        <pt x="194" y="816" on="0"/>
        <pt x="207" y="816" on="1"/>
        <pt x="220" y="816" on="0"/>
        <pt x="239" y="798" on="0"/>
        <pt x="239" y="784" on="1"/>
        <pt x="239" y="771" on="0"/>
        <pt x="220" y="751" on="0"/>
      </contour>
    </TTGlyph>
    <TTGlyph name="theh_hehar.init" xMin="35" yMin="-5" xMax="984" yMax="914">
      <component glyphName="uniFE9B" x="621" y="0" flags="0x404"/>
      <component glyphName="uniFEEA" x="0" y="0" flags="0x4"/>
    </TTGlyph>
    <TTGlyph name="theh_yehHamzaabovear" xMin="24" yMin="-231" xMax="1204" yMax="914">
      <component glyphName="uniFE9B" x="841" y="0" flags="0x404"/>
      <component glyphName="uniFE8A" x="0" y="0" flags="0x4"/>
    </TTGlyph>
    <TTGlyph name="theh_yehHamzaabovear.fina" xMin="24" yMin="-231" xMax="1204" yMax="914">
      <component glyphName="uniFE9B" x="841" y="0" flags="0x404"/>
      <component glyphName="uniFE8A" x="0" y="0" flags="0x4"/>
    </TTGlyph>
    <TTGlyph name="three" xMin="34" yMin="-10" xMax="545" yMax="724">
      <contour>
        <pt x="524" y="559" on="1" overlap="1"/>
        <pt x="524" y="508" on="0"/>
        <pt x="480" y="435" on="0"/>
        <pt x="409" y="388" on="0"/>
        <pt x="366" y="376" on="1"/>
        <pt x="366" y="373" on="1"/>
        <pt x="452" y="363" on="0"/>
        <pt x="545" y="280" on="0"/>
        <pt x="545" y="204" on="1"/>
        <pt x="545" y="146" on="0"/>
        <pt x="482" y="48" on="0"/>
        <pt x="351" y="-10" on="0"/>
        <pt x="247" y="-10" on="1"/>
        <pt x="178" y="-10" on="0"/>
        <pt x="80" y="11" on="0"/>
        <pt x="34" y="29" on="1"/>
        <pt x="34" y="189" on="1"/>
        <pt x="81" y="165" on="0"/>
        <pt x="179" y="142" on="0"/>
        <pt x="219" y="142" on="1"/>
        <pt x="290" y="142" on="0"/>
        <pt x="341" y="182" on="0"/>
        <pt x="341" y="216" on="1"/>
        <pt x="341" y="240" on="0"/>
        <pt x="316" y="275" on="0"/>
        <pt x="251" y="293" on="0"/>
        <pt x="189" y="293" on="1"/>
        <pt x="145" y="293" on="1"/>
        <pt x="145" y="438" on="1"/>
        <pt x="190" y="438" on="1"/>
        <pt x="245" y="438" on="0"/>
        <pt x="309" y="457" on="0"/>
        <pt x="337" y="491" on="0"/>
        <pt x="337" y="513" on="1"/>
        <pt x="337" y="542" on="0"/>
        <pt x="293" y="569" on="0"/>
        <pt x="257" y="569" on="1"/>
        <pt x="225" y="569" on="0"/>
        <pt x="168" y="551" on="0"/>
        <pt x="126" y="530" on="0"/>
        <pt x="115" y="523" on="1"/>
        <pt x="35" y="652" on="1"/>
        <pt x="79" y="682" on="0"/>
        <pt x="194" y="724" on="0"/>
        <pt x="287" y="724" on="1"/>
        <pt x="397" y="724" on="0"/>
        <pt x="524" y="636" on="0"/>
      </contour>
    </TTGlyph>
    <TTGlyph name="two" xMin="22" yMin="0" xMax="548" yMax="724">
      <contour>
        <pt x="548" y="0" on="1" overlap="1"/>
        <pt x="30" y="0" on="1"/>
        <pt x="30" y="127" on="1"/>
        <pt x="204" y="303" on="1"/>
        <pt x="258" y="360" on="0"/>
        <pt x="319" y="428" on="0"/>
        <pt x="343" y="476" on="0"/>
        <pt x="343" y="502" on="1"/>
        <pt x="343" y="534" on="0"/>
        <pt x="302" y="562" on="0"/>
        <pt x="274" y="562" on="1"/>
        <pt x="240" y="562" on="0"/>
        <pt x="172" y="524" on="0"/>
        <pt x="128" y="486" on="1"/>
        <pt x="22" y="610" on="1"/>
        <pt x="54" y="639" on="0"/>
        <pt x="127" y="691" on="0"/>
        <pt x="225" y="724" on="0"/>
        <pt x="296" y="724" on="1"/>
        <pt x="369" y="724" on="0"/>
        <pt x="475" y="673" on="0"/>
        <pt x="534" y="585" on="0"/>
        <pt x="534" y="529" on="1"/>
        <pt x="534" y="467" on="0"/>
        <pt x="489" y="370" on="0"/>
        <pt x="398" y="273" on="0"/>
        <pt x="330" y="211" on="1"/>
        <pt x="278" y="164" on="1"/>
        <pt x="278" y="159" on="1"/>
        <pt x="548" y="159" on="1"/>
      </contour>
    </TTGlyph>
    <TTGlyph name="uni0600" xMin="30" yMin="-146" xMax="1132" yMax="265">
      <contour>
        <pt x="44" y="-146" on="1" overlap="1"/>
        <pt x="30" y="22" on="1"/>
        <pt x="795" y="22" on="1"/>
        <pt x="795" y="58" on="0"/>
        <pt x="816" y="133" on="0"/>
        <pt x="872" y="200" on="0"/>
        <pt x="976" y="252" on="0"/>
        <pt x="1058" y="265" on="1"/>
        <pt x="1058" y="97" on="1"/>
        <pt x="1025" y="93" on="0"/>
        <pt x="988" y="77" on="0"/>
        <pt x="973" y="59" on="0"/>
        <pt x="973" y="50" on="1"/>
        <pt x="973" y="38" on="0"/>
        <pt x="996" y="22" on="0"/>
        <pt x="1032" y="22" on="1"/>
        <pt x="1043" y="22" on="0"/>
        <pt x="1080" y="25" on="0"/>
        <pt x="1119" y="30" on="0"/>
        <pt x="1132" y="33" on="1"/>
        <pt x="1120" y="-131" on="1"/>
        <pt x="1098" y="-138" on="0"/>
        <pt x="1036" y="-145" on="0"/>
        <pt x="970" y="-146" on="0"/>
        <pt x="943" y="-146" on="1"/>
      </contour>
    </TTGlyph>
    <TTGlyph name="uni0601" xMin="3" yMin="-264" xMax="1488" yMax="65">
      <contour>
        <pt x="1410" y="-264" on="1" overlap="1"/>
        <pt x="1331" y="-221" on="1"/>
        <pt x="1341" y="-208" on="0"/>
        <pt x="1358" y="-171" on="0"/>
        <pt x="1358" y="-152" on="1"/>
        <pt x="1358" y="-143" on="0"/>
        <pt x="1347" y="-131" on="0"/>
        <pt x="1334" y="-131" on="1"/>
        <pt x="1327" y="-131" on="0"/>
        <pt x="1271" y="-134" on="0"/>
        <pt x="1183" y="-139" on="0"/>
        <pt x="1072" y="-145" on="0"/>
        <pt x="946" y="-148" on="0"/>
        <pt x="879" y="-148" on="1"/>
        <pt x="825" y="-148" on="0"/>
        <pt x="708" y="-146" on="0"/>
        <pt x="598" y="-143" on="0"/>
        <pt x="510" y="-139" on="0"/>
        <pt x="486" y="-136" on="1"/>
        <pt x="470" y="-171" on="0"/>
        <pt x="428" y="-189" on="0"/>
        <pt x="408" y="-189" on="1"/>
        <pt x="384" y="-189" on="0"/>
        <pt x="350" y="-165" on="0"/>
        <pt x="325" y="-134" on="0"/>
        <pt x="305" y="-110" on="0"/>
        <pt x="295" y="-110" on="1"/>
        <pt x="287" y="-110" on="0"/>
        <pt x="270" y="-141" on="0"/>
        <pt x="250" y="-175" on="1"/>
        <pt x="231" y="-207" on="0"/>
        <pt x="172" y="-239" on="0"/>
        <pt x="128" y="-239" on="1"/>
        <pt x="80" y="-239" on="0"/>
        <pt x="6" y="-167" on="0"/>
        <pt x="4" y="-93" on="1"/>
        <pt x="3" y="-52" on="0"/>
        <pt x="19" y="12" on="0"/>
        <pt x="26" y="34" on="1"/>
        <pt x="142" y="33" on="1"/>
        <pt x="137" y="17" on="0"/>
        <pt x="132" y="-13" on="0"/>
        <pt x="132" y="-26" on="1"/>
        <pt x="132" y="-48" on="0"/>
        <pt x="145" y="-75" on="0"/>
        <pt x="158" y="-75" on="1"/>
        <pt x="172" y="-75" on="0"/>
        <pt x="191" y="-43" on="0"/>
        <pt x="213" y="-3" on="1"/>
        <pt x="233" y="35" on="0"/>
        <pt x="269" y="65" on="0"/>
        <pt x="299" y="65" on="1"/>
        <pt x="323" y="65" on="0"/>
        <pt x="355" y="40" on="0"/>
        <pt x="377" y="8" on="0"/>
        <pt x="398" y="-17" on="0"/>
        <pt x="410" y="-17" on="1"/>
        <pt x="431" y="-17" on="0"/>
        <pt x="455" y="19" on="0"/>
        <pt x="462" y="34" on="1"/>
        <pt x="487" y="31" on="0"/>
        <pt x="576" y="25" on="0"/>
        <pt x="691" y="22" on="0"/>
        <pt x="817" y="20" on="0"/>
        <pt x="878" y="20" on="1"/>
        <pt x="1006" y="20" on="0"/>
        <pt x="1197" y="28" on="0"/>
        <pt x="1322" y="37" on="0"/>
        <pt x="1352" y="38" on="1"/>
        <pt x="1423" y="41" on="0"/>
        <pt x="1488" y="-19" on="0"/>
        <pt x="1488" y="-81" on="1"/>
        <pt x="1488" y="-150" on="0"/>
        <pt x="1438" y="-239" on="0"/>
      </contour>
    </TTGlyph>
    <TTGlyph name="uni0602" xMin="10" yMin="-146" xMax="1163" yMax="266">
      <contour>
        <pt x="303" y="-146" on="1" overlap="1"/>
        <pt x="232" y="-146" on="0"/>
        <pt x="117" y="-116" on="0"/>
        <pt x="78" y="-86" on="1"/>
        <pt x="46" y="-60" on="0"/>
        <pt x="10" y="13" on="0"/>
        <pt x="10" y="59" on="1"/>
        <pt x="10" y="113" on="0"/>
        <pt x="68" y="207" on="0"/>
        <pt x="168" y="266" on="0"/>
        <pt x="231" y="266" on="1"/>
        <pt x="289" y="266" on="0"/>
        <pt x="367" y="223" on="0"/>
        <pt x="407" y="154" on="0"/>
        <pt x="407" y="115" on="1"/>
        <pt x="407" y="66" on="0"/>
        <pt x="381" y="1" on="0"/>
        <pt x="370" y="-21" on="1"/>
        <pt x="252" y="9" on="1"/>
        <pt x="257" y="19" on="0"/>
        <pt x="267" y="52" on="0"/>
        <pt x="267" y="73" on="1"/>
        <pt x="267" y="95" on="0"/>
        <pt x="238" y="115" on="0"/>
        <pt x="221" y="115" on="1"/>
        <pt x="200" y="115" on="0"/>
        <pt x="168" y="93" on="0"/>
        <pt x="168" y="73" on="1"/>
        <pt x="168" y="47" on="0"/>
        <pt x="228" y="22" on="0"/>
        <pt x="296" y="22" on="1"/>
        <pt x="1163" y="21" on="1"/>
        <pt x="1149" y="-146" on="1"/>
      </contour>
    </TTGlyph>
    <TTGlyph name="uni0603" xMin="10" yMin="-153" xMax="1368" yMax="253">
      <contour>
        <pt x="1066" y="-153" on="1" overlap="1"/>
        <pt x="1033" y="-153" on="0"/>
        <pt x="954" y="-145" on="0"/>
        <pt x="884" y="-128" on="0"/>
        <pt x="837" y="-100" on="0"/>
        <pt x="835" y="-79" on="1"/>
        <pt x="849" y="-77" on="1"/>
        <pt x="834" y="-120" on="0"/>
        <pt x="747" y="-146" on="0"/>
        <pt x="676" y="-146" on="1"/>
        <pt x="24" y="-146" on="1"/>
        <pt x="10" y="22" on="1"/>
        <pt x="694" y="22" on="1"/>
        <pt x="723" y="22" on="0"/>
        <pt x="754" y="67" on="0"/>
        <pt x="774" y="148" on="0"/>
        <pt x="784" y="201" on="1"/>
        <pt x="943" y="183" on="1"/>
        <pt x="939" y="162" on="0"/>
        <pt x="932" y="102" on="0"/>
        <pt x="932" y="84" on="1"/>
        <pt x="932" y="61" on="0"/>
        <pt x="956" y="29" on="0"/>
        <pt x="1023" y="12" on="0"/>
        <pt x="1089" y="12" on="1"/>
        <pt x="1135" y="12" on="0"/>
        <pt x="1185" y="25" on="0"/>
        <pt x="1205" y="47" on="0"/>
        <pt x="1205" y="58" on="1"/>
        <pt x="1205" y="71" on="0"/>
        <pt x="1189" y="86" on="0"/>
        <pt x="1175" y="86" on="1"/>
        <pt x="1157" y="86" on="0"/>
        <pt x="1125" y="52" on="0"/>
        <pt x="1099" y="5" on="0"/>
        <pt x="1090" y="-14" on="1"/>
        <pt x="959" y="20" on="1"/>
        <pt x="999" y="124" on="0"/>
        <pt x="1123" y="253" on="0"/>
        <pt x="1205" y="253" on="1"/>
        <pt x="1255" y="253" on="0"/>
        <pt x="1319" y="215" on="0"/>
        <pt x="1354" y="158" on="0"/>
        <pt x="1368" y="102" on="0"/>
        <pt x="1368" y="84" on="1"/>
        <pt x="1368" y="34" on="0"/>
        <pt x="1333" y="-52" on="0"/>
        <pt x="1260" y="-117" on="0"/>
        <pt x="1146" y="-153" on="0"/>
      </contour>
    </TTGlyph>
    <TTGlyph name="uni0604" xMin="30" yMin="-158" xMax="2267" yMax="546">
      <contour>
        <pt x="1191" y="-57" on="1" overlap="1"/>
        <pt x="1158" y="-28" on="0"/>
        <pt x="1115" y="33" on="0"/>
        <pt x="1094" y="97" on="0"/>
        <pt x="1094" y="129" on="1"/>
        <pt x="1094" y="169" on="0"/>
        <pt x="1130" y="249" on="0"/>
        <pt x="1191" y="315" on="0"/>
        <pt x="1269" y="355" on="0"/>
        <pt x="1312" y="355" on="1"/>
        <pt x="1354" y="355" on="0"/>
        <pt x="1431" y="322" on="0"/>
        <pt x="1501" y="274" on="0"/>
        <pt x="1566" y="226" on="0"/>
        <pt x="1627" y="193" on="0"/>
        <pt x="1655" y="193" on="1"/>
        <pt x="1673" y="193" on="0"/>
        <pt x="1707" y="206" on="0"/>
        <pt x="1736" y="247" on="0"/>
        <pt x="1761" y="333" on="0"/>
        <pt x="1770" y="406" on="1"/>
        <pt x="1938" y="380" on="1"/>
        <pt x="1933" y="353" on="0"/>
        <pt x="1924" y="302" on="0"/>
        <pt x="1919" y="260" on="0"/>
        <pt x="1919" y="246" on="1"/>
        <pt x="1919" y="232" on="0"/>
        <pt x="1936" y="207" on="0"/>
        <pt x="1978" y="193" on="0"/>
        <pt x="2015" y="193" on="1"/>
        <pt x="2040" y="193" on="0"/>
        <pt x="2077" y="207" on="0"/>
        <pt x="2097" y="237" on="0"/>
        <pt x="2097" y="261" on="1"/>
        <pt x="2097" y="301" on="0"/>
        <pt x="2065" y="424" on="0"/>
        <pt x="2040" y="497" on="1"/>
        <pt x="2208" y="546" on="1"/>
        <pt x="2226" y="496" on="0"/>
        <pt x="2253" y="389" on="0"/>
        <pt x="2267" y="291" on="0"/>
        <pt x="2267" y="255" on="1"/>
        <pt x="2267" y="200" on="0"/>
        <pt x="2231" y="115" on="0"/>
        <pt x="2165" y="56" on="0"/>
        <pt x="2076" y="25" on="0"/>
        <pt x="2024" y="25" on="1"/>
        <pt x="1942" y="25" on="0"/>
        <pt x="1861" y="72" on="0"/>
        <pt x="1844" y="115" on="1"/>
        <pt x="1823" y="77" on="0"/>
        <pt x="1767" y="38" on="0"/>
        <pt x="1704" y="25" on="0"/>
        <pt x="1670" y="25" on="1"/>
        <pt x="1621" y="25" on="0"/>
        <pt x="1541" y="49" on="0"/>
        <pt x="1475" y="90" on="0"/>
        <pt x="1446" y="113" on="1"/>
        <pt x="1411" y="142" on="0"/>
        <pt x="1350" y="188" on="0"/>
        <pt x="1325" y="188" on="1"/>
        <pt x="1312" y="188" on="0"/>
        <pt x="1284" y="167" on="0"/>
        <pt x="1265" y="129" on="0"/>
        <pt x="1265" y="102" on="1"/>
        <pt x="1265" y="60" on="0"/>
        <pt x="1325" y="4" on="0"/>
        <pt x="1393" y="-30" on="1"/>
      </contour>
      <contour>
        <pt x="80" y="-158" on="1"/>
        <pt x="30" y="-8" on="1"/>
        <pt x="99" y="14" on="0"/>
        <pt x="265" y="45" on="0"/>
        <pt x="441" y="65" on="0"/>
        <pt x="615" y="74" on="0"/>
        <pt x="693" y="74" on="1"/>
        <pt x="795" y="74" on="0"/>
        <pt x="970" y="70" on="0"/>
        <pt x="1110" y="64" on="0"/>
        <pt x="1210" y="55" on="0"/>
        <pt x="1235" y="49" on="1"/>
        <pt x="1246" y="47" on="0"/>
        <pt x="1291" y="22" on="0"/>
        <pt x="1355" y="-12" on="0"/>
        <pt x="1393" y="-30" on="1"/>
        <pt x="1320" y="-158" on="1"/>
        <pt x="1307" y="-153" on="0"/>
        <pt x="1260" y="-128" on="0"/>
        <pt x="1242" y="-116" on="1"/>
        <pt x="1215" y="-110" on="0"/>
        <pt x="1102" y="-102" on="0"/>
        <pt x="953" y="-96" on="0"/>
        <pt x="789" y="-94" on="0"/>
        <pt x="711" y="-94" on="1"/>
        <pt x="641" y="-94" on="0"/>
        <pt x="473" y="-101" on="0"/>
        <pt x="301" y="-116" on="0"/>
        <pt x="142" y="-140" on="0"/>
      </contour>
    </TTGlyph>
    <TTGlyph name="uni0605" xMin="20" yMin="547" xMax="1235" yMax="814">
      <contour>
        <pt x="132" y="547" on="1" overlap="1"/>
        <pt x="20" y="602" on="1"/>
        <pt x="45" y="660" on="0"/>
        <pt x="101" y="756" on="0"/>
        <pt x="178" y="814" on="0"/>
        <pt x="232" y="814" on="1"/>
        <pt x="256" y="814" on="0"/>
        <pt x="328" y="800" on="0"/>
        <pt x="422" y="779" on="0"/>
        <pt x="538" y="757" on="0"/>
        <pt x="678" y="743" on="0"/>
        <pt x="760" y="743" on="1"/>
        <pt x="851" y="743" on="0"/>
        <pt x="1006" y="754" on="0"/>
        <pt x="1137" y="780" on="0"/>
        <pt x="1192" y="800" on="1"/>
        <pt x="1235" y="646" on="1"/>
        <pt x="1173" y="622" on="0"/>
        <pt x="1014" y="590" on="0"/>
        <pt x="830" y="575" on="0"/>
        <pt x="729" y="575" on="1"/>
        <pt x="616" y="575" on="0"/>
        <pt x="447" y="595" on="0"/>
        <pt x="327" y="622" on="0"/>
        <pt x="250" y="642" on="0"/>
        <pt x="229" y="642" on="1"/>
        <pt x="208" y="642" on="0"/>
        <pt x="179" y="625" on="0"/>
        <pt x="152" y="583" on="0"/>
      </contour>
    </TTGlyph>
    <TTGlyph name="uni0606" xMin="10" yMin="0" xMax="622" yMax="820">
      <component glyphName="uni221B0607.pt" x="0" y="0" flags="0x604"/>
      <component glyphName="uni06F3.small01" x="238" y="-59" flags="0x4"/>
    </TTGlyph>
    <TTGlyph name="uni0607" xMin="10" yMin="0" xMax="622" yMax="857">
      <component glyphName="uni221B0607.pt" x="0" y="0" flags="0x604"/>
      <component glyphName="uni0607.pt" x="231" y="-19" flags="0x4"/>
    </TTGlyph>
    <TTGlyph name="uni0607.pt" xMin="10" yMin="597" xMax="174" yMax="876">
      <contour>
        <pt x="170" y="681" on="1" overlap="1"/>
        <pt x="174" y="611" on="1"/>
        <pt x="160" y="605" on="0"/>
        <pt x="124" y="597" on="0"/>
        <pt x="101" y="597" on="1"/>
        <pt x="55" y="597" on="0"/>
        <pt x="10" y="642" on="0"/>
        <pt x="10" y="667" on="1"/>
        <pt x="10" y="679" on="0"/>
        <pt x="23" y="710" on="0"/>
        <pt x="57" y="742" on="0"/>
        <pt x="89" y="752" on="1"/>
        <pt x="80" y="711" on="1"/>
        <pt x="72" y="713" on="0"/>
        <pt x="41" y="727" on="0"/>
        <pt x="17" y="756" on="0"/>
        <pt x="17" y="778" on="1"/>
        <pt x="17" y="810" on="0"/>
        <pt x="79" y="869" on="0"/>
        <pt x="143" y="876" on="1"/>
        <pt x="149" y="801" on="1"/>
        <pt x="116" y="797" on="0"/>
        <pt x="90" y="780" on="0"/>
        <pt x="90" y="773" on="1"/>
        <pt x="90" y="765" on="0"/>
        <pt x="114" y="758" on="0"/>
        <pt x="132" y="763" on="1"/>
        <pt x="135" y="721" on="1"/>
        <pt x="116" y="716" on="0"/>
        <pt x="88" y="698" on="0"/>
        <pt x="88" y="686" on="1"/>
        <pt x="88" y="676" on="0"/>
        <pt x="107" y="668" on="0"/>
        <pt x="119" y="668" on="1"/>
        <pt x="134" y="668" on="0"/>
        <pt x="163" y="677" on="0"/>
      </contour>
    </TTGlyph>
    <TTGlyph name="uni0608" xMin="10" yMin="-272" xMax="1133" yMax="412">
      <contour>
        <pt x="1043" y="163" on="1" overlap="1"/>
        <pt x="1091" y="163" on="0"/>
        <pt x="1133" y="115" on="0"/>
        <pt x="1133" y="81" on="1"/>
        <pt x="1133" y="43" on="0"/>
        <pt x="1083" y="-5" on="0"/>
        <pt x="1033" y="-5" on="1"/>
        <pt x="835" y="-5" on="1"/>
        <pt x="778" y="-5" on="0"/>
        <pt x="671" y="11" on="0"/>
        <pt x="587" y="51" on="0"/>
        <pt x="537" y="121" on="0"/>
        <pt x="537" y="176" on="1"/>
        <pt x="537" y="223" on="0"/>
        <pt x="571" y="308" on="0"/>
        <pt x="634" y="374" on="0"/>
        <pt x="719" y="412" on="0"/>
        <pt x="769" y="412" on="1"/>
        <pt x="838" y="412" on="0"/>
        <pt x="928" y="337" on="0"/>
        <pt x="972" y="207" on="0"/>
        <pt x="972" y="124" on="1"/>
        <pt x="972" y="66" on="0"/>
        <pt x="940" y="-39" on="0"/>
        <pt x="919" y="-77" on="1"/>
        <pt x="894" y="-123" on="0"/>
        <pt x="817" y="-195" on="0"/>
        <pt x="715" y="-246" on="0"/>
        <pt x="587" y="-272" on="0"/>
        <pt x="512" y="-272" on="1"/>
        <pt x="441" y="-272" on="0"/>
        <pt x="317" y="-242" on="0"/>
        <pt x="224" y="-177" on="0"/>
        <pt x="172" y="-76" on="0"/>
        <pt x="172" y="-6" on="1"/>
        <pt x="172" y="17" on="0"/>
        <pt x="175" y="72" on="0"/>
        <pt x="188" y="134" on="0"/>
        <pt x="202" y="167" on="1"/>
        <pt x="223" y="60" on="1"/>
        <pt x="10" y="-11" on="1"/>
        <pt x="19" y="157" on="1"/>
        <pt x="230" y="229" on="1"/>
        <pt x="383" y="169" on="1"/>
        <pt x="369" y="130" on="0"/>
        <pt x="354" y="81" on="0"/>
        <pt x="349" y="45" on="0"/>
        <pt x="349" y="25" on="1"/>
        <pt x="349" y="-12" on="0"/>
        <pt x="390" y="-71" on="0"/>
        <pt x="474" y="-104" on="0"/>
        <pt x="538" y="-104" on="1"/>
        <pt x="581" y="-104" on="0"/>
        <pt x="652" y="-91" on="0"/>
        <pt x="709" y="-69" on="0"/>
        <pt x="753" y="-39" on="0"/>
        <pt x="781" y="-4" on="0"/>
        <pt x="788" y="15" on="1"/>
        <pt x="797" y="38" on="0"/>
        <pt x="803" y="97" on="0"/>
        <pt x="803" y="142" on="1"/>
        <pt x="803" y="190" on="0"/>
        <pt x="794" y="248" on="0"/>
        <pt x="774" y="274" on="0"/>
        <pt x="756" y="274" on="1"/>
        <pt x="744" y="274" on="0"/>
        <pt x="725" y="262" on="0"/>
        <pt x="712" y="244" on="0"/>
        <pt x="705" y="222" on="0"/>
        <pt x="705" y="213" on="1"/>
        <pt x="705" y="195" on="0"/>
        <pt x="719" y="169" on="0"/>
        <pt x="761" y="155" on="0"/>
        <pt x="843" y="155" on="0"/>
        <pt x="912" y="163" on="1"/>
      </contour>
    </TTGlyph>
    <TTGlyph name="uni0609" xMin="30" yMin="-39" xMax="799" yMax="704">
      <contour>
        <pt x="198" y="-39" on="1" overlap="1"/>
        <pt x="64" y="17" on="1"/>
        <pt x="381" y="704" on="1"/>
        <pt x="517" y="645" on="1"/>
      </contour>
      <contour>
        <pt x="463" y="-24" on="1"/>
        <pt x="429" y="11" on="0"/>
        <pt x="382" y="59" on="0"/>
        <pt x="347" y="87" on="1"/>
        <pt x="446" y="193" on="1"/>
        <pt x="480" y="167" on="0"/>
        <pt x="541" y="106" on="0"/>
        <pt x="564" y="77" on="1"/>
      </contour>
      <contour>
        <pt x="698" y="-24" on="1"/>
        <pt x="664" y="11" on="0"/>
        <pt x="617" y="59" on="0"/>
        <pt x="582" y="87" on="1"/>
        <pt x="681" y="193" on="1"/>
        <pt x="715" y="167" on="0"/>
        <pt x="776" y="106" on="0"/>
        <pt x="799" y="77" on="1"/>
      </contour>
      <contour>
        <pt x="146" y="484" on="1"/>
        <pt x="112" y="519" on="0"/>
        <pt x="65" y="567" on="0"/>
        <pt x="30" y="595" on="1"/>
        <pt x="129" y="701" on="1"/>
        <pt x="163" y="675" on="0"/>
        <pt x="224" y="614" on="0"/>
        <pt x="247" y="585" on="1"/>
      </contour>
    </TTGlyph>
    <TTGlyph name="uni060A" xMin="30" yMin="-39" xMax="1034" yMax="704">
      <contour>
        <pt x="198" y="-39" on="1" overlap="1"/>
        <pt x="64" y="17" on="1"/>
        <pt x="381" y="704" on="1"/>
        <pt x="517" y="645" on="1"/>
      </contour>
      <contour>
        <pt x="463" y="-24" on="1"/>
        <pt x="429" y="11" on="0"/>
        <pt x="382" y="59" on="0"/>
        <pt x="347" y="87" on="1"/>
        <pt x="446" y="193" on="1"/>
        <pt x="480" y="167" on="0"/>
        <pt x="541" y="106" on="0"/>
        <pt x="564" y="77" on="1"/>
      </contour>
      <contour>
        <pt x="698" y="-24" on="1"/>
        <pt x="664" y="11" on="0"/>
        <pt x="617" y="59" on="0"/>
        <pt x="582" y="87" on="1"/>
        <pt x="681" y="193" on="1"/>
        <pt x="715" y="167" on="0"/>
        <pt x="776" y="106" on="0"/>
        <pt x="799" y="77" on="1"/>
      </contour>
      <contour>
        <pt x="933" y="-24" on="1"/>
        <pt x="899" y="11" on="0"/>
        <pt x="852" y="59" on="0"/>
        <pt x="817" y="87" on="1"/>
        <pt x="916" y="193" on="1"/>
        <pt x="950" y="167" on="0"/>
        <pt x="1011" y="106" on="0"/>
        <pt x="1034" y="77" on="1"/>
      </contour>
      <contour>
        <pt x="146" y="484" on="1"/>
        <pt x="112" y="519" on="0"/>
        <pt x="65" y="567" on="0"/>
        <pt x="30" y="595" on="1"/>
        <pt x="129" y="701" on="1"/>
        <pt x="163" y="675" on="0"/>
        <pt x="224" y="614" on="0"/>
        <pt x="247" y="585" on="1"/>
      </contour>
    </TTGlyph>
    <TTGlyph name="uni060B" xMin="0" yMin="-255" xMax="495" yMax="852">
      <component glyphName="uni06A1.init" x="0" y="0" flags="0x604"/>
      <component glyphName="uniFBB2" x="161" y="147" flags="0x4"/>
      <component glyphName="uni0656" x="139" y="-25" flags="0x4"/>
    </TTGlyph>
    <TTGlyph name="uni060C" xMin="60" yMin="-3" xMax="269" yMax="292">
      <contour>
        <pt x="176" y="-3" on="1" overlap="1"/>
        <pt x="142" y="-3" on="0"/>
        <pt x="89" y="22" on="0"/>
        <pt x="60" y="68" on="0"/>
        <pt x="60" y="98" on="1"/>
        <pt x="60" y="124" on="0"/>
        <pt x="83" y="193" on="0"/>
        <pt x="118" y="263" on="0"/>
        <pt x="137" y="292" on="1"/>
        <pt x="252" y="238" on="1"/>
        <pt x="241" y="220" on="0"/>
        <pt x="220" y="180" on="0"/>
        <pt x="205" y="148" on="0"/>
        <pt x="204" y="142" on="1"/>
        <pt x="236" y="133" on="0"/>
        <pt x="269" y="100" on="0"/>
        <pt x="269" y="71" on="1"/>
        <pt x="269" y="35" on="0"/>
        <pt x="217" y="-3" on="0"/>
      </contour>
    </TTGlyph>
    <TTGlyph name="uni060D" xMin="20" yMin="-192" xMax="362" yMax="224">
      <contour>
        <pt x="158" y="-192" on="1" overlap="1"/>
        <pt x="20" y="-121" on="1"/>
        <pt x="39" y="-74" on="0"/>
        <pt x="91" y="27" on="0"/>
        <pt x="148" y="122" on="0"/>
        <pt x="204" y="200" on="0"/>
        <pt x="228" y="224" on="1"/>
        <pt x="362" y="111" on="1"/>
        <pt x="327" y="73" on="0"/>
        <pt x="257" y="-23" on="0"/>
        <pt x="190" y="-132" on="0"/>
      </contour>
    </TTGlyph>
    <TTGlyph name="uni060E" xMin="10" yMin="-21" xMax="1014" yMax="463">
      <contour>
        <pt x="483" y="-21" on="1" overlap="1"/>
        <pt x="344" y="-21" on="0"/>
        <pt x="161" y="14" on="0"/>
        <pt x="55" y="78" on="0"/>
        <pt x="10" y="165" on="0"/>
        <pt x="10" y="216" on="1"/>
        <pt x="10" y="268" on="0"/>
        <pt x="57" y="358" on="0"/>
        <pt x="136" y="425" on="0"/>
        <pt x="236" y="463" on="0"/>
        <pt x="288" y="463" on="1"/>
        <pt x="356" y="463" on="0"/>
        <pt x="449" y="410" on="0"/>
        <pt x="497" y="315" on="0"/>
        <pt x="497" y="252" on="1"/>
        <pt x="497" y="217" on="0"/>
        <pt x="479" y="154" on="0"/>
        <pt x="452" y="103" on="0"/>
        <pt x="438" y="85" on="1"/>
        <pt x="290" y="126" on="1"/>
        <pt x="307" y="154" on="0"/>
        <pt x="323" y="205" on="0"/>
        <pt x="323" y="232" on="1"/>
        <pt x="323" y="260" on="0"/>
        <pt x="288" y="294" on="0"/>
        <pt x="261" y="294" on="1"/>
        <pt x="239" y="294" on="0"/>
        <pt x="205" y="274" on="0"/>
        <pt x="186" y="244" on="0"/>
        <pt x="186" y="230" on="1"/>
        <pt x="186" y="211" on="0"/>
        <pt x="207" y="180" on="0"/>
        <pt x="269" y="159" on="0"/>
        <pt x="388" y="147" on="0"/>
        <pt x="487" y="147" on="1"/>
        <pt x="609" y="147" on="0"/>
        <pt x="771" y="157" on="0"/>
        <pt x="875" y="174" on="0"/>
        <pt x="941" y="198" on="0"/>
        <pt x="966" y="211" on="1"/>
        <pt x="1014" y="62" on="1"/>
        <pt x="989" y="46" on="0"/>
        <pt x="917" y="16" on="0"/>
        <pt x="800" y="-7" on="0"/>
        <pt x="618" y="-21" on="0"/>
      </contour>
    </TTGlyph>
    <TTGlyph name="uni060F" xMin="20" yMin="-449" xMax="723" yMax="595">
      <contour>
        <pt x="194" y="-449" on="1" overlap="1"/>
        <pt x="42" y="-373" on="1"/>
        <pt x="74" y="-289" on="0"/>
        <pt x="144" y="-151" on="0"/>
        <pt x="225" y="-44" on="0"/>
        <pt x="317" y="29" on="0"/>
        <pt x="422" y="67" on="0"/>
        <pt x="483" y="67" on="1"/>
        <pt x="543" y="67" on="0"/>
        <pt x="633" y="30" on="0"/>
        <pt x="693" y="-33" on="0"/>
        <pt x="723" y="-111" on="0"/>
        <pt x="723" y="-152" on="1"/>
        <pt x="723" y="-212" on="0"/>
        <pt x="675" y="-304" on="0"/>
        <pt x="591" y="-365" on="0"/>
        <pt x="479" y="-395" on="0"/>
        <pt x="415" y="-394" on="1"/>
        <pt x="333" y="-393" on="0"/>
        <pt x="190" y="-355" on="0"/>
        <pt x="81" y="-282" on="0"/>
        <pt x="20" y="-171" on="0"/>
        <pt x="20" y="-97" on="1"/>
        <pt x="20" y="-27" on="0"/>
        <pt x="66" y="93" on="0"/>
        <pt x="151" y="192" on="0"/>
        <pt x="270" y="267" on="0"/>
        <pt x="417" y="318" on="0"/>
        <pt x="501" y="330" on="1"/>
        <pt x="542" y="170" on="1"/>
        <pt x="444" y="153" on="0"/>
        <pt x="310" y="99" on="0"/>
        <pt x="230" y="32" on="0"/>
        <pt x="194" y="-42" on="0"/>
        <pt x="194" y="-81" on="1"/>
        <pt x="194" y="-121" on="0"/>
        <pt x="234" y="-177" on="0"/>
        <pt x="301" y="-211" on="0"/>
        <pt x="382" y="-226" on="0"/>
        <pt x="424" y="-226" on="1"/>
        <pt x="456" y="-226" on="0"/>
        <pt x="511" y="-212" on="0"/>
        <pt x="545" y="-181" on="0"/>
        <pt x="545" y="-158" on="1"/>
        <pt x="545" y="-142" on="0"/>
        <pt x="526" y="-117" on="0"/>
        <pt x="494" y="-101" on="0"/>
        <pt x="474" y="-101" on="1"/>
        <pt x="415" y="-101" on="0"/>
        <pt x="319" y="-190" on="0"/>
        <pt x="235" y="-347" on="0"/>
      </contour>
      <contour>
        <pt x="169" y="175" on="1"/>
        <pt x="138" y="192" on="0"/>
        <pt x="82" y="245" on="0"/>
        <pt x="48" y="324" on="0"/>
        <pt x="48" y="380" on="1"/>
        <pt x="48" y="444" on="0"/>
        <pt x="119" y="540" on="0"/>
        <pt x="239" y="595" on="0"/>
        <pt x="313" y="595" on="1"/>
        <pt x="350" y="595" on="0"/>
        <pt x="407" y="587" on="0"/>
        <pt x="439" y="579" on="1"/>
        <pt x="414" y="422" on="1"/>
        <pt x="393" y="428" on="0"/>
        <pt x="348" y="433" on="0"/>
        <pt x="333" y="433" on="1"/>
        <pt x="282" y="433" on="0"/>
        <pt x="227" y="395" on="0"/>
        <pt x="227" y="359" on="1"/>
        <pt x="227" y="340" on="0"/>
        <pt x="247" y="307" on="0"/>
        <pt x="282" y="280" on="0"/>
        <pt x="329" y="263" on="0"/>
        <pt x="355" y="260" on="1"/>
      </contour>
    </TTGlyph>
    <TTGlyph name="uni0610" xMin="27" yMin="575" xMax="337" yMax="835">
      <contour>
        <pt x="33" y="575" on="1" overlap="1"/>
        <pt x="40" y="610" on="0"/>
        <pt x="44" y="668" on="0"/>
        <pt x="44" y="682" on="1"/>
        <pt x="44" y="708" on="0"/>
        <pt x="35" y="757" on="0"/>
        <pt x="27" y="785" on="1"/>
        <pt x="85" y="792" on="1"/>
        <pt x="90" y="771" on="0"/>
        <pt x="94" y="748" on="0"/>
        <pt x="97" y="742" on="1"/>
        <pt x="100" y="736" on="0"/>
        <pt x="114" y="725" on="0"/>
        <pt x="161" y="718" on="0"/>
        <pt x="212" y="718" on="1"/>
        <pt x="235" y="718" on="0"/>
        <pt x="262" y="725" on="0"/>
        <pt x="274" y="738" on="0"/>
        <pt x="274" y="746" on="1"/>
        <pt x="274" y="755" on="0"/>
        <pt x="261" y="772" on="0"/>
        <pt x="245" y="772" on="1"/>
        <pt x="232" y="772" on="0"/>
        <pt x="203" y="748" on="0"/>
        <pt x="178" y="712" on="0"/>
        <pt x="170" y="694" on="1"/>
        <pt x="110" y="716" on="1"/>
        <pt x="124" y="743" on="0"/>
        <pt x="166" y="798" on="0"/>
        <pt x="219" y="835" on="0"/>
        <pt x="250" y="835" on="1"/>
        <pt x="286" y="835" on="0"/>
        <pt x="337" y="792" on="0"/>
        <pt x="337" y="754" on="1"/>
        <pt x="337" y="713" on="0"/>
        <pt x="262" y="656" on="0"/>
        <pt x="196" y="656" on="1"/>
        <pt x="138" y="656" on="0"/>
        <pt x="92" y="679" on="0"/>
        <pt x="89" y="692" on="1"/>
        <pt x="103" y="688" on="1"/>
        <pt x="103" y="679" on="0"/>
        <pt x="100" y="643" on="0"/>
        <pt x="95" y="605" on="0"/>
        <pt x="92" y="591" on="1"/>
      </contour>
    </TTGlyph>
    <TTGlyph name="uni0611" xMin="27" yMin="575" xMax="312" yMax="837">
      <contour>
        <pt x="33" y="575" on="1" overlap="1"/>
        <pt x="38" y="604" on="0"/>
        <pt x="43" y="640" on="0"/>
        <pt x="43" y="672" on="1"/>
        <pt x="43" y="707" on="0"/>
        <pt x="35" y="757" on="0"/>
        <pt x="27" y="785" on="1"/>
        <pt x="85" y="792" on="1"/>
        <pt x="90" y="772" on="0"/>
        <pt x="96" y="753" on="0"/>
        <pt x="97" y="749" on="1"/>
        <pt x="103" y="735" on="0"/>
        <pt x="134" y="722" on="0"/>
        <pt x="172" y="719" on="0"/>
        <pt x="186" y="719" on="1"/>
        <pt x="177" y="726" on="0"/>
        <pt x="159" y="749" on="0"/>
        <pt x="159" y="773" on="1"/>
        <pt x="159" y="804" on="0"/>
        <pt x="205" y="837" on="0"/>
        <pt x="234" y="837" on="1"/>
        <pt x="252" y="837" on="0"/>
        <pt x="276" y="833" on="0"/>
        <pt x="286" y="828" on="1"/>
        <pt x="277" y="773" on="1"/>
        <pt x="268" y="776" on="0"/>
        <pt x="251" y="779" on="0"/>
        <pt x="243" y="779" on="1"/>
        <pt x="234" y="779" on="0"/>
        <pt x="221" y="767" on="0"/>
        <pt x="221" y="757" on="1"/>
        <pt x="221" y="747" on="0"/>
        <pt x="236" y="734" on="0"/>
        <pt x="252" y="728" on="0"/>
        <pt x="255" y="728" on="1"/>
        <pt x="272" y="733" on="0"/>
        <pt x="287" y="739" on="0"/>
        <pt x="303" y="746" on="1"/>
        <pt x="312" y="688" on="1"/>
        <pt x="278" y="673" on="0"/>
        <pt x="218" y="659" on="0"/>
        <pt x="183" y="659" on="1"/>
        <pt x="151" y="659" on="0"/>
        <pt x="119" y="666" on="0"/>
        <pt x="106" y="676" on="0"/>
        <pt x="102" y="679" on="1"/>
        <pt x="102" y="670" on="0"/>
        <pt x="99" y="636" on="0"/>
        <pt x="95" y="602" on="0"/>
        <pt x="92" y="591" on="1"/>
      </contour>
    </TTGlyph>
    <TTGlyph name="uni0612" xMin="8" yMin="604" xMax="301" yMax="835">
      <contour>
        <pt x="8" y="604" on="1" overlap="1"/>
        <pt x="8" y="666" on="0"/>
        <pt x="77" y="750" on="0"/>
        <pt x="134" y="767" on="1"/>
        <pt x="149" y="741" on="1"/>
        <pt x="130" y="753" on="0"/>
        <pt x="97" y="765" on="0"/>
        <pt x="71" y="765" on="1"/>
        <pt x="58" y="765" on="0"/>
        <pt x="34" y="763" on="0"/>
        <pt x="26" y="762" on="1"/>
        <pt x="17" y="813" on="1"/>
        <pt x="26" y="817" on="0"/>
        <pt x="60" y="823" on="0"/>
        <pt x="73" y="823" on="1"/>
        <pt x="98" y="823" on="0"/>
        <pt x="138" y="809" on="0"/>
        <pt x="174" y="794" on="0"/>
        <pt x="194" y="794" on="1"/>
        <pt x="194" y="734" on="1"/>
        <pt x="185" y="736" on="0"/>
        <pt x="145" y="723" on="0"/>
        <pt x="100" y="691" on="0"/>
        <pt x="69" y="640" on="0"/>
        <pt x="69" y="604" on="1"/>
      </contour>
      <contour>
        <pt x="157" y="604" on="1"/>
        <pt x="154" y="604" on="0"/>
        <pt x="141" y="604" on="0"/>
        <pt x="137" y="605" on="1"/>
        <pt x="135" y="663" on="1"/>
        <pt x="169" y="663" on="0"/>
        <pt x="215" y="676" on="0"/>
        <pt x="240" y="703" on="0"/>
        <pt x="240" y="724" on="1"/>
        <pt x="240" y="745" on="0"/>
        <pt x="230" y="792" on="0"/>
        <pt x="219" y="817" on="1"/>
        <pt x="279" y="835" on="1"/>
        <pt x="290" y="803" on="0"/>
        <pt x="301" y="748" on="0"/>
        <pt x="301" y="725" on="1"/>
        <pt x="301" y="668" on="0"/>
        <pt x="225" y="604" on="0"/>
      </contour>
    </TTGlyph>
    <TTGlyph name="uni0613" xMin="27" yMin="575" xMax="446" yMax="887">
      <contour>
        <pt x="302" y="584" on="1" overlap="1"/>
        <pt x="299" y="584" on="0"/>
        <pt x="286" y="584" on="0"/>
        <pt x="282" y="585" on="1"/>
        <pt x="280" y="643" on="1"/>
        <pt x="314" y="643" on="0"/>
        <pt x="360" y="657" on="0"/>
        <pt x="385" y="693" on="0"/>
        <pt x="385" y="724" on="1"/>
        <pt x="385" y="745" on="0"/>
        <pt x="375" y="792" on="0"/>
        <pt x="364" y="817" on="1"/>
        <pt x="424" y="835" on="1"/>
        <pt x="435" y="803" on="0"/>
        <pt x="446" y="748" on="0"/>
        <pt x="446" y="725" on="1"/>
        <pt x="446" y="653" on="0"/>
        <pt x="370" y="584" on="0"/>
      </contour>
      <contour>
        <pt x="118" y="818" on="1"/>
        <pt x="104" y="818" on="0"/>
        <pt x="85" y="839" on="0"/>
        <pt x="85" y="852" on="1"/>
        <pt x="85" y="866" on="0"/>
        <pt x="104" y="887" on="0"/>
        <pt x="118" y="887" on="1"/>
        <pt x="132" y="887" on="0"/>
        <pt x="152" y="866" on="0"/>
        <pt x="152" y="852" on="1"/>
        <pt x="152" y="839" on="0"/>
        <pt x="132" y="818" on="0"/>
      </contour>
      <contour>
        <pt x="33" y="575" on="1"/>
        <pt x="40" y="610" on="0"/>
        <pt x="44" y="668" on="0"/>
        <pt x="44" y="682" on="1"/>
        <pt x="44" y="708" on="0"/>
        <pt x="35" y="757" on="0"/>
        <pt x="27" y="785" on="1"/>
        <pt x="85" y="792" on="1"/>
        <pt x="90" y="771" on="0"/>
        <pt x="94" y="748" on="0"/>
        <pt x="97" y="742" on="1"/>
        <pt x="100" y="736" on="0"/>
        <pt x="114" y="725" on="0"/>
        <pt x="161" y="718" on="0"/>
        <pt x="212" y="718" on="1"/>
        <pt x="235" y="718" on="0"/>
        <pt x="262" y="725" on="0"/>
        <pt x="274" y="738" on="0"/>
        <pt x="274" y="746" on="1"/>
        <pt x="274" y="755" on="0"/>
        <pt x="261" y="772" on="0"/>
        <pt x="245" y="772" on="1"/>
        <pt x="232" y="772" on="0"/>
        <pt x="203" y="748" on="0"/>
        <pt x="178" y="712" on="0"/>
        <pt x="170" y="694" on="1"/>
        <pt x="110" y="716" on="1"/>
        <pt x="124" y="743" on="0"/>
        <pt x="166" y="798" on="0"/>
        <pt x="219" y="835" on="0"/>
        <pt x="250" y="835" on="1"/>
        <pt x="286" y="835" on="0"/>
        <pt x="337" y="792" on="0"/>
        <pt x="337" y="754" on="1"/>
        <pt x="337" y="713" on="0"/>
        <pt x="262" y="656" on="0"/>
        <pt x="196" y="656" on="1"/>
        <pt x="138" y="656" on="0"/>
        <pt x="92" y="679" on="0"/>
        <pt x="89" y="692" on="1"/>
        <pt x="103" y="688" on="1"/>
        <pt x="103" y="679" on="0"/>
        <pt x="100" y="643" on="0"/>
        <pt x="95" y="605" on="0"/>
        <pt x="92" y="591" on="1"/>
      </contour>
    </TTGlyph>
    <TTGlyph name="uni0614" xMin="20" yMin="613" xMax="440" yMax="722">
      <contour>
        <pt x="347" y="613" on="1" overlap="1"/>
        <pt x="310" y="613" on="0"/>
        <pt x="281" y="643" on="0"/>
        <pt x="276" y="663" on="1"/>
        <pt x="297" y="669" on="1"/>
        <pt x="297" y="647" on="0"/>
        <pt x="271" y="614" on="0"/>
        <pt x="234" y="614" on="1"/>
        <pt x="20" y="614" on="1"/>
        <pt x="32" y="675" on="1"/>
        <pt x="216" y="675" on="1"/>
        <pt x="243" y="675" on="0"/>
        <pt x="266" y="701" on="0"/>
        <pt x="273" y="722" on="1"/>
        <pt x="322" y="715" on="1"/>
        <pt x="319" y="699" on="0"/>
        <pt x="330" y="671" on="0"/>
        <pt x="347" y="671" on="1"/>
        <pt x="360" y="671" on="0"/>
        <pt x="376" y="688" on="0"/>
        <pt x="386" y="712" on="0"/>
        <pt x="389" y="722" on="1"/>
        <pt x="440" y="713" on="1"/>
        <pt x="434" y="667" on="0"/>
        <pt x="385" y="613" on="0"/>
      </contour>
    </TTGlyph>
    <TTGlyph name="uni0615" xMin="15" yMin="598" xMax="281" yMax="848">
      <contour>
        <pt x="113" y="598" on="1" overlap="1"/>
        <pt x="90" y="598" on="0"/>
        <pt x="36" y="603" on="0"/>
        <pt x="15" y="605" on="1"/>
        <pt x="18" y="661" on="1"/>
        <pt x="36" y="659" on="0"/>
        <pt x="95" y="654" on="0"/>
        <pt x="118" y="654" on="1"/>
        <pt x="177" y="654" on="0"/>
        <pt x="219" y="686" on="0"/>
        <pt x="219" y="702" on="1"/>
        <pt x="219" y="711" on="0"/>
        <pt x="206" y="730" on="0"/>
        <pt x="189" y="730" on="1"/>
        <pt x="173" y="730" on="0"/>
        <pt x="138" y="709" on="0"/>
        <pt x="109" y="673" on="0"/>
        <pt x="101" y="652" on="1"/>
        <pt x="37" y="647" on="1"/>
        <pt x="53" y="692" on="0"/>
        <pt x="107" y="756" on="0"/>
        <pt x="171" y="791" on="0"/>
        <pt x="200" y="791" on="1"/>
        <pt x="238" y="791" on="0"/>
        <pt x="281" y="740" on="0"/>
        <pt x="281" y="709" on="1"/>
        <pt x="281" y="685" on="0"/>
        <pt x="248" y="633" on="0"/>
        <pt x="175" y="598" on="0"/>
      </contour>
      <contour>
        <pt x="57" y="673" on="1"/>
        <pt x="51" y="848" on="1"/>
        <pt x="105" y="848" on="1"/>
        <pt x="112" y="692" on="1"/>
      </contour>
    </TTGlyph>
    <TTGlyph name="uni0616" xMin="0" yMin="583" xMax="379" yMax="928">
      <contour>
        <pt x="197" y="583" on="1" overlap="1"/>
        <pt x="96" y="583" on="0"/>
        <pt x="0" y="627" on="0"/>
        <pt x="0" y="664" on="1"/>
        <pt x="0" y="693" on="0"/>
        <pt x="20" y="726" on="0"/>
        <pt x="54" y="744" on="0"/>
        <pt x="94" y="753" on="0"/>
        <pt x="115" y="757" on="1"/>
        <pt x="136" y="762" on="0"/>
        <pt x="147" y="772" on="0"/>
        <pt x="146" y="786" on="1"/>
        <pt x="139" y="928" on="1"/>
        <pt x="196" y="928" on="1"/>
        <pt x="204" y="777" on="1"/>
        <pt x="205" y="757" on="0"/>
        <pt x="200" y="728" on="0"/>
        <pt x="192" y="719" on="1"/>
        <pt x="182" y="707" on="0"/>
        <pt x="137" y="699" on="0"/>
        <pt x="109" y="693" on="1"/>
        <pt x="81" y="687" on="0"/>
        <pt x="68" y="675" on="0"/>
        <pt x="68" y="667" on="1"/>
        <pt x="68" y="658" on="0"/>
        <pt x="124" y="642" on="0"/>
        <pt x="189" y="642" on="1"/>
        <pt x="260" y="642" on="0"/>
        <pt x="362" y="659" on="0"/>
        <pt x="379" y="663" on="1"/>
        <pt x="374" y="605" on="1"/>
        <pt x="360" y="601" on="0"/>
        <pt x="303" y="591" on="0"/>
        <pt x="233" y="583" on="0"/>
      </contour>
      <contour>
        <pt x="238" y="687" on="1"/>
        <pt x="228" y="928" on="1"/>
        <pt x="285" y="928" on="1"/>
        <pt x="295" y="687" on="1"/>
      </contour>
    </TTGlyph>
    <TTGlyph name="uni0617" xMin="13" yMin="592" xMax="179" yMax="907">
      <contour>
        <pt x="35" y="592" on="1" overlap="1"/>
        <pt x="32" y="592" on="0"/>
        <pt x="19" y="592" on="0"/>
        <pt x="15" y="593" on="1"/>
        <pt x="13" y="651" on="1"/>
        <pt x="47" y="651" on="0"/>
        <pt x="93" y="664" on="0"/>
        <pt x="118" y="691" on="0"/>
        <pt x="118" y="712" on="1"/>
        <pt x="118" y="733" on="0"/>
        <pt x="108" y="780" on="0"/>
        <pt x="97" y="805" on="1"/>
        <pt x="157" y="823" on="1"/>
        <pt x="168" y="791" on="0"/>
        <pt x="179" y="736" on="0"/>
        <pt x="179" y="713" on="1"/>
        <pt x="179" y="656" on="0"/>
        <pt x="103" y="592" on="0"/>
      </contour>
      <contour>
        <pt x="113" y="838" on="1"/>
        <pt x="99" y="838" on="0"/>
        <pt x="80" y="859" on="0"/>
        <pt x="80" y="872" on="1"/>
        <pt x="80" y="886" on="0"/>
        <pt x="99" y="907" on="0"/>
        <pt x="113" y="907" on="1"/>
        <pt x="127" y="907" on="0"/>
        <pt x="147" y="886" on="0"/>
        <pt x="147" y="872" on="1"/>
        <pt x="147" y="859" on="0"/>
        <pt x="127" y="838" on="0"/>
      </contour>
    </TTGlyph>
    <TTGlyph name="uni0618" xMin="40" yMin="587" xMax="197" yMax="695">
      <contour>
        <pt x="40" y="587" on="1" overlap="1"/>
        <pt x="40" y="648" on="1"/>
        <pt x="197" y="695" on="1"/>
        <pt x="197" y="633" on="1"/>
      </contour>
    </TTGlyph>
    <TTGlyph name="uni0619" xMin="29" yMin="585" xMax="235" yMax="842">
      <contour>
        <pt x="41" y="585" on="1" overlap="1"/>
        <pt x="29" y="635" on="1"/>
        <pt x="83" y="644" on="0"/>
        <pt x="147" y="675" on="0"/>
        <pt x="175" y="717" on="0"/>
        <pt x="175" y="740" on="1"/>
        <pt x="175" y="760" on="0"/>
        <pt x="155" y="780" on="0"/>
        <pt x="142" y="780" on="1"/>
        <pt x="128" y="780" on="0"/>
        <pt x="111" y="757" on="0"/>
        <pt x="111" y="743" on="1"/>
        <pt x="111" y="732" on="0"/>
        <pt x="122" y="712" on="0"/>
        <pt x="142" y="696" on="0"/>
        <pt x="157" y="690" on="1"/>
        <pt x="132" y="644" on="1"/>
        <pt x="95" y="658" on="0"/>
        <pt x="51" y="709" on="0"/>
        <pt x="51" y="743" on="1"/>
        <pt x="51" y="781" on="0"/>
        <pt x="100" y="842" on="0"/>
        <pt x="144" y="842" on="1"/>
        <pt x="187" y="842" on="0"/>
        <pt x="235" y="784" on="0"/>
        <pt x="235" y="742" on="1"/>
        <pt x="235" y="706" on="0"/>
        <pt x="192" y="640" on="0"/>
        <pt x="106" y="593" on="0"/>
      </contour>
    </TTGlyph>
    <TTGlyph name="uni061A" xMin="40" yMin="-186" xMax="197" yMax="-78">
      <component glyphName="uni0618" x="0" y="-773" flags="0x604"/>
    </TTGlyph>
    <TTGlyph name="uni061B" xMin="28" yMin="-17" xMax="250" yMax="682">
      <contour>
        <pt x="35" y="397" on="1" overlap="1"/>
        <pt x="28" y="408" on="1"/>
        <pt x="37" y="444" on="0"/>
        <pt x="65" y="544" on="0"/>
        <pt x="98" y="645" on="0"/>
        <pt x="114" y="682" on="1"/>
        <pt x="250" y="682" on="1"/>
        <pt x="241" y="637" on="0"/>
        <pt x="222" y="535" on="0"/>
        <pt x="207" y="437" on="0"/>
        <pt x="202" y="397" on="1"/>
      </contour>
      <contour>
        <pt x="130" y="-17" on="1"/>
        <pt x="90" y="-17" on="0"/>
        <pt x="29" y="25" on="0"/>
        <pt x="29" y="76" on="1"/>
        <pt x="29" y="126" on="0"/>
        <pt x="90" y="170" on="0"/>
        <pt x="130" y="170" on="1"/>
        <pt x="173" y="170" on="0"/>
        <pt x="233" y="126" on="0"/>
        <pt x="233" y="76" on="1"/>
        <pt x="233" y="25" on="0"/>
        <pt x="173" y="-17" on="0"/>
      </contour>
    </TTGlyph>
    <TTGlyph name="uni061E" xMin="105" yMin="-32" xMax="429" yMax="272">
      <component glyphName="uniFBB6" x="75" y="-570" flags="0x404"/>
    </TTGlyph>
    <TTGlyph name="uni061F" xMin="18" yMin="-12" xMax="505" yMax="724">
      <contour>
        <pt x="211" y="252" on="1" overlap="1"/>
        <pt x="211" y="277" on="1"/>
        <pt x="211" y="293" on="0"/>
        <pt x="197" y="317" on="0"/>
        <pt x="164" y="343" on="0"/>
        <pt x="134" y="362" on="1"/>
        <pt x="93" y="389" on="0"/>
        <pt x="41" y="444" on="0"/>
        <pt x="18" y="508" on="0"/>
        <pt x="18" y="546" on="1"/>
        <pt x="18" y="626" on="0"/>
        <pt x="140" y="724" on="0"/>
        <pt x="251" y="724" on="1"/>
        <pt x="325" y="724" on="0"/>
        <pt x="450" y="687" on="0"/>
        <pt x="505" y="655" on="1"/>
        <pt x="437" y="522" on="1"/>
        <pt x="388" y="548" on="0"/>
        <pt x="302" y="574" on="0"/>
        <pt x="265" y="574" on="1"/>
        <pt x="235" y="574" on="0"/>
        <pt x="198" y="550" on="0"/>
        <pt x="198" y="530" on="1"/>
        <pt x="198" y="517" on="0"/>
        <pt x="207" y="491" on="0"/>
        <pt x="239" y="460" on="0"/>
        <pt x="272" y="439" on="1"/>
        <pt x="307" y="417" on="0"/>
        <pt x="346" y="373" on="0"/>
        <pt x="361" y="324" on="0"/>
        <pt x="361" y="294" on="1"/>
        <pt x="361" y="252" on="1"/>
      </contour>
      <contour>
        <pt x="279" y="-12" on="1"/>
        <pt x="238" y="-12" on="0"/>
        <pt x="178" y="32" on="0"/>
        <pt x="178" y="81" on="1"/>
        <pt x="178" y="133" on="0"/>
        <pt x="238" y="175" on="0"/>
        <pt x="279" y="175" on="1"/>
        <pt x="322" y="175" on="0"/>
        <pt x="382" y="133" on="0"/>
        <pt x="382" y="81" on="1"/>
        <pt x="382" y="32" on="0"/>
        <pt x="322" y="-12" on="0"/>
      </contour>
    </TTGlyph>
    <TTGlyph name="uni0620" xMin="24" yMin="-371" xMax="845" yMax="505">
      <component glyphName="uni0649" x="0" y="0" flags="0x604"/>
      <component glyphName="ringArabic" x="245" y="-344" flags="0x4"/>
    </TTGlyph>
    <TTGlyph name="uni0620.fina" xMin="24" yMin="-371" xMax="941" yMax="265">
      <component glyphName="uniFEF0" x="0" y="0" flags="0x604"/>
      <component glyphName="ringArabic" x="246" y="-344" flags="0x4"/>
    </TTGlyph>
    <TTGlyph name="uni0620.init" xMin="0" yMin="-104" xMax="344" yMax="520">
      <component glyphName="uni066E.init.wide" x="0" y="0" flags="0x604"/>
      <component glyphName="ringArabic" x="111" y="-77" flags="0x4"/>
    </TTGlyph>
    <TTGlyph name="uni0620.medi" xMin="0" yMin="-128" xMax="545" yMax="376">
      <component glyphName="uni066E.medi.wide" x="0" y="0" flags="0x604"/>
      <component glyphName="ringArabic" x="22" y="-101" flags="0x4"/>
    </TTGlyph>
    <TTGlyph name="uni0621" xMin="10" yMin="-56" xMax="480" yMax="473">
      <contour>
        <pt x="141" y="130" on="1" overlap="1"/>
        <pt x="124" y="140" on="0"/>
        <pt x="92" y="172" on="0"/>
        <pt x="68" y="212" on="0"/>
        <pt x="54" y="258" on="0"/>
        <pt x="54" y="282" on="1"/>
        <pt x="54" y="339" on="0"/>
        <pt x="110" y="425" on="0"/>
        <pt x="204" y="473" on="0"/>
        <pt x="261" y="473" on="1"/>
        <pt x="297" y="473" on="0"/>
        <pt x="352" y="465" on="0"/>
        <pt x="383" y="458" on="1"/>
        <pt x="358" y="308" on="1"/>
        <pt x="338" y="313" on="0"/>
        <pt x="302" y="318" on="0"/>
        <pt x="289" y="318" on="1"/>
        <pt x="271" y="318" on="0"/>
        <pt x="242" y="305" on="0"/>
        <pt x="226" y="279" on="0"/>
        <pt x="226" y="261" on="1"/>
        <pt x="226" y="244" on="0"/>
        <pt x="243" y="211" on="0"/>
        <pt x="281" y="188" on="0"/>
        <pt x="314" y="184" on="1"/>
      </contour>
      <contour>
        <pt x="62" y="-56" on="1"/>
        <pt x="10" y="97" on="1"/>
        <pt x="69" y="113" on="0"/>
        <pt x="199" y="154" on="0"/>
        <pt x="342" y="205" on="0"/>
        <pt x="421" y="237" on="1"/>
        <pt x="480" y="87" on="1"/>
        <pt x="434" y="68" on="0"/>
        <pt x="327" y="28" on="0"/>
        <pt x="216" y="-10" on="0"/>
        <pt x="109" y="-44" on="0"/>
      </contour>
    </TTGlyph>
    <TTGlyph name="uni0622" xMin="-36" yMin="0" xMax="317" yMax="918">
      <component glyphName="uni0627.short" x="0" y="0" flags="0x604"/>
      <component glyphName="uni0653" x="-36" y="182" flags="0x4"/>
    </TTGlyph>
    <TTGlyph name="uni0623" xMin="26" yMin="0" xMax="252" yMax="1026">
      <component glyphName="uni0627.short" x="0" y="0" flags="0x604"/>
      <component glyphName="uni0654" x="-1" y="182" flags="0x4"/>
    </TTGlyph>
    <TTGlyph name="uni0624" xMin="23" yMin="-231" xMax="490" yMax="728">
      <component glyphName="uni0648" x="0" y="0" flags="0x604"/>
      <component glyphName="uni0654" x="128" y="-116" flags="0x4"/>
    </TTGlyph>
    <TTGlyph name="uni0625" xMin="60" yMin="-303" xMax="296" yMax="760">
      <component glyphName="uni0627" x="0" y="0" flags="0x604"/>
      <component glyphName="uni0655" x="44" y="0" flags="0x4"/>
    </TTGlyph>
    <TTGlyph name="uni0626" xMin="24" yMin="-231" xMax="845" yMax="600">
      <component glyphName="uni0649" x="0" y="0" flags="0x604"/>
      <component glyphName="uni0654" x="91" y="-244" flags="0x4"/>
    </TTGlyph>
    <TTGlyph name="uni0627" xMin="60" yMin="0" xMax="254" yMax="760">
      <contour>
        <pt x="81" y="0" on="1" overlap="1"/>
        <pt x="60" y="760" on="1"/>
        <pt x="233" y="760" on="1"/>
        <pt x="254" y="0" on="1"/>
      </contour>
    </TTGlyph>
    <TTGlyph name="uni0627.fina.short" xMin="60" yMin="-5" xMax="441" yMax="690">
      <contour>
        <pt x="341" y="-5" on="1" overlap="1"/>
        <pt x="239" y="-5" on="0"/>
        <pt x="128" y="35" on="0"/>
        <pt x="83" y="117" on="0"/>
        <pt x="80" y="181" on="1"/>
        <pt x="60" y="690" on="1"/>
        <pt x="232" y="690" on="1"/>
        <pt x="252" y="271" on="1"/>
        <pt x="255" y="222" on="0"/>
        <pt x="274" y="176" on="0"/>
        <pt x="316" y="163" on="0"/>
        <pt x="351" y="163" on="1"/>
        <pt x="399" y="163" on="0"/>
        <pt x="441" y="115" on="0"/>
        <pt x="441" y="81" on="1"/>
        <pt x="441" y="43" on="0"/>
        <pt x="391" y="-5" on="0"/>
      </contour>
    </TTGlyph>
    <TTGlyph name="uni0627.fina.wide" xMin="60" yMin="-5" xMax="594" yMax="760">
      <contour>
        <pt x="494" y="-5" on="1" overlap="1"/>
        <pt x="356" y="-5" on="1"/>
        <pt x="257" y="-5" on="0"/>
        <pt x="139" y="36" on="0"/>
        <pt x="86" y="119" on="0"/>
        <pt x="83" y="181" on="1"/>
        <pt x="60" y="760" on="1"/>
        <pt x="232" y="760" on="1"/>
        <pt x="255" y="271" on="1"/>
        <pt x="257" y="228" on="0"/>
        <pt x="275" y="181" on="0"/>
        <pt x="320" y="163" on="0"/>
        <pt x="361" y="163" on="1"/>
        <pt x="504" y="163" on="1"/>
        <pt x="552" y="163" on="0"/>
        <pt x="594" y="115" on="0"/>
        <pt x="594" y="81" on="1"/>
        <pt x="594" y="43" on="0"/>
        <pt x="544" y="-5" on="0"/>
      </contour>
    </TTGlyph>
    <TTGlyph name="uni0627.short" xMin="60" yMin="0" xMax="252" yMax="690">
      <contour>
        <pt x="79" y="0" on="1" overlap="1"/>
        <pt x="60" y="690" on="1"/>
        <pt x="233" y="690" on="1"/>
        <pt x="252" y="0" on="1"/>
      </contour>
    </TTGlyph>
    <TTGlyph name="uni0628" xMin="58" yMin="-273" xMax="1013" yMax="472">
      <component glyphName="uni066E" x="0" y="0" flags="0x604"/>
      <component glyphName="uniFBB3" x="414" y="-22" flags="0x4"/>
    </TTGlyph>
    <TTGlyph name="uni0628.init.short" xMin="0" yMin="-253" xMax="278" yMax="387">
      <component glyphName="uni066E.init.short" x="0" y="0" flags="0x604"/>
      <component glyphName="uniFBB3" x="-1" y="-2" flags="0x4"/>
    </TTGlyph>
    <TTGlyph name="uni0629" xMin="25" yMin="-5" xMax="494" yMax="822">
      <component glyphName="uni0647" x="0" y="0" flags="0x604"/>
      <component glyphName="uniFBB4" x="69" y="138" flags="0x4"/>
    </TTGlyph>
    <TTGlyph name="uni062A" xMin="58" yMin="-21" xMax="1013" yMax="607">
      <component glyphName="uni066E" x="0" y="0" flags="0x604"/>
      <component glyphName="uniFBB4" x="343" y="-77" flags="0x4"/>
    </TTGlyph>
    <TTGlyph name="uni062B" xMin="58" yMin="-21" xMax="1013" yMax="761">
      <component glyphName="uni066E" x="0" y="0" flags="0x604"/>
      <component glyphName="uniFBB6" x="332" y="-81" flags="0x4"/>
    </TTGlyph>
    <TTGlyph name="uni062C" xMin="30" yMin="-394" xMax="703" yMax="550">
      <component glyphName="uni062D" x="0" y="0" flags="0x604"/>
      <component glyphName="dotcenterar" x="320" y="157" flags="0x4"/>
    </TTGlyph>
    <TTGlyph name="uni062D" xMin="30" yMin="-394" xMax="703" yMax="550">
      <contour>
        <pt x="398" y="-394" on="1" overlap="1"/>
        <pt x="318" y="-394" on="0"/>
        <pt x="183" y="-352" on="0"/>
        <pt x="84" y="-271" on="0"/>
        <pt x="30" y="-153" on="0"/>
        <pt x="30" y="-77" on="1"/>
        <pt x="30" y="-2" on="0"/>
        <pt x="78" y="120" on="0"/>
        <pt x="164" y="216" on="0"/>
        <pt x="277" y="287" on="0"/>
        <pt x="408" y="333" on="0"/>
        <pt x="478" y="344" on="1"/>
        <pt x="489" y="324" on="1"/>
        <pt x="467" y="330" on="0"/>
        <pt x="405" y="346" on="0"/>
        <pt x="331" y="360" on="0"/>
        <pt x="251" y="370" on="0"/>
        <pt x="209" y="370" on="1"/>
        <pt x="169" y="370" on="0"/>
        <pt x="94" y="362" on="0"/>
        <pt x="67" y="355" on="1"/>
        <pt x="42" y="530" on="1"/>
        <pt x="72" y="538" on="0"/>
        <pt x="142" y="550" on="0"/>
        <pt x="179" y="550" on="1"/>
        <pt x="241" y="550" on="0"/>
        <pt x="344" y="530" on="0"/>
        <pt x="431" y="501" on="0"/>
        <pt x="506" y="471" on="0"/>
        <pt x="573" y="451" on="0"/>
        <pt x="604" y="451" on="1"/>
        <pt x="656" y="451" on="1"/>
        <pt x="676" y="259" on="1"/>
        <pt x="645" y="259" on="0"/>
        <pt x="552" y="241" on="0"/>
        <pt x="446" y="205" on="0"/>
        <pt x="343" y="152" on="0"/>
        <pt x="259" y="83" on="0"/>
        <pt x="208" y="-1" on="0"/>
        <pt x="208" y="-51" on="1"/>
        <pt x="208" y="-97" on="0"/>
        <pt x="239" y="-160" on="0"/>
        <pt x="294" y="-199" on="0"/>
        <pt x="369" y="-217" on="0"/>
        <pt x="413" y="-217" on="1"/>
        <pt x="472" y="-217" on="0"/>
        <pt x="592" y="-193" on="0"/>
        <pt x="653" y="-168" on="1"/>
        <pt x="703" y="-325" on="1"/>
        <pt x="621" y="-362" on="0"/>
        <pt x="463" y="-394" on="0"/>
      </contour>
    </TTGlyph>
    <TTGlyph name="uni062D.fina.wide" xMin="30" yMin="-394" xMax="921" yMax="550">
      <contour>
        <pt x="821" y="-5" on="1" overlap="1"/>
        <pt x="755" y="-5" on="0"/>
        <pt x="651" y="14" on="0"/>
        <pt x="575" y="64" on="0"/>
        <pt x="527" y="157" on="0"/>
        <pt x="516" y="231" on="1"/>
        <pt x="638" y="283" on="1"/>
        <pt x="646" y="243" on="0"/>
        <pt x="675" y="195" on="0"/>
        <pt x="720" y="171" on="0"/>
        <pt x="786" y="163" on="0"/>
        <pt x="831" y="163" on="1"/>
        <pt x="879" y="163" on="0"/>
        <pt x="921" y="115" on="0"/>
        <pt x="921" y="81" on="1"/>
        <pt x="921" y="43" on="0"/>
        <pt x="871" y="-5" on="0"/>
      </contour>
      <contour>
        <pt x="418" y="-394" on="1"/>
        <pt x="338" y="-394" on="0"/>
        <pt x="197" y="-352" on="0"/>
        <pt x="90" y="-271" on="0"/>
        <pt x="30" y="-153" on="0"/>
        <pt x="30" y="-77" on="1"/>
        <pt x="30" y="-2" on="0"/>
        <pt x="82" y="120" on="0"/>
        <pt x="174" y="216" on="0"/>
        <pt x="293" y="287" on="0"/>
        <pt x="428" y="333" on="0"/>
        <pt x="498" y="344" on="1"/>
        <pt x="509" y="324" on="1"/>
        <pt x="487" y="330" on="0"/>
        <pt x="419" y="346" on="0"/>
        <pt x="337" y="360" on="0"/>
        <pt x="251" y="370" on="0"/>
        <pt x="209" y="370" on="1"/>
        <pt x="169" y="370" on="0"/>
        <pt x="94" y="362" on="0"/>
        <pt x="67" y="355" on="1"/>
        <pt x="42" y="530" on="1"/>
        <pt x="72" y="538" on="0"/>
        <pt x="142" y="550" on="0"/>
        <pt x="179" y="550" on="1"/>
        <pt x="247" y="550" on="0"/>
        <pt x="357" y="530" on="0"/>
        <pt x="449" y="501" on="0"/>
        <pt x="526" y="471" on="0"/>
        <pt x="593" y="451" on="0"/>
        <pt x="624" y="451" on="1"/>
        <pt x="676" y="451" on="1"/>
        <pt x="696" y="259" on="1"/>
        <pt x="665" y="259" on="0"/>
        <pt x="569" y="241" on="0"/>
        <pt x="459" y="205" on="0"/>
        <pt x="351" y="152" on="0"/>
        <pt x="262" y="83" on="0"/>
        <pt x="208" y="-1" on="0"/>
        <pt x="208" y="-51" on="1"/>
        <pt x="208" y="-97" on="0"/>
        <pt x="245" y="-160" on="0"/>
        <pt x="308" y="-199" on="0"/>
        <pt x="389" y="-217" on="0"/>
        <pt x="433" y="-217" on="1"/>
        <pt x="492" y="-217" on="0"/>
        <pt x="612" y="-193" on="0"/>
        <pt x="673" y="-168" on="1"/>
        <pt x="723" y="-325" on="1"/>
        <pt x="641" y="-362" on="0"/>
        <pt x="483" y="-394" on="0"/>
      </contour>
    </TTGlyph>
    <TTGlyph name="uni062D.wide" xMin="30" yMin="-394" xMax="723" yMax="550">
      <contour>
        <pt x="418" y="-394" on="1" overlap="1"/>
        <pt x="338" y="-394" on="0"/>
        <pt x="197" y="-352" on="0"/>
        <pt x="90" y="-271" on="0"/>
        <pt x="30" y="-153" on="0"/>
        <pt x="30" y="-77" on="1"/>
        <pt x="30" y="-2" on="0"/>
        <pt x="82" y="120" on="0"/>
        <pt x="174" y="216" on="0"/>
        <pt x="293" y="287" on="0"/>
        <pt x="428" y="333" on="0"/>
        <pt x="498" y="344" on="1"/>
        <pt x="509" y="324" on="1"/>
        <pt x="487" y="330" on="0"/>
        <pt x="419" y="346" on="0"/>
        <pt x="337" y="360" on="0"/>
        <pt x="251" y="370" on="0"/>
        <pt x="209" y="370" on="1"/>
        <pt x="169" y="370" on="0"/>
        <pt x="94" y="362" on="0"/>
        <pt x="67" y="355" on="1"/>
        <pt x="42" y="530" on="1"/>
        <pt x="72" y="538" on="0"/>
        <pt x="142" y="550" on="0"/>
        <pt x="179" y="550" on="1"/>
        <pt x="247" y="550" on="0"/>
        <pt x="357" y="530" on="0"/>
        <pt x="449" y="501" on="0"/>
        <pt x="526" y="471" on="0"/>
        <pt x="593" y="451" on="0"/>
        <pt x="624" y="451" on="1"/>
        <pt x="676" y="451" on="1"/>
        <pt x="696" y="259" on="1"/>
        <pt x="665" y="259" on="0"/>
        <pt x="569" y="241" on="0"/>
        <pt x="459" y="205" on="0"/>
        <pt x="351" y="152" on="0"/>
        <pt x="262" y="83" on="0"/>
        <pt x="208" y="-1" on="0"/>
        <pt x="208" y="-51" on="1"/>
        <pt x="208" y="-97" on="0"/>
        <pt x="245" y="-160" on="0"/>
        <pt x="308" y="-199" on="0"/>
        <pt x="389" y="-217" on="0"/>
        <pt x="433" y="-217" on="1"/>
        <pt x="492" y="-217" on="0"/>
        <pt x="612" y="-193" on="0"/>
        <pt x="673" y="-168" on="1"/>
        <pt x="723" y="-325" on="1"/>
        <pt x="641" y="-362" on="0"/>
        <pt x="483" y="-394" on="0"/>
      </contour>
    </TTGlyph>
    <TTGlyph name="uni062E" xMin="30" yMin="-394" xMax="703" yMax="808">
      <component glyphName="uni062D" x="0" y="0" flags="0x604"/>
      <component glyphName="uniFBB2" x="244" y="103" flags="0x4"/>
    </TTGlyph>
    <TTGlyph name="uni062F" xMin="30" yMin="-5" xMax="502" yMax="564">
      <contour>
        <pt x="30" y="50" on="1" overlap="1"/>
        <pt x="94" y="211" on="1"/>
        <pt x="123" y="197" on="0"/>
        <pt x="192" y="177" on="0"/>
        <pt x="229" y="177" on="1"/>
        <pt x="256" y="177" on="0"/>
        <pt x="288" y="188" on="0"/>
        <pt x="303" y="213" on="0"/>
        <pt x="303" y="234" on="1"/>
        <pt x="303" y="253" on="0"/>
        <pt x="286" y="308" on="0"/>
        <pt x="238" y="396" on="0"/>
        <pt x="192" y="465" on="1"/>
        <pt x="352" y="564" on="1"/>
        <pt x="409" y="480" on="0"/>
        <pt x="474" y="349" on="0"/>
        <pt x="502" y="248" on="0"/>
        <pt x="502" y="208" on="1"/>
        <pt x="502" y="144" on="0"/>
        <pt x="448" y="48" on="0"/>
        <pt x="335" y="-5" on="0"/>
        <pt x="246" y="-5" on="1"/>
        <pt x="208" y="-5" on="0"/>
        <pt x="133" y="6" on="0"/>
        <pt x="62" y="30" on="0"/>
      </contour>
    </TTGlyph>
    <TTGlyph name="uni0630" xMin="30" yMin="-5" xMax="502" yMax="799">
      <component glyphName="uni062F" x="0" y="0" flags="0x604"/>
      <component glyphName="uniFBB2" x="129" y="94" flags="0x4"/>
    </TTGlyph>
    <TTGlyph name="uni0631" xMin="-37" yMin="-231" xMax="378" yMax="417">
      <contour>
        <pt x="16" y="-231" on="1" overlap="1"/>
        <pt x="-37" y="-76" on="1"/>
        <pt x="58" y="-51" on="0"/>
        <pt x="166" y="20" on="0"/>
        <pt x="211" y="99" on="0"/>
        <pt x="211" y="135" on="1"/>
        <pt x="211" y="158" on="0"/>
        <pt x="191" y="223" on="0"/>
        <pt x="155" y="300" on="0"/>
        <pt x="131" y="341" on="1"/>
        <pt x="285" y="417" on="1"/>
        <pt x="324" y="350" on="0"/>
        <pt x="378" y="202" on="0"/>
        <pt x="378" y="141" on="1"/>
        <pt x="378" y="98" on="0"/>
        <pt x="355" y="9" on="0"/>
        <pt x="303" y="-76" on="0"/>
        <pt x="219" y="-151" on="0"/>
        <pt x="98" y="-211" on="0"/>
      </contour>
    </TTGlyph>
    <TTGlyph name="uni0632" xMin="-37" yMin="-231" xMax="378" yMax="677">
      <component glyphName="uni0631" x="0" y="0" flags="0x604"/>
      <component glyphName="uniFBB2" x="87" y="-28" flags="0x4"/>
    </TTGlyph>
    <TTGlyph name="uni0633" xMin="24" yMin="-232" xMax="1421" yMax="516">
      <contour>
        <pt x="366" y="-232" on="1" overlap="1"/>
        <pt x="295" y="-232" on="0"/>
        <pt x="171" y="-201" on="0"/>
        <pt x="77" y="-136" on="0"/>
        <pt x="24" y="-36" on="0"/>
        <pt x="24" y="33" on="1"/>
        <pt x="24" y="61" on="0"/>
        <pt x="32" y="123" on="0"/>
        <pt x="55" y="205" on="0"/>
        <pt x="79" y="263" on="1"/>
        <pt x="235" y="209" on="1"/>
        <pt x="221" y="170" on="0"/>
        <pt x="206" y="121" on="0"/>
        <pt x="201" y="84" on="0"/>
        <pt x="201" y="63" on="1"/>
        <pt x="201" y="27" on="0"/>
        <pt x="240" y="-31" on="0"/>
        <pt x="316" y="-64" on="0"/>
        <pt x="371" y="-64" on="1"/>
        <pt x="415" y="-64" on="0"/>
        <pt x="486" y="-46" on="0"/>
        <pt x="536" y="-10" on="0"/>
        <pt x="563" y="45" on="0"/>
        <pt x="563" y="82" on="1"/>
        <pt x="563" y="111" on="0"/>
        <pt x="547" y="190" on="0"/>
        <pt x="522" y="285" on="0"/>
        <pt x="506" y="335" on="1"/>
        <pt x="684" y="380" on="1"/>
        <pt x="693" y="342" on="0"/>
        <pt x="708" y="283" on="0"/>
        <pt x="719" y="244" on="0"/>
        <pt x="722" y="234" on="1"/>
        <pt x="732" y="205" on="0"/>
        <pt x="753" y="174" on="0"/>
        <pt x="784" y="164" on="0"/>
        <pt x="808" y="164" on="1"/>
        <pt x="837" y="165" on="0"/>
        <pt x="875" y="177" on="0"/>
        <pt x="901" y="218" on="0"/>
        <pt x="919" y="303" on="0"/>
        <pt x="928" y="376" on="1"/>
        <pt x="1096" y="350" on="1"/>
        <pt x="1091" y="323" on="0"/>
        <pt x="1082" y="272" on="0"/>
        <pt x="1077" y="230" on="0"/>
        <pt x="1077" y="216" on="1"/>
        <pt x="1077" y="202" on="0"/>
        <pt x="1094" y="177" on="0"/>
        <pt x="1135" y="163" on="0"/>
        <pt x="1171" y="163" on="1"/>
        <pt x="1200" y="163" on="0"/>
        <pt x="1235" y="177" on="0"/>
        <pt x="1251" y="207" on="0"/>
        <pt x="1251" y="231" on="1"/>
        <pt x="1251" y="258" on="0"/>
        <pt x="1237" y="331" on="0"/>
        <pt x="1213" y="419" on="0"/>
        <pt x="1196" y="467" on="1"/>
        <pt x="1362" y="516" on="1"/>
        <pt x="1380" y="466" on="0"/>
        <pt x="1407" y="359" on="0"/>
        <pt x="1421" y="261" on="0"/>
        <pt x="1421" y="225" on="1"/>
        <pt x="1421" y="170" on="0"/>
        <pt x="1387" y="85" on="0"/>
        <pt x="1320" y="26" on="0"/>
        <pt x="1225" y="-5" on="0"/>
        <pt x="1163" y="-5" on="1"/>
        <pt x="1129" y="-5" on="0"/>
        <pt x="1066" y="9" on="0"/>
        <pt x="1019" y="42" on="0"/>
        <pt x="991" y="98" on="0"/>
        <pt x="991" y="141" on="1"/>
        <pt x="1025" y="141" on="1"/>
        <pt x="1004" y="75" on="0"/>
        <pt x="947" y="13" on="0"/>
        <pt x="878" y="-5" on="0"/>
        <pt x="838" y="-5" on="1"/>
        <pt x="822" y="-5" on="0"/>
        <pt x="777" y="1" on="0"/>
        <pt x="731" y="21" on="0"/>
        <pt x="697" y="62" on="0"/>
        <pt x="692" y="97" on="1"/>
        <pt x="743" y="43" on="1"/>
        <pt x="740" y="-24" on="0"/>
        <pt x="675" y="-127" on="0"/>
        <pt x="568" y="-197" on="0"/>
        <pt x="436" y="-232" on="0"/>
      </contour>
    </TTGlyph>
    <TTGlyph name="uni0634" xMin="24" yMin="-232" xMax="1421" yMax="821">
      <component glyphName="uni0633" x="0" y="0" flags="0x604"/>
      <component glyphName="uniFBB6" x="740" y="-21" flags="0x4"/>
    </TTGlyph>
    <TTGlyph name="uni0635" xMin="24" yMin="-232" xMax="1465" yMax="478">
      <contour>
        <pt x="368" y="-232" on="1" overlap="1"/>
        <pt x="298" y="-232" on="0"/>
        <pt x="174" y="-202" on="0"/>
        <pt x="78" y="-138" on="0"/>
        <pt x="24" y="-37" on="0"/>
        <pt x="24" y="33" on="1"/>
        <pt x="24" y="61" on="0"/>
        <pt x="32" y="122" on="0"/>
        <pt x="55" y="204" on="0"/>
        <pt x="79" y="262" on="1"/>
        <pt x="235" y="208" on="1"/>
        <pt x="221" y="169" on="0"/>
        <pt x="206" y="120" on="0"/>
        <pt x="201" y="84" on="0"/>
        <pt x="201" y="63" on="1"/>
        <pt x="201" y="26" on="0"/>
        <pt x="238" y="-31" on="0"/>
        <pt x="311" y="-64" on="0"/>
        <pt x="366" y="-64" on="1"/>
        <pt x="414" y="-64" on="0"/>
        <pt x="487" y="-46" on="0"/>
        <pt x="537" y="-10" on="0"/>
        <pt x="563" y="44" on="0"/>
        <pt x="563" y="81" on="1"/>
        <pt x="563" y="130" on="0"/>
        <pt x="528" y="262" on="0"/>
        <pt x="506" y="335" on="1"/>
        <pt x="684" y="380" on="1"/>
        <pt x="693" y="342" on="0"/>
        <pt x="708" y="283" on="0"/>
        <pt x="719" y="244" on="0"/>
        <pt x="722" y="234" on="1"/>
        <pt x="729" y="214" on="0"/>
        <pt x="752" y="184" on="0"/>
        <pt x="805" y="165" on="0"/>
        <pt x="907" y="156" on="0"/>
        <pt x="993" y="156" on="1"/>
        <pt x="1067" y="156" on="0"/>
        <pt x="1170" y="164" on="0"/>
        <pt x="1237" y="179" on="0"/>
        <pt x="1275" y="201" on="0"/>
        <pt x="1290" y="228" on="0"/>
        <pt x="1290" y="244" on="1"/>
        <pt x="1290" y="260" on="0"/>
        <pt x="1275" y="288" on="0"/>
        <pt x="1244" y="306" on="0"/>
        <pt x="1218" y="306" on="1"/>
        <pt x="1186" y="306" on="0"/>
        <pt x="1119" y="277" on="0"/>
        <pt x="1052" y="228" on="0"/>
        <pt x="989" y="167" on="0"/>
        <pt x="961" y="136" on="1"/>
        <pt x="783" y="162" on="1"/>
        <pt x="818" y="212" on="0"/>
        <pt x="899" y="305" on="0"/>
        <pt x="989" y="385" on="0"/>
        <pt x="1085" y="445" on="0"/>
        <pt x="1186" y="478" on="0"/>
        <pt x="1237" y="478" on="1"/>
        <pt x="1308" y="478" on="0"/>
        <pt x="1410" y="419" on="0"/>
        <pt x="1465" y="319" on="0"/>
        <pt x="1465" y="256" on="1"/>
        <pt x="1465" y="195" on="0"/>
        <pt x="1415" y="95" on="0"/>
        <pt x="1310" y="25" on="0"/>
        <pt x="1143" y="-13" on="0"/>
        <pt x="1025" y="-13" on="1"/>
        <pt x="979" y="-13" on="0"/>
        <pt x="870" y="-4" on="0"/>
        <pt x="766" y="19" on="0"/>
        <pt x="687" y="60" on="0"/>
        <pt x="671" y="91" on="1"/>
        <pt x="743" y="43" on="1"/>
        <pt x="740" y="-24" on="0"/>
        <pt x="675" y="-127" on="0"/>
        <pt x="568" y="-197" on="0"/>
        <pt x="437" y="-232" on="0"/>
      </contour>
    </TTGlyph>
    <TTGlyph name="uni0636" xMin="24" yMin="-232" xMax="1465" yMax="736">
      <component glyphName="uni0635" x="0" y="0" flags="0x604"/>
      <component glyphName="uniFBB2" x="1092" y="31" flags="0x4"/>
    </TTGlyph>
    <TTGlyph name="uni0637" xMin="20" yMin="-13" xMax="839" yMax="760">
      <contour>
        <pt x="399" y="-13" on="1" overlap="1"/>
        <pt x="353" y="-13" on="0"/>
        <pt x="258" y="-11" on="0"/>
        <pt x="161" y="-7" on="0"/>
        <pt x="65" y="0" on="0"/>
        <pt x="20" y="6" on="1"/>
        <pt x="40" y="172" on="1"/>
        <pt x="103" y="166" on="0"/>
        <pt x="198" y="159" on="0"/>
        <pt x="272" y="156" on="0"/>
        <pt x="336" y="155" on="0"/>
        <pt x="367" y="155" on="1"/>
        <pt x="459" y="155" on="0"/>
        <pt x="576" y="168" on="0"/>
        <pt x="640" y="191" on="0"/>
        <pt x="664" y="223" on="0"/>
        <pt x="664" y="242" on="1"/>
        <pt x="664" y="261" on="0"/>
        <pt x="649" y="289" on="0"/>
        <pt x="619" y="305" on="0"/>
        <pt x="594" y="305" on="1"/>
        <pt x="562" y="305" on="0"/>
        <pt x="495" y="277" on="0"/>
        <pt x="427" y="229" on="0"/>
        <pt x="364" y="167" on="0"/>
        <pt x="335" y="134" on="1"/>
        <pt x="157" y="156" on="1"/>
        <pt x="204" y="227" on="0"/>
        <pt x="311" y="344" on="0"/>
        <pt x="429" y="430" on="0"/>
        <pt x="551" y="477" on="0"/>
        <pt x="612" y="477" on="1"/>
        <pt x="680" y="477" on="0"/>
        <pt x="782" y="422" on="0"/>
        <pt x="839" y="322" on="0"/>
        <pt x="839" y="255" on="1"/>
        <pt x="839" y="174" on="0"/>
        <pt x="750" y="53" on="0"/>
        <pt x="556" y="-13" on="0"/>
      </contour>
      <contour>
        <pt x="213" y="99" on="1"/>
        <pt x="192" y="760" on="1"/>
        <pt x="365" y="760" on="1"/>
        <pt x="381" y="308" on="1"/>
      </contour>
    </TTGlyph>
    <TTGlyph name="uni0638" xMin="20" yMin="-13" xMax="839" yMax="760">
      <component glyphName="uni0637" x="0" y="0" flags="0x604"/>
      <component glyphName="uniFBB2" x="537" y="4" flags="0x4"/>
    </TTGlyph>
    <TTGlyph name="uni0639" xMin="30" yMin="-394" xMax="699" yMax="595">
      <contour>
        <pt x="401" y="-394" on="1" overlap="1"/>
        <pt x="326" y="-394" on="0"/>
        <pt x="192" y="-357" on="0"/>
        <pt x="89" y="-284" on="0"/>
        <pt x="30" y="-172" on="0"/>
        <pt x="30" y="-97" on="1"/>
        <pt x="30" y="-9" on="0"/>
        <pt x="101" y="134" on="0"/>
        <pt x="230" y="243" on="0"/>
        <pt x="406" y="315" on="0"/>
        <pt x="511" y="330" on="1"/>
        <pt x="552" y="170" on="1"/>
        <pt x="454" y="153" on="0"/>
        <pt x="320" y="99" on="0"/>
        <pt x="240" y="32" on="0"/>
        <pt x="204" y="-42" on="0"/>
        <pt x="204" y="-81" on="1"/>
        <pt x="204" y="-113" on="0"/>
        <pt x="228" y="-162" on="0"/>
        <pt x="269" y="-196" on="0"/>
        <pt x="320" y="-216" on="0"/>
        <pt x="375" y="-226" on="0"/>
        <pt x="401" y="-226" on="1"/>
        <pt x="481" y="-226" on="0"/>
        <pt x="602" y="-197" on="0"/>
        <pt x="647" y="-178" on="1"/>
        <pt x="699" y="-334" on="1"/>
        <pt x="675" y="-346" on="0"/>
        <pt x="583" y="-374" on="0"/>
        <pt x="465" y="-394" on="0"/>
      </contour>
      <contour>
        <pt x="179" y="175" on="1"/>
        <pt x="148" y="192" on="0"/>
        <pt x="92" y="245" on="0"/>
        <pt x="58" y="324" on="0"/>
        <pt x="58" y="380" on="1"/>
        <pt x="58" y="444" on="0"/>
        <pt x="129" y="540" on="0"/>
        <pt x="249" y="595" on="0"/>
        <pt x="323" y="595" on="1"/>
        <pt x="360" y="595" on="0"/>
        <pt x="417" y="587" on="0"/>
        <pt x="449" y="579" on="1"/>
        <pt x="424" y="422" on="1"/>
        <pt x="403" y="428" on="0"/>
        <pt x="358" y="433" on="0"/>
        <pt x="343" y="433" on="1"/>
        <pt x="309" y="433" on="0"/>
        <pt x="262" y="416" on="0"/>
        <pt x="237" y="383" on="0"/>
        <pt x="237" y="359" on="1"/>
        <pt x="237" y="340" on="0"/>
        <pt x="257" y="307" on="0"/>
        <pt x="292" y="280" on="0"/>
        <pt x="339" y="263" on="0"/>
        <pt x="365" y="260" on="1"/>
      </contour>
    </TTGlyph>
    <TTGlyph name="uni063A" xMin="30" yMin="-394" xMax="699" yMax="857">
      <component glyphName="uni0639" x="0" y="0" flags="0x604"/>
      <component glyphName="uniFBB2" x="228" y="152" flags="0x4"/>
    </TTGlyph>
    <TTGlyph name="uni063B" xMin="34" yMin="-21" xMax="992" yMax="1109">
      <component glyphName="uni06A9" x="0" y="0" flags="0x604"/>
      <component glyphName="uniFBB4.v2" x="557" y="324" flags="0x4"/>
    </TTGlyph>
    <TTGlyph name="uni063B.fina" xMin="34" yMin="-21" xMax="1120" yMax="1109">
      <component glyphName="uniFB8F" x="0" y="0" flags="0x604"/>
      <component glyphName="uniFBB4.v2" x="557" y="324" flags="0x4"/>
    </TTGlyph>
    <TTGlyph name="uni063B.init" xMin="0" yMin="-5" xMax="493" yMax="1091">
      <component glyphName="uniFB90" x="0" y="0" flags="0x604"/>
      <component glyphName="uniFBB4.v2" x="50" y="306" flags="0x4"/>
    </TTGlyph>
    <TTGlyph name="uni063B.medi" xMin="0" yMin="-5" xMax="632" yMax="1093">
      <component glyphName="uniFB91" x="0" y="0" flags="0x604"/>
      <component glyphName="uniFBB4.v2" x="61" y="308" flags="0x4"/>
    </TTGlyph>
    <TTGlyph name="uni063C" xMin="34" yMin="-411" xMax="992" yMax="750">
      <component glyphName="uni06A9" x="0" y="0" flags="0x604"/>
      <component glyphName="uniFBB7" x="264" y="-21" flags="0x4"/>
    </TTGlyph>
    <TTGlyph name="uni063C.fina" xMin="34" yMin="-411" xMax="1120" yMax="750">
      <component glyphName="uniFB8F" x="0" y="0" flags="0x604"/>
      <component glyphName="uniFBB7" x="264" y="-21" flags="0x4"/>
    </TTGlyph>
    <TTGlyph name="uni063C.init" xMin="0" yMin="-390" xMax="493" yMax="750">
      <component glyphName="uniFB90" x="0" y="0" flags="0x604"/>
      <component glyphName="uniFBB7" x="9" y="0" flags="0x4"/>
    </TTGlyph>
    <TTGlyph name="uni063C.medi" xMin="0" yMin="-390" xMax="632" yMax="750">
      <component glyphName="uniFB91" x="0" y="0" flags="0x604"/>
      <component glyphName="uniFBB7" x="9" y="0" flags="0x4"/>
    </TTGlyph>
    <TTGlyph name="uni063D" xMin="24" yMin="-231" xMax="845" yMax="526">
      <component glyphName="uni0649" x="0" y="0" flags="0x604"/>
      <component glyphName="uni065B" x="117" y="-235" flags="0x4"/>
    </TTGlyph>
    <TTGlyph name="uni063D.fina" xMin="24" yMin="-231" xMax="941" yMax="526">
      <component glyphName="uniFEF0" x="0" y="0" flags="0x604"/>
      <component glyphName="uni065B" x="117" y="-235" flags="0x4"/>
    </TTGlyph>
    <TTGlyph name="uni063D.init" xMin="-43" yMin="-237" xMax="290" yMax="831">
      <component glyphName="uniFBE8" x="0" y="0" flags="0x604"/>
      <component glyphName="uni065B" x="15" y="70" flags="0x4"/>
      <component glyphName="uniFBB5" x="-73" y="-5" flags="0x4"/>
    </TTGlyph>
    <TTGlyph name="uni063D.medi" xMin="0" yMin="-237" xMax="510" yMax="703">
      <component glyphName="uniFBE9" x="0" y="0" flags="0x604"/>
      <component glyphName="uni065B" x="75" y="-58" flags="0x4"/>
      <component glyphName="uniFBB5" x="-12" y="-5" flags="0x4"/>
    </TTGlyph>
    <TTGlyph name="uni063E" xMin="24" yMin="-231" xMax="845" yMax="505">
      <component glyphName="uni0649" x="0" y="0" flags="0x604"/>
      <component glyphName="uniFBB4" x="89" y="-185" flags="0x4"/>
    </TTGlyph>
    <TTGlyph name="uni063E.fina" xMin="24" yMin="-231" xMax="941" yMax="499">
      <component glyphName="uniFEF0" x="0" y="0" flags="0x604"/>
      <component glyphName="uniFBB4" x="89" y="-185" flags="0x4"/>
    </TTGlyph>
    <TTGlyph name="uni063E.init" xMin="0" yMin="-237" xMax="367" yMax="760">
      <component glyphName="uni066E.init.wide" x="0" y="0" flags="0x604"/>
      <component glyphName="uniFBB4" x="20" y="76" flags="0x4"/>
      <component glyphName="uniFBB5" x="-2" y="-5" flags="0x4"/>
    </TTGlyph>
    <TTGlyph name="uni063E.medi" xMin="0" yMin="-237" xMax="545" yMax="651">
      <component glyphName="uni066E.medi.wide" x="0" y="0" flags="0x604"/>
      <component glyphName="uniFBB4" x="126" y="-33" flags="0x4"/>
      <component glyphName="uniFBB5" x="84" y="-5" flags="0x4"/>
    </TTGlyph>
    <TTGlyph name="uni063F" xMin="24" yMin="-231" xMax="845" yMax="654">
      <component glyphName="uni0649" x="0" y="0" flags="0x604"/>
      <component glyphName="uniFBB6" x="79" y="-188" flags="0x4"/>
    </TTGlyph>
    <TTGlyph name="uni063F.fina" xMin="24" yMin="-231" xMax="941" yMax="654">
      <component glyphName="uniFEF0" x="0" y="0" flags="0x604"/>
      <component glyphName="uniFBB6" x="79" y="-188" flags="0x4"/>
    </TTGlyph>
    <TTGlyph name="uni063F.init" xMin="0" yMin="-237" xMax="363" yMax="914">
      <component glyphName="uni066E.init.wide" x="0" y="0" flags="0x604"/>
      <component glyphName="uniFBB6" x="9" y="72" flags="0x4"/>
      <component glyphName="uniFBB5" x="-2" y="-5" flags="0x4"/>
    </TTGlyph>
    <TTGlyph name="uni063F.medi" xMin="0" yMin="-237" xMax="545" yMax="786">
      <component glyphName="uni066E.medi.wide" x="0" y="0" flags="0x604"/>
      <component glyphName="uniFBB6" x="48" y="-56" flags="0x4"/>
      <component glyphName="uniFBB5" x="20" y="-5" flags="0x4"/>
    </TTGlyph>
    <TTGlyph name="uni0640" xMin="0" yMin="-5" xMax="400" yMax="163">
      <contour>
        <pt x="0" y="-5" on="1" overlap="1"/>
        <pt x="10" y="163" on="1"/>
        <pt x="310" y="163" on="1"/>
        <pt x="358" y="163" on="0"/>
        <pt x="400" y="115" on="0"/>
        <pt x="400" y="81" on="1"/>
        <pt x="400" y="43" on="0"/>
        <pt x="350" y="-5" on="0"/>
        <pt x="300" y="-5" on="1"/>
      </contour>
    </TTGlyph>
    <TTGlyph name="uni0641" xMin="34" yMin="-21" xMax="1005" yMax="857">
      <component glyphName="uni06A1" x="0" y="0" flags="0x604"/>
      <component glyphName="uniFBB2" x="672" y="152" flags="0x4"/>
    </TTGlyph>
    <TTGlyph name="uni0642" xMin="24" yMin="-188" xMax="824" yMax="701">
      <component glyphName="uni066F" x="0" y="0" flags="0x604"/>
      <component glyphName="uniFBB4" x="431" y="17" flags="0x4"/>
    </TTGlyph>
    <TTGlyph name="uni0643" xMin="34" yMin="-21" xMax="914" yMax="760">
      <contour>
        <pt x="454" y="-21" on="1" overlap="1"/>
        <pt x="480" y="147" on="1"/>
        <pt x="555" y="145" on="0"/>
        <pt x="657" y="158" on="0"/>
        <pt x="718" y="199" on="0"/>
        <pt x="743" y="281" on="0"/>
        <pt x="740" y="349" on="1"/>
        <pt x="724" y="760" on="1"/>
        <pt x="898" y="760" on="1"/>
        <pt x="911" y="332" on="1"/>
        <pt x="914" y="221" on="0"/>
        <pt x="873" y="82" on="0"/>
        <pt x="770" y="7" on="0"/>
        <pt x="590" y="-21" on="0"/>
      </contour>
      <contour>
        <pt x="384" y="224" on="1"/>
        <pt x="354" y="345" on="1"/>
        <pt x="392" y="352" on="0"/>
        <pt x="440" y="366" on="0"/>
        <pt x="463" y="381" on="0"/>
        <pt x="463" y="389" on="1"/>
        <pt x="463" y="396" on="0"/>
        <pt x="444" y="417" on="0"/>
        <pt x="419" y="444" on="0"/>
        <pt x="400" y="478" on="0"/>
        <pt x="400" y="499" on="1"/>
        <pt x="400" y="529" on="0"/>
        <pt x="433" y="579" on="0"/>
        <pt x="501" y="621" on="0"/>
        <pt x="554" y="640" on="1"/>
        <pt x="605" y="531" on="1"/>
        <pt x="566" y="517" on="0"/>
        <pt x="529" y="491" on="0"/>
        <pt x="529" y="480" on="1"/>
        <pt x="529" y="471" on="0"/>
        <pt x="549" y="446" on="0"/>
        <pt x="574" y="416" on="0"/>
        <pt x="594" y="381" on="0"/>
        <pt x="594" y="361" on="1"/>
        <pt x="594" y="343" on="0"/>
        <pt x="581" y="306" on="0"/>
        <pt x="539" y="270" on="0"/>
        <pt x="455" y="238" on="0"/>
      </contour>
      <contour>
        <pt x="454" y="-21" on="1"/>
        <pt x="328" y="-21" on="0"/>
        <pt x="164" y="19" on="0"/>
        <pt x="72" y="87" on="0"/>
        <pt x="34" y="173" on="0"/>
        <pt x="34" y="219" on="1"/>
        <pt x="34" y="259" on="0"/>
        <pt x="47" y="334" on="0"/>
        <pt x="66" y="400" on="0"/>
        <pt x="74" y="425" on="1"/>
        <pt x="221" y="390" on="1"/>
        <pt x="216" y="370" on="0"/>
        <pt x="207" y="328" on="0"/>
        <pt x="201" y="287" on="0"/>
        <pt x="201" y="268" on="1"/>
        <pt x="201" y="232" on="0"/>
        <pt x="252" y="178" on="0"/>
        <pt x="374" y="147" on="0"/>
        <pt x="480" y="147" on="1"/>
        <pt x="500" y="11" on="1"/>
      </contour>
    </TTGlyph>
    <TTGlyph name="uni0644" xMin="24" yMin="-231" xMax="722" yMax="760">
      <contour>
        <pt x="24" y="34" on="1" overlap="1"/>
        <pt x="24" y="62" on="0"/>
        <pt x="32" y="124" on="0"/>
        <pt x="55" y="206" on="0"/>
        <pt x="79" y="264" on="1"/>
        <pt x="235" y="210" on="1"/>
        <pt x="221" y="171" on="0"/>
        <pt x="206" y="122" on="0"/>
        <pt x="201" y="86" on="0"/>
        <pt x="201" y="66" on="1"/>
        <pt x="201" y="29" on="0"/>
        <pt x="240" y="-30" on="0"/>
        <pt x="315" y="-63" on="0"/>
        <pt x="368" y="-63" on="1"/>
        <pt x="425" y="-63" on="0"/>
        <pt x="498" y="-34" on="0"/>
        <pt x="537" y="26" on="0"/>
        <pt x="550" y="118" on="0"/>
        <pt x="548" y="182" on="1"/>
        <pt x="528" y="760" on="1"/>
        <pt x="702" y="760" on="1"/>
        <pt x="720" y="189" on="1"/>
        <pt x="722" y="122" on="0"/>
        <pt x="704" y="-2" on="0"/>
        <pt x="656" y="-108" on="0"/>
        <pt x="573" y="-187" on="0"/>
        <pt x="450" y="-231" on="0"/>
        <pt x="364" y="-231" on="1"/>
        <pt x="293" y="-231" on="0"/>
        <pt x="170" y="-201" on="0"/>
        <pt x="77" y="-137" on="0"/>
        <pt x="24" y="-36" on="0"/>
      </contour>
    </TTGlyph>
    <TTGlyph name="uni0645" xMin="15" yMin="-393" xMax="569" yMax="474">
      <contour>
        <pt x="71" y="-393" on="1" overlap="1"/>
        <pt x="53" y="-321" on="0"/>
        <pt x="28" y="-204" on="0"/>
        <pt x="15" y="-111" on="0"/>
        <pt x="15" y="-75" on="1"/>
        <pt x="15" y="0" on="0"/>
        <pt x="64" y="102" on="0"/>
        <pt x="146" y="165" on="0"/>
        <pt x="244" y="196" on="0"/>
        <pt x="345" y="200" on="0"/>
        <pt x="388" y="192" on="1"/>
        <pt x="388" y="217" on="0"/>
        <pt x="373" y="258" on="0"/>
        <pt x="347" y="289" on="0"/>
        <pt x="313" y="306" on="0"/>
        <pt x="293" y="306" on="1"/>
        <pt x="276" y="306" on="0"/>
        <pt x="243" y="292" on="0"/>
        <pt x="211" y="263" on="0"/>
        <pt x="197" y="240" on="1"/>
        <pt x="65" y="312" on="1"/>
        <pt x="89" y="369" on="0"/>
        <pt x="167" y="441" on="0"/>
        <pt x="262" y="474" on="0"/>
        <pt x="311" y="474" on="1"/>
        <pt x="374" y="474" on="0"/>
        <pt x="470" y="427" on="0"/>
        <pt x="536" y="346" on="0"/>
        <pt x="569" y="244" on="0"/>
        <pt x="569" y="189" on="1"/>
        <pt x="569" y="151" on="0"/>
        <pt x="555" y="81" on="0"/>
        <pt x="537" y="27" on="0"/>
        <pt x="530" y="12" on="1"/>
        <pt x="463" y="28" on="0"/>
        <pt x="354" y="42" on="0"/>
        <pt x="271" y="35" on="0"/>
        <pt x="214" y="6" on="0"/>
        <pt x="186" y="-49" on="0"/>
        <pt x="186" y="-90" on="1"/>
        <pt x="186" y="-120" on="0"/>
        <pt x="200" y="-208" on="0"/>
        <pt x="222" y="-306" on="0"/>
        <pt x="235" y="-352" on="1"/>
      </contour>
    </TTGlyph>
    <TTGlyph name="uni0646" xMin="24" yMin="-231" xMax="727" yMax="642">
      <component glyphName="uni06BA" x="0" y="0" flags="0x604"/>
      <component glyphName="uniFBB2" x="268" y="-63" flags="0x4"/>
    </TTGlyph>
    <TTGlyph name="uni0646.init.short" xMin="0" yMin="-5" xMax="278" yMax="755">
      <component glyphName="uni066E.init.short" x="0" y="0" flags="0x604"/>
      <component glyphName="uniFBB2" x="38" y="50" flags="0x4"/>
    </TTGlyph>
    <TTGlyph name="uni0647" xMin="25" yMin="-5" xMax="494" yMax="593">
      <contour>
        <pt x="262" y="-5" on="1" overlap="1"/>
        <pt x="191" y="-5" on="0"/>
        <pt x="84" y="39" on="0"/>
        <pt x="25" y="127" on="0"/>
        <pt x="25" y="192" on="1"/>
        <pt x="25" y="260" on="0"/>
        <pt x="118" y="414" on="0"/>
        <pt x="224" y="491" on="1"/>
        <pt x="211" y="382" on="1"/>
        <pt x="108" y="465" on="1"/>
        <pt x="220" y="593" on="1"/>
        <pt x="307" y="530" on="0"/>
        <pt x="429" y="411" on="0"/>
        <pt x="494" y="285" on="0"/>
        <pt x="494" y="211" on="1"/>
        <pt x="494" y="178" on="0"/>
        <pt x="469" y="103" on="0"/>
        <pt x="414" y="37" on="0"/>
        <pt x="325" y="-5" on="0"/>
      </contour>
      <contour>
        <pt x="262" y="154" on="1"/>
        <pt x="290" y="154" on="0"/>
        <pt x="322" y="173" on="0"/>
        <pt x="337" y="204" on="0"/>
        <pt x="337" y="220" on="1"/>
        <pt x="337" y="241" on="0"/>
        <pt x="323" y="285" on="0"/>
        <pt x="282" y="333" on="0"/>
        <pt x="240" y="361" on="1"/>
        <pt x="297" y="375" on="1"/>
        <pt x="257" y="349" on="0"/>
        <pt x="207" y="295" on="0"/>
        <pt x="185" y="243" on="0"/>
        <pt x="185" y="219" on="1"/>
        <pt x="185" y="188" on="0"/>
        <pt x="228" y="154" on="0"/>
      </contour>
    </TTGlyph>
    <TTGlyph name="uni0648" xMin="23" yMin="-231" xMax="490" yMax="432">
      <contour>
        <pt x="49" y="-231" on="1" overlap="1"/>
        <pt x="23" y="-78" on="1"/>
        <pt x="98" y="-73" on="0"/>
        <pt x="212" y="-43" on="0"/>
        <pt x="289" y="6" on="0"/>
        <pt x="328" y="78" on="0"/>
        <pt x="328" y="125" on="1"/>
        <pt x="328" y="163" on="0"/>
        <pt x="318" y="222" on="0"/>
        <pt x="301" y="262" on="0"/>
        <pt x="277" y="283" on="0"/>
        <pt x="263" y="283" on="1"/>
        <pt x="247" y="283" on="0"/>
        <pt x="225" y="257" on="0"/>
        <pt x="213" y="220" on="0"/>
        <pt x="213" y="205" on="1"/>
        <pt x="213" y="189" on="0"/>
        <pt x="224" y="167" on="0"/>
        <pt x="249" y="156" on="0"/>
        <pt x="270" y="156" on="1"/>
        <pt x="286" y="156" on="0"/>
        <pt x="329" y="166" on="0"/>
        <pt x="350" y="177" on="1"/>
        <pt x="354" y="62" on="1"/>
        <pt x="330" y="42" on="0"/>
        <pt x="262" y="22" on="0"/>
        <pt x="225" y="22" on="1"/>
        <pt x="192" y="22" on="0"/>
        <pt x="131" y="40" on="0"/>
        <pt x="83" y="76" on="0"/>
        <pt x="55" y="135" on="0"/>
        <pt x="55" y="175" on="1"/>
        <pt x="55" y="220" on="0"/>
        <pt x="84" y="310" on="0"/>
        <pt x="140" y="386" on="0"/>
        <pt x="219" y="432" on="0"/>
        <pt x="268" y="432" on="1"/>
        <pt x="324" y="432" on="0"/>
        <pt x="408" y="381" on="0"/>
        <pt x="463" y="297" on="0"/>
        <pt x="490" y="194" on="0"/>
        <pt x="490" y="141" on="1"/>
        <pt x="490" y="35" on="0"/>
        <pt x="393" y="-125" on="0"/>
        <pt x="198" y="-221" on="0"/>
      </contour>
    </TTGlyph>
    <TTGlyph name="uni0649" xMin="24" yMin="-231" xMax="845" yMax="505">
      <contour>
        <pt x="24" y="35" on="1" overlap="1"/>
        <pt x="24" y="63" on="0"/>
        <pt x="32" y="124" on="0"/>
        <pt x="56" y="206" on="0"/>
        <pt x="80" y="265" on="1"/>
        <pt x="235" y="210" on="1"/>
        <pt x="221" y="171" on="0"/>
        <pt x="206" y="122" on="0"/>
        <pt x="201" y="86" on="0"/>
        <pt x="201" y="66" on="1"/>
        <pt x="201" y="38" on="0"/>
        <pt x="224" y="-9" on="0"/>
        <pt x="270" y="-44" on="0"/>
        <pt x="342" y="-63" on="0"/>
        <pt x="390" y="-63" on="1"/>
        <pt x="434" y="-63" on="0"/>
        <pt x="511" y="-46" on="0"/>
        <pt x="570" y="-19" on="0"/>
        <pt x="604" y="15" on="0"/>
        <pt x="604" y="31" on="1"/>
        <pt x="604" y="41" on="0"/>
        <pt x="574" y="59" on="0"/>
        <pt x="527" y="80" on="0"/>
        <pt x="475" y="105" on="0"/>
        <pt x="428" y="141" on="0"/>
        <pt x="398" y="190" on="0"/>
        <pt x="398" y="223" on="1"/>
        <pt x="398" y="270" on="0"/>
        <pt x="439" y="369" on="0"/>
        <pt x="514" y="453" on="0"/>
        <pt x="618" y="505" on="0"/>
        <pt x="680" y="505" on="1"/>
        <pt x="728" y="505" on="0"/>
        <pt x="811" y="474" on="0"/>
        <pt x="845" y="453" on="1"/>
        <pt x="779" y="311" on="1"/>
        <pt x="758" y="324" on="0"/>
        <pt x="705" y="343" on="0"/>
        <pt x="685" y="343" on="1"/>
        <pt x="662" y="343" on="0"/>
        <pt x="623" y="325" on="0"/>
        <pt x="594" y="297" on="0"/>
        <pt x="578" y="267" on="0"/>
        <pt x="578" y="255" on="1"/>
        <pt x="578" y="244" on="0"/>
        <pt x="610" y="222" on="0"/>
        <pt x="661" y="198" on="0"/>
        <pt x="717" y="169" on="0"/>
        <pt x="768" y="133" on="0"/>
        <pt x="800" y="89" on="0"/>
        <pt x="800" y="62" on="1"/>
        <pt x="800" y="13" on="0"/>
        <pt x="743" y="-89" on="0"/>
        <pt x="633" y="-177" on="0"/>
        <pt x="470" y="-231" on="0"/>
        <pt x="364" y="-231" on="1"/>
        <pt x="293" y="-231" on="0"/>
        <pt x="169" y="-201" on="0"/>
        <pt x="76" y="-136" on="0"/>
        <pt x="24" y="-35" on="0"/>
      </contour>
    </TTGlyph>
    <TTGlyph name="uni0649.init.short" xMin="0" yMin="-5" xMax="278" yMax="387">
      <component glyphName="uni066E.init.short" x="0" y="0" flags="0x604"/>
    </TTGlyph>
    <TTGlyph name="uni0649.medi.tall" xMin="0" yMin="-5" xMax="491" yMax="468">
      <component glyphName="uni066E.medi.tall" x="0" y="0" flags="0x604"/>
    </TTGlyph>
    <TTGlyph name="uni064A" xMin="24" yMin="-463" xMax="845" yMax="505">
      <component glyphName="uni0649" x="0" y="0" flags="0x604"/>
      <component glyphName="uniFBB5" x="197" y="-231" flags="0x4"/>
    </TTGlyph>
    <TTGlyph name="uni064B" xMin="40" yMin="582" xMax="284" yMax="847">
      <component glyphName="uni064E" x="0" y="117" flags="0x604"/>
      <component glyphName="uni064E" x="0" y="0" flags="0x4"/>
    </TTGlyph>
    <TTGlyph name="uni064C" xMin="6" yMin="592" xMax="377" yMax="868">
      <contour>
        <pt x="83" y="592" on="1" overlap="1"/>
        <pt x="68" y="658" on="1"/>
        <pt x="83" y="668" on="0"/>
        <pt x="89" y="693" on="0"/>
        <pt x="78" y="712" on="0"/>
        <pt x="66" y="712" on="1"/>
        <pt x="55" y="712" on="0"/>
        <pt x="38" y="701" on="0"/>
        <pt x="33" y="696" on="1"/>
        <pt x="6" y="752" on="1"/>
        <pt x="18" y="766" on="0"/>
        <pt x="58" y="786" on="0"/>
        <pt x="84" y="786" on="1"/>
        <pt x="119" y="786" on="0"/>
        <pt x="155" y="746" on="0"/>
        <pt x="159" y="690" on="0"/>
        <pt x="146" y="667" on="1"/>
        <pt x="228" y="675" on="0"/>
        <pt x="304" y="729" on="0"/>
        <pt x="304" y="757" on="1"/>
        <pt x="304" y="775" on="0"/>
        <pt x="288" y="797" on="0"/>
        <pt x="274" y="797" on="1"/>
        <pt x="259" y="797" on="0"/>
        <pt x="241" y="778" on="0"/>
        <pt x="241" y="763" on="1"/>
        <pt x="241" y="751" on="0"/>
        <pt x="254" y="731" on="0"/>
        <pt x="276" y="715" on="0"/>
        <pt x="289" y="708" on="1"/>
        <pt x="238" y="666" on="1"/>
        <pt x="220" y="676" on="0"/>
        <pt x="187" y="703" on="0"/>
        <pt x="167" y="743" on="0"/>
        <pt x="167" y="771" on="1"/>
        <pt x="167" y="813" on="0"/>
        <pt x="229" y="868" on="0"/>
        <pt x="276" y="868" on="1"/>
        <pt x="323" y="868" on="0"/>
        <pt x="377" y="808" on="0"/>
        <pt x="377" y="758" on="1"/>
        <pt x="377" y="709" on="0"/>
        <pt x="316" y="638" on="0"/>
        <pt x="186" y="597" on="0"/>
      </contour>
    </TTGlyph>
    <TTGlyph name="uni064D" xMin="40" yMin="-296" xMax="284" yMax="-31">
      <component glyphName="uni064B" x="0" y="-878" flags="0x604"/>
    </TTGlyph>
    <TTGlyph name="uni064E" xMin="40" yMin="582" xMax="284" yMax="730">
      <contour>
        <pt x="40" y="582" on="1" overlap="1"/>
        <pt x="40" y="658" on="1"/>
        <pt x="284" y="730" on="1"/>
        <pt x="284" y="653" on="1"/>
      </contour>
    </TTGlyph>
    <TTGlyph name="uni064F" xMin="17" yMin="582" xMax="294" yMax="858">
      <contour>
        <pt x="30" y="582" on="1" overlap="1"/>
        <pt x="17" y="651" on="1"/>
        <pt x="79" y="652" on="0"/>
        <pt x="170" y="684" on="0"/>
        <pt x="221" y="730" on="0"/>
        <pt x="221" y="752" on="1"/>
        <pt x="221" y="765" on="0"/>
        <pt x="205" y="787" on="0"/>
        <pt x="190" y="787" on="1"/>
        <pt x="177" y="787" on="0"/>
        <pt x="158" y="768" on="0"/>
        <pt x="158" y="753" on="1"/>
        <pt x="158" y="734" on="0"/>
        <pt x="187" y="708" on="0"/>
        <pt x="206" y="698" on="1"/>
        <pt x="155" y="656" on="1"/>
        <pt x="127" y="670" on="0"/>
        <pt x="84" y="721" on="0"/>
        <pt x="84" y="758" on="1"/>
        <pt x="84" y="803" on="0"/>
        <pt x="145" y="858" on="0"/>
        <pt x="191" y="858" on="1"/>
        <pt x="243" y="858" on="0"/>
        <pt x="294" y="794" on="0"/>
        <pt x="294" y="753" on="1"/>
        <pt x="294" y="707" on="0"/>
        <pt x="232" y="634" on="0"/>
        <pt x="114" y="588" on="0"/>
      </contour>
    </TTGlyph>
    <TTGlyph name="uni0650" xMin="40" yMin="-181" xMax="284" yMax="-33">
      <component glyphName="uni064E" x="0" y="-763" flags="0x604"/>
    </TTGlyph>
    <TTGlyph name="uni0651" xMin="26" yMin="591" xMax="313" yMax="818">
      <contour>
        <pt x="101" y="591" on="1" overlap="1"/>
        <pt x="55" y="591" on="0"/>
        <pt x="26" y="651" on="0"/>
        <pt x="26" y="694" on="1"/>
        <pt x="26" y="705" on="0"/>
        <pt x="29" y="730" on="0"/>
        <pt x="32" y="746" on="1"/>
        <pt x="104" y="760" on="1"/>
        <pt x="102" y="743" on="0"/>
        <pt x="99" y="714" on="0"/>
        <pt x="99" y="703" on="1"/>
        <pt x="99" y="684" on="0"/>
        <pt x="107" y="670" on="0"/>
        <pt x="115" y="670" on="1"/>
        <pt x="127" y="670" on="0"/>
        <pt x="138" y="700" on="0"/>
        <pt x="139" y="744" on="1"/>
        <pt x="139" y="774" on="1"/>
        <pt x="199" y="792" on="1"/>
        <pt x="199" y="731" on="1"/>
        <pt x="199" y="714" on="0"/>
        <pt x="207" y="700" on="0"/>
        <pt x="217" y="700" on="1"/>
        <pt x="229" y="700" on="0"/>
        <pt x="237" y="719" on="0"/>
        <pt x="237" y="735" on="1"/>
        <pt x="237" y="752" on="0"/>
        <pt x="229" y="787" on="0"/>
        <pt x="223" y="804" on="1"/>
        <pt x="290" y="818" on="1"/>
        <pt x="300" y="799" on="0"/>
        <pt x="313" y="750" on="0"/>
        <pt x="313" y="730" on="1"/>
        <pt x="313" y="684" on="0"/>
        <pt x="273" y="624" on="0"/>
        <pt x="225" y="624" on="1"/>
        <pt x="202" y="624" on="0"/>
        <pt x="159" y="662" on="0"/>
        <pt x="159" y="700" on="1"/>
        <pt x="182" y="691" on="1"/>
        <pt x="182" y="642" on="0"/>
        <pt x="131" y="591" on="0"/>
      </contour>
    </TTGlyph>
    <TTGlyph name="uni0652" xMin="31" yMin="618" xMax="246" yMax="850">
      <contour>
        <pt x="137" y="618" on="1" overlap="1"/>
        <pt x="85" y="618" on="0"/>
        <pt x="31" y="682" on="0"/>
        <pt x="31" y="725" on="1"/>
        <pt x="31" y="759" on="0"/>
        <pt x="59" y="815" on="0"/>
        <pt x="110" y="850" on="0"/>
        <pt x="142" y="850" on="1"/>
        <pt x="172" y="850" on="0"/>
        <pt x="219" y="816" on="0"/>
        <pt x="246" y="761" on="0"/>
        <pt x="246" y="730" on="1"/>
        <pt x="246" y="684" on="0"/>
        <pt x="185" y="618" on="0"/>
      </contour>
      <contour>
        <pt x="136" y="690" on="1"/>
        <pt x="153" y="690" on="0"/>
        <pt x="178" y="712" on="0"/>
        <pt x="178" y="730" on="1"/>
        <pt x="178" y="749" on="0"/>
        <pt x="152" y="774" on="0"/>
        <pt x="137" y="774" on="1"/>
        <pt x="118" y="774" on="0"/>
        <pt x="97" y="748" on="0"/>
        <pt x="97" y="731" on="1"/>
        <pt x="97" y="713" on="0"/>
        <pt x="119" y="690" on="0"/>
      </contour>
    </TTGlyph>
    <TTGlyph name="uni0653" xMin="0" yMin="605" xMax="353" yMax="736">
      <contour>
        <pt x="250" y="605" on="1" overlap="1"/>
        <pt x="220" y="605" on="0"/>
        <pt x="172" y="626" on="0"/>
        <pt x="132" y="646" on="0"/>
        <pt x="115" y="646" on="1"/>
        <pt x="97" y="646" on="0"/>
        <pt x="68" y="628" on="0"/>
        <pt x="52" y="612" on="1"/>
        <pt x="0" y="664" on="1"/>
        <pt x="30" y="701" on="0"/>
        <pt x="87" y="736" on="0"/>
        <pt x="115" y="736" on="1"/>
        <pt x="140" y="736" on="0"/>
        <pt x="182" y="716" on="0"/>
        <pt x="225" y="696" on="0"/>
        <pt x="250" y="696" on="1"/>
        <pt x="266" y="696" on="0"/>
        <pt x="294" y="707" on="0"/>
        <pt x="314" y="719" on="1"/>
        <pt x="353" y="654" on="1"/>
        <pt x="315" y="621" on="0"/>
        <pt x="266" y="605" on="0"/>
      </contour>
    </TTGlyph>
    <TTGlyph name="uni0654" xMin="27" yMin="578" xMax="252" yMax="844">
      <contour>
        <pt x="45" y="578" on="1" overlap="1"/>
        <pt x="27" y="652" on="1"/>
        <pt x="68" y="658" on="0"/>
        <pt x="105" y="666" on="0"/>
        <pt x="125" y="671" on="1"/>
        <pt x="106" y="640" on="1"/>
        <pt x="80" y="649" on="0"/>
        <pt x="33" y="703" on="0"/>
        <pt x="33" y="738" on="1"/>
        <pt x="33" y="777" on="0"/>
        <pt x="67" y="823" on="0"/>
        <pt x="119" y="844" on="0"/>
        <pt x="147" y="844" on="1"/>
        <pt x="164" y="844" on="0"/>
        <pt x="192" y="840" on="0"/>
        <pt x="203" y="836" on="1"/>
        <pt x="195" y="766" on="1"/>
        <pt x="185" y="768" on="0"/>
        <pt x="164" y="772" on="0"/>
        <pt x="152" y="772" on="1"/>
        <pt x="133" y="772" on="0"/>
        <pt x="111" y="754" on="0"/>
        <pt x="111" y="740" on="1"/>
        <pt x="111" y="721" on="0"/>
        <pt x="135" y="694" on="0"/>
        <pt x="167" y="679" on="0"/>
        <pt x="178" y="678" on="1"/>
        <pt x="133" y="674" on="1"/>
        <pt x="160" y="681" on="0"/>
        <pt x="208" y="696" on="0"/>
        <pt x="230" y="704" on="1"/>
        <pt x="252" y="633" on="1"/>
        <pt x="226" y="624" on="0"/>
        <pt x="158" y="603" on="0"/>
        <pt x="83" y="585" on="0"/>
      </contour>
    </TTGlyph>
    <TTGlyph name="uni0655" xMin="27" yMin="-303" xMax="252" yMax="-37">
      <component glyphName="uni0654" x="0" y="-881" flags="0x604"/>
    </TTGlyph>
    <TTGlyph name="uni0656" xMin="39" yMin="-230" xMax="160" yMax="-57">
      <component glyphName="uni0670" x="-6" y="-823" flags="0x604"/>
    </TTGlyph>
    <TTGlyph name="uni0657" xMin="38" yMin="591" xMax="315" yMax="867">
      <component glyphName="uni064F" x="332" y="1449" scale="-1.0" flags="0x404"/>
    </TTGlyph>
    <TTGlyph name="uni0658" xMin="5" yMin="596" xMax="234" yMax="750">
      <contour>
        <pt x="116" y="596" on="1" overlap="1"/>
        <pt x="63" y="596" on="0"/>
        <pt x="5" y="666" on="0"/>
        <pt x="15" y="741" on="1"/>
        <pt x="85" y="734" on="1"/>
        <pt x="81" y="701" on="0"/>
        <pt x="94" y="666" on="0"/>
        <pt x="117" y="666" on="1"/>
        <pt x="139" y="666" on="0"/>
        <pt x="161" y="704" on="0"/>
        <pt x="159" y="750" on="1"/>
        <pt x="230" y="747" on="1"/>
        <pt x="234" y="669" on="0"/>
        <pt x="170" y="596" on="0"/>
      </contour>
    </TTGlyph>
    <TTGlyph name="uni0659" xMin="30" yMin="633" xMax="284" yMax="697">
      <contour>
        <pt x="30" y="633" on="1" overlap="1"/>
        <pt x="30" y="696" on="1"/>
        <pt x="284" y="697" on="1"/>
        <pt x="284" y="633" on="1"/>
      </contour>
    </TTGlyph>
    <TTGlyph name="uni065A" xMin="0" yMin="555" xMax="256" yMax="770">
      <contour>
        <pt x="93" y="555" on="1" overlap="1"/>
        <pt x="85" y="570" on="0"/>
        <pt x="61" y="617" on="0"/>
        <pt x="34" y="669" on="0"/>
        <pt x="9" y="716" on="0"/>
        <pt x="0" y="732" on="1"/>
        <pt x="66" y="767" on="1"/>
        <pt x="73" y="754" on="0"/>
        <pt x="95" y="709" on="0"/>
        <pt x="119" y="659" on="0"/>
        <pt x="142" y="613" on="0"/>
        <pt x="150" y="599" on="1"/>
        <pt x="173" y="561" on="1"/>
      </contour>
      <contour>
        <pt x="173" y="561" on="1"/>
        <pt x="112" y="581" on="1"/>
        <pt x="119" y="598" on="0"/>
        <pt x="142" y="655" on="0"/>
        <pt x="166" y="715" on="0"/>
        <pt x="186" y="762" on="0"/>
        <pt x="190" y="770" on="1"/>
        <pt x="256" y="742" on="1"/>
        <pt x="252" y="732" on="0"/>
        <pt x="230" y="685" on="0"/>
        <pt x="203" y="629" on="0"/>
        <pt x="179" y="577" on="0"/>
      </contour>
    </TTGlyph>
    <TTGlyph name="uni065B" xMin="0" yMin="546" xMax="256" yMax="761">
      <contour>
        <pt x="163" y="761" on="1" overlap="1"/>
        <pt x="171" y="746" on="0"/>
        <pt x="195" y="699" on="0"/>
        <pt x="222" y="647" on="0"/>
        <pt x="247" y="600" on="0"/>
        <pt x="256" y="584" on="1"/>
        <pt x="190" y="549" on="1"/>
        <pt x="183" y="562" on="0"/>
        <pt x="161" y="607" on="0"/>
        <pt x="137" y="657" on="0"/>
        <pt x="114" y="703" on="0"/>
        <pt x="106" y="717" on="1"/>
        <pt x="83" y="755" on="1"/>
      </contour>
      <contour>
        <pt x="83" y="755" on="1"/>
        <pt x="144" y="735" on="1"/>
        <pt x="137" y="718" on="0"/>
        <pt x="114" y="661" on="0"/>
        <pt x="90" y="601" on="0"/>
        <pt x="70" y="554" on="0"/>
        <pt x="66" y="546" on="1"/>
        <pt x="0" y="574" on="1"/>
        <pt x="5" y="584" on="0"/>
        <pt x="26" y="631" on="0"/>
        <pt x="53" y="687" on="0"/>
        <pt x="77" y="739" on="0"/>
      </contour>
    </TTGlyph>
    <TTGlyph name="uni065C" xMin="20" yMin="-294" xMax="206" yMax="-108">
      <contour>
        <pt x="113" y="-294" on="1" overlap="1"/>
        <pt x="73" y="-294" on="0"/>
        <pt x="20" y="-241" on="0"/>
        <pt x="20" y="-201" on="1"/>
        <pt x="20" y="-160" on="0"/>
        <pt x="73" y="-108" on="0"/>
        <pt x="113" y="-108" on="1"/>
        <pt x="153" y="-108" on="0"/>
        <pt x="206" y="-160" on="0"/>
        <pt x="206" y="-201" on="1"/>
        <pt x="206" y="-241" on="0"/>
        <pt x="153" y="-294" on="0"/>
      </contour>
    </TTGlyph>
    <TTGlyph name="uni065D" xMin="60" yMin="572" xMax="337" yMax="848">
      <component glyphName="uni064F" x="354" y="-10" scalex="-1.0" scaley="1.0" flags="0x404"/>
    </TTGlyph>
    <TTGlyph name="uni065E" xMin="40" yMin="580" xMax="290" yMax="922">
      <contour>
        <pt x="40" y="615" on="1" overlap="1"/>
        <pt x="40" y="700" on="1"/>
        <pt x="286" y="885" on="1"/>
        <pt x="286" y="799" on="1"/>
      </contour>
      <contour>
        <pt x="231" y="580" on="1"/>
        <pt x="206" y="580" on="0"/>
        <pt x="171" y="615" on="0"/>
        <pt x="171" y="639" on="1"/>
        <pt x="171" y="664" on="0"/>
        <pt x="206" y="701" on="0"/>
        <pt x="231" y="701" on="1"/>
        <pt x="256" y="701" on="0"/>
        <pt x="290" y="664" on="0"/>
        <pt x="290" y="639" on="1"/>
        <pt x="290" y="615" on="0"/>
        <pt x="256" y="580" on="0"/>
      </contour>
      <contour>
        <pt x="106" y="801" on="1"/>
        <pt x="81" y="801" on="0"/>
        <pt x="46" y="837" on="0"/>
        <pt x="46" y="861" on="1"/>
        <pt x="46" y="886" on="0"/>
        <pt x="81" y="922" on="0"/>
        <pt x="106" y="922" on="1"/>
        <pt x="130" y="922" on="0"/>
        <pt x="165" y="886" on="0"/>
        <pt x="165" y="861" on="1"/>
        <pt x="165" y="837" on="0"/>
        <pt x="130" y="801" on="0"/>
      </contour>
    </TTGlyph>
    <TTGlyph name="uni065F" xMin="0" yMin="-316" xMax="328" yMax="-60">
      <contour>
        <pt x="63" y="-316" on="1" overlap="1"/>
        <pt x="0" y="-272" on="1"/>
        <pt x="12" y="-244" on="0"/>
        <pt x="57" y="-219" on="0"/>
        <pt x="75" y="-219" on="1"/>
        <pt x="95" y="-219" on="0"/>
        <pt x="132" y="-241" on="0"/>
        <pt x="143" y="-241" on="1"/>
        <pt x="159" y="-241" on="0"/>
        <pt x="184" y="-239" on="0"/>
        <pt x="193" y="-235" on="1"/>
        <pt x="177" y="-261" on="1"/>
        <pt x="148" y="-250" on="0"/>
        <pt x="109" y="-195" on="0"/>
        <pt x="109" y="-162" on="1"/>
        <pt x="109" y="-116" on="0"/>
        <pt x="173" y="-60" on="0"/>
        <pt x="222" y="-60" on="1"/>
        <pt x="239" y="-60" on="0"/>
        <pt x="268" y="-64" on="0"/>
        <pt x="279" y="-68" on="1"/>
        <pt x="271" y="-138" on="1"/>
        <pt x="261" y="-136" on="0"/>
        <pt x="243" y="-132" on="0"/>
        <pt x="232" y="-132" on="1"/>
        <pt x="210" y="-132" on="0"/>
        <pt x="187" y="-148" on="0"/>
        <pt x="187" y="-164" on="1"/>
        <pt x="187" y="-183" on="0"/>
        <pt x="212" y="-211" on="0"/>
        <pt x="246" y="-226" on="0"/>
        <pt x="257" y="-226" on="1"/>
        <pt x="221" y="-230" on="1"/>
        <pt x="247" y="-223" on="0"/>
        <pt x="286" y="-206" on="0"/>
        <pt x="305" y="-199" on="1"/>
        <pt x="328" y="-267" on="1"/>
        <pt x="320" y="-271" on="0"/>
        <pt x="280" y="-287" on="0"/>
        <pt x="230" y="-303" on="0"/>
        <pt x="185" y="-315" on="0"/>
        <pt x="172" y="-315" on="1"/>
        <pt x="141" y="-315" on="0"/>
        <pt x="106" y="-293" on="0"/>
        <pt x="96" y="-293" on="1"/>
        <pt x="87" y="-293" on="0"/>
        <pt x="72" y="-304" on="0"/>
      </contour>
    </TTGlyph>
    <TTGlyph name="uni0660" xMin="50" yMin="169" xMax="311" yMax="431">
      <contour>
        <pt x="186" y="169" on="1" overlap="1"/>
        <pt x="160" y="197" on="0"/>
        <pt x="119" y="240" on="0"/>
        <pt x="77" y="279" on="0"/>
        <pt x="50" y="301" on="1"/>
        <pt x="172" y="431" on="1"/>
        <pt x="213" y="401" on="0"/>
        <pt x="284" y="329" on="0"/>
        <pt x="311" y="295" on="1"/>
      </contour>
    </TTGlyph>
    <TTGlyph name="uni0661" xMin="35" yMin="-7" xMax="300" yMax="692">
      <contour>
        <pt x="300" y="0" on="1" overlap="1"/>
        <pt x="124" y="-7" on="1"/>
        <pt x="124" y="9" on="0"/>
        <pt x="119" y="87" on="0"/>
        <pt x="109" y="197" on="0"/>
        <pt x="94" y="326" on="0"/>
        <pt x="74" y="462" on="0"/>
        <pt x="50" y="592" on="0"/>
        <pt x="35" y="646" on="1"/>
        <pt x="211" y="692" on="1"/>
        <pt x="232" y="626" on="0"/>
        <pt x="262" y="472" on="0"/>
        <pt x="283" y="314" on="0"/>
        <pt x="295" y="166" on="0"/>
        <pt x="300" y="42" on="0"/>
      </contour>
    </TTGlyph>
    <TTGlyph name="uni0662" xMin="35" yMin="-7" xMax="561" yMax="692">
      <contour>
        <pt x="296" y="0" on="1" overlap="1"/>
        <pt x="124" y="-7" on="1"/>
        <pt x="124" y="9" on="0"/>
        <pt x="119" y="87" on="0"/>
        <pt x="109" y="197" on="0"/>
        <pt x="94" y="326" on="0"/>
        <pt x="74" y="462" on="0"/>
        <pt x="50" y="592" on="0"/>
        <pt x="35" y="646" on="1"/>
        <pt x="207" y="692" on="1"/>
        <pt x="228" y="626" on="0"/>
        <pt x="258" y="472" on="0"/>
        <pt x="279" y="314" on="0"/>
        <pt x="291" y="166" on="0"/>
        <pt x="296" y="42" on="0"/>
      </contour>
      <contour>
        <pt x="315" y="405" on="1"/>
        <pt x="285" y="405" on="0"/>
        <pt x="232" y="414" on="0"/>
        <pt x="194" y="426" on="1"/>
        <pt x="194" y="585" on="1"/>
        <pt x="223" y="575" on="0"/>
        <pt x="286" y="566" on="0"/>
        <pt x="307" y="566" on="1"/>
        <pt x="334" y="566" on="0"/>
        <pt x="370" y="580" on="0"/>
        <pt x="392" y="608" on="0"/>
        <pt x="404" y="650" on="0"/>
        <pt x="407" y="679" on="1"/>
        <pt x="561" y="658" on="1"/>
        <pt x="553" y="575" on="0"/>
        <pt x="501" y="462" on="0"/>
        <pt x="399" y="405" on="0"/>
      </contour>
    </TTGlyph>
    <TTGlyph name="uni0663" xMin="35" yMin="-7" xMax="656" yMax="692">
      <contour>
        <pt x="296" y="0" on="1" overlap="1"/>
        <pt x="124" y="-7" on="1"/>
        <pt x="124" y="9" on="0"/>
        <pt x="119" y="87" on="0"/>
        <pt x="109" y="197" on="0"/>
        <pt x="94" y="326" on="0"/>
        <pt x="74" y="462" on="0"/>
        <pt x="50" y="592" on="0"/>
        <pt x="35" y="646" on="1"/>
        <pt x="207" y="692" on="1"/>
        <pt x="228" y="626" on="0"/>
        <pt x="258" y="472" on="0"/>
        <pt x="279" y="314" on="0"/>
        <pt x="291" y="166" on="0"/>
        <pt x="296" y="42" on="0"/>
      </contour>
      <contour>
        <pt x="300" y="401" on="1"/>
        <pt x="271" y="401" on="0"/>
        <pt x="232" y="425" on="0"/>
        <pt x="211" y="460" on="0"/>
        <pt x="208" y="477" on="1"/>
        <pt x="207" y="692" on="1"/>
        <pt x="245" y="577" on="1"/>
        <pt x="246" y="574" on="0"/>
        <pt x="254" y="564" on="0"/>
        <pt x="268" y="555" on="0"/>
        <pt x="277" y="555" on="1"/>
        <pt x="288" y="555" on="0"/>
        <pt x="304" y="571" on="0"/>
        <pt x="316" y="616" on="0"/>
        <pt x="321" y="657" on="1"/>
        <pt x="446" y="642" on="1"/>
        <pt x="444" y="628" on="0"/>
        <pt x="441" y="606" on="0"/>
        <pt x="440" y="592" on="0"/>
        <pt x="440" y="587" on="1"/>
        <pt x="440" y="570" on="0"/>
        <pt x="461" y="559" on="0"/>
        <pt x="474" y="559" on="1"/>
        <pt x="490" y="559" on="0"/>
        <pt x="506" y="569" on="0"/>
        <pt x="511" y="585" on="0"/>
        <pt x="511" y="594" on="1"/>
        <pt x="511" y="607" on="0"/>
        <pt x="506" y="634" on="0"/>
        <pt x="501" y="648" on="1"/>
        <pt x="630" y="684" on="1"/>
        <pt x="646" y="642" on="0"/>
        <pt x="656" y="582" on="0"/>
        <pt x="656" y="561" on="1"/>
        <pt x="656" y="514" on="0"/>
        <pt x="618" y="443" on="0"/>
        <pt x="548" y="405" on="0"/>
        <pt x="499" y="405" on="1"/>
        <pt x="443" y="405" on="0"/>
        <pt x="387" y="453" on="0"/>
        <pt x="380" y="487" on="1"/>
        <pt x="400" y="487" on="1"/>
        <pt x="387" y="445" on="0"/>
        <pt x="337" y="401" on="0"/>
      </contour>
    </TTGlyph>
    <TTGlyph name="uni0664" xMin="40" yMin="-6" xMax="489" yMax="696">
      <contour>
        <pt x="452" y="183" on="1" overlap="1"/>
        <pt x="489" y="37" on="1"/>
        <pt x="452" y="16" on="0"/>
        <pt x="352" y="-6" on="0"/>
        <pt x="301" y="-6" on="1"/>
        <pt x="214" y="-6" on="0"/>
        <pt x="98" y="44" on="0"/>
        <pt x="40" y="124" on="0"/>
        <pt x="40" y="170" on="1"/>
        <pt x="40" y="217" on="0"/>
        <pt x="95" y="293" on="0"/>
        <pt x="135" y="322" on="1"/>
        <pt x="105" y="338" on="0"/>
        <pt x="66" y="380" on="0"/>
        <pt x="46" y="426" on="0"/>
        <pt x="46" y="447" on="1"/>
        <pt x="46" y="468" on="0"/>
        <pt x="65" y="533" on="0"/>
        <pt x="122" y="604" on="0"/>
        <pt x="234" y="672" on="0"/>
        <pt x="327" y="696" on="1"/>
        <pt x="378" y="542" on="1"/>
        <pt x="340" y="534" on="0"/>
        <pt x="277" y="511" on="0"/>
        <pt x="231" y="485" on="0"/>
        <pt x="206" y="457" on="0"/>
        <pt x="206" y="445" on="1"/>
        <pt x="206" y="435" on="0"/>
        <pt x="226" y="419" on="0"/>
        <pt x="261" y="409" on="0"/>
        <pt x="305" y="409" on="0"/>
        <pt x="329" y="415" on="1"/>
        <pt x="346" y="282" on="1"/>
        <pt x="314" y="270" on="0"/>
        <pt x="255" y="244" on="0"/>
        <pt x="218" y="215" on="0"/>
        <pt x="218" y="196" on="1"/>
        <pt x="218" y="181" on="0"/>
        <pt x="247" y="162" on="0"/>
        <pt x="289" y="154" on="0"/>
        <pt x="308" y="154" on="1"/>
        <pt x="332" y="154" on="0"/>
        <pt x="385" y="163" on="0"/>
        <pt x="435" y="177" on="0"/>
      </contour>
    </TTGlyph>
    <TTGlyph name="uni0665" xMin="50" yMin="0" xMax="517" yMax="547">
      <contour>
        <pt x="284" y="0" on="1" overlap="1"/>
        <pt x="210" y="0" on="0"/>
        <pt x="105" y="49" on="0"/>
        <pt x="50" y="156" on="0"/>
        <pt x="50" y="242" on="1"/>
        <pt x="50" y="304" on="0"/>
        <pt x="84" y="414" on="0"/>
        <pt x="147" y="498" on="0"/>
        <pt x="235" y="547" on="0"/>
        <pt x="289" y="547" on="1"/>
        <pt x="346" y="547" on="0"/>
        <pt x="431" y="497" on="0"/>
        <pt x="488" y="412" on="0"/>
        <pt x="517" y="308" on="0"/>
        <pt x="517" y="254" on="1"/>
        <pt x="517" y="175" on="0"/>
        <pt x="461" y="61" on="0"/>
        <pt x="357" y="0" on="0"/>
      </contour>
      <contour>
        <pt x="281" y="162" on="1"/>
        <pt x="296" y="162" on="0"/>
        <pt x="321" y="173" on="0"/>
        <pt x="339" y="194" on="0"/>
        <pt x="348" y="223" on="0"/>
        <pt x="348" y="241" on="1"/>
        <pt x="348" y="266" on="0"/>
        <pt x="340" y="315" on="0"/>
        <pt x="324" y="356" on="0"/>
        <pt x="300" y="381" on="0"/>
        <pt x="283" y="381" on="1"/>
        <pt x="264" y="381" on="0"/>
        <pt x="237" y="352" on="0"/>
        <pt x="220" y="308" on="0"/>
        <pt x="213" y="260" on="0"/>
        <pt x="213" y="241" on="1"/>
        <pt x="213" y="211" on="0"/>
        <pt x="232" y="177" on="0"/>
        <pt x="263" y="162" on="0"/>
      </contour>
    </TTGlyph>
    <TTGlyph name="uni0666" xMin="5" yMin="0" xMax="513" yMax="699">
      <contour>
        <pt x="335" y="0" on="1" overlap="1"/>
        <pt x="329" y="29" on="0"/>
        <pt x="306" y="153" on="0"/>
        <pt x="283" y="320" on="0"/>
        <pt x="267" y="510" on="0"/>
        <pt x="267" y="604" on="1"/>
        <pt x="299" y="652" on="1"/>
        <pt x="439" y="683" on="1"/>
        <pt x="439" y="626" on="0"/>
        <pt x="447" y="497" on="0"/>
        <pt x="460" y="358" on="0"/>
        <pt x="479" y="216" on="0"/>
        <pt x="501" y="76" on="0"/>
        <pt x="513" y="10" on="1"/>
      </contour>
      <contour>
        <pt x="343" y="505" on="1"/>
        <pt x="316" y="495" on="0"/>
        <pt x="228" y="490" on="0"/>
        <pt x="129" y="497" on="0"/>
        <pt x="37" y="516" on="0"/>
        <pt x="5" y="531" on="1"/>
        <pt x="37" y="699" on="1"/>
        <pt x="74" y="686" on="0"/>
        <pt x="166" y="671" on="0"/>
        <pt x="270" y="666" on="0"/>
        <pt x="382" y="673" on="0"/>
        <pt x="439" y="683" on="1"/>
      </contour>
    </TTGlyph>
    <TTGlyph name="uni0667" xMin="5" yMin="-10" xMax="627" yMax="699">
      <contour>
        <pt x="238" y="-10" on="1" overlap="1"/>
        <pt x="303" y="141" on="1"/>
        <pt x="318" y="222" on="0"/>
        <pt x="358" y="380" on="0"/>
        <pt x="403" y="525" on="0"/>
        <pt x="450" y="650" on="0"/>
        <pt x="471" y="699" on="1"/>
        <pt x="627" y="633" on="1"/>
        <pt x="600" y="575" on="0"/>
        <pt x="547" y="445" on="0"/>
        <pt x="497" y="310" on="0"/>
        <pt x="453" y="179" on="0"/>
        <pt x="418" y="60" on="0"/>
        <pt x="405" y="12" on="1"/>
      </contour>
      <contour>
        <pt x="237" y="-10" on="1"/>
        <pt x="222" y="39" on="0"/>
        <pt x="180" y="168" on="0"/>
        <pt x="131" y="313" on="0"/>
        <pt x="79" y="458" on="0"/>
        <pt x="28" y="589" on="0"/>
        <pt x="5" y="639" on="1"/>
        <pt x="165" y="699" on="1"/>
        <pt x="186" y="648" on="0"/>
        <pt x="229" y="522" on="0"/>
        <pt x="273" y="383" on="0"/>
        <pt x="315" y="241" on="0"/>
        <pt x="335" y="173" on="1"/>
        <pt x="401" y="12" on="1"/>
      </contour>
    </TTGlyph>
    <TTGlyph name="uni0668" xMin="5" yMin="-19" xMax="627" yMax="689">
      <contour>
        <pt x="161" y="-19" on="1" overlap="1"/>
        <pt x="5" y="47" on="1"/>
        <pt x="32" y="105" on="0"/>
        <pt x="85" y="233" on="0"/>
        <pt x="135" y="364" on="0"/>
        <pt x="179" y="492" on="0"/>
        <pt x="214" y="608" on="0"/>
        <pt x="227" y="656" on="1"/>
        <pt x="396" y="689" on="1"/>
        <pt x="336" y="538" on="1"/>
        <pt x="321" y="456" on="0"/>
        <pt x="280" y="299" on="0"/>
        <pt x="232" y="155" on="0"/>
        <pt x="183" y="30" on="0"/>
      </contour>
      <contour>
        <pt x="467" y="-19" on="1"/>
        <pt x="450" y="21" on="0"/>
        <pt x="416" y="119" on="0"/>
        <pt x="381" y="227" on="0"/>
        <pt x="346" y="340" on="0"/>
        <pt x="313" y="453" on="0"/>
        <pt x="297" y="506" on="1"/>
        <pt x="231" y="656" on="1"/>
        <pt x="397" y="689" on="1"/>
        <pt x="412" y="640" on="0"/>
        <pt x="453" y="511" on="0"/>
        <pt x="502" y="367" on="0"/>
        <pt x="554" y="222" on="0"/>
        <pt x="605" y="91" on="0"/>
        <pt x="627" y="41" on="1"/>
      </contour>
    </TTGlyph>
    <TTGlyph name="uni0669" xMin="15" yMin="0" xMax="538" yMax="685">
      <contour>
        <pt x="372" y="0" on="1" overlap="1"/>
        <pt x="359" y="50" on="0"/>
        <pt x="343" y="150" on="0"/>
        <pt x="335" y="250" on="0"/>
        <pt x="328" y="352" on="0"/>
        <pt x="323" y="403" on="1"/>
        <pt x="321" y="429" on="0"/>
        <pt x="313" y="467" on="0"/>
        <pt x="301" y="493" on="0"/>
        <pt x="284" y="510" on="0"/>
        <pt x="263" y="517" on="0"/>
        <pt x="249" y="517" on="1"/>
        <pt x="233" y="517" on="0"/>
        <pt x="209" y="500" on="0"/>
        <pt x="197" y="473" on="0"/>
        <pt x="197" y="458" on="1"/>
        <pt x="197" y="440" on="0"/>
        <pt x="211" y="412" on="0"/>
        <pt x="238" y="396" on="0"/>
        <pt x="257" y="396" on="1"/>
        <pt x="284" y="396" on="0"/>
        <pt x="331" y="407" on="0"/>
        <pt x="356" y="419" on="1"/>
        <pt x="382" y="262" on="1"/>
        <pt x="345" y="246" on="0"/>
        <pt x="274" y="231" on="0"/>
        <pt x="241" y="231" on="1"/>
        <pt x="171" y="231" on="0"/>
        <pt x="70" y="276" on="0"/>
        <pt x="15" y="366" on="0"/>
        <pt x="15" y="431" on="1"/>
        <pt x="15" y="499" on="0"/>
        <pt x="81" y="615" on="0"/>
        <pt x="195" y="685" on="0"/>
        <pt x="268" y="685" on="1"/>
        <pt x="330" y="685" on="0"/>
        <pt x="415" y="641" on="0"/>
        <pt x="467" y="563" on="0"/>
        <pt x="493" y="463" on="0"/>
        <pt x="496" y="407" on="1"/>
        <pt x="499" y="357" on="0"/>
        <pt x="506" y="255" on="0"/>
        <pt x="516" y="158" on="0"/>
        <pt x="529" y="67" on="0"/>
        <pt x="538" y="28" on="1"/>
      </contour>
    </TTGlyph>
    <TTGlyph name="uni066A" xMin="30" yMin="-39" xMax="564" yMax="704">
      <contour>
        <pt x="198" y="-39" on="1" overlap="1"/>
        <pt x="64" y="17" on="1"/>
        <pt x="381" y="704" on="1"/>
        <pt x="517" y="645" on="1"/>
      </contour>
      <contour>
        <pt x="463" y="-24" on="1"/>
        <pt x="429" y="11" on="0"/>
        <pt x="382" y="59" on="0"/>
        <pt x="347" y="87" on="1"/>
        <pt x="446" y="193" on="1"/>
        <pt x="480" y="167" on="0"/>
        <pt x="541" y="106" on="0"/>
        <pt x="564" y="77" on="1"/>
      </contour>
      <contour>
        <pt x="146" y="484" on="1"/>
        <pt x="112" y="519" on="0"/>
        <pt x="65" y="567" on="0"/>
        <pt x="30" y="595" on="1"/>
        <pt x="129" y="701" on="1"/>
        <pt x="163" y="675" on="0"/>
        <pt x="224" y="614" on="0"/>
        <pt x="247" y="585" on="1"/>
      </contour>
    </TTGlyph>
    <TTGlyph name="uni066B" xMin="40" yMin="-155" xMax="242" yMax="185">
      <contour>
        <pt x="48" y="-155" on="1" overlap="1"/>
        <pt x="105" y="0" on="1"/>
        <pt x="77" y="6" on="0"/>
        <pt x="40" y="52" on="0"/>
        <pt x="40" y="84" on="1"/>
        <pt x="40" y="110" on="0"/>
        <pt x="67" y="156" on="0"/>
        <pt x="113" y="185" on="0"/>
        <pt x="140" y="185" on="1"/>
        <pt x="167" y="185" on="0"/>
        <pt x="213" y="158" on="0"/>
        <pt x="242" y="112" on="0"/>
        <pt x="242" y="83" on="1"/>
        <pt x="242" y="58" on="0"/>
        <pt x="217" y="-10" on="0"/>
        <pt x="182" y="-79" on="0"/>
        <pt x="147" y="-138" on="0"/>
        <pt x="138" y="-155" on="1"/>
      </contour>
    </TTGlyph>
    <TTGlyph name="uni066C" xMin="40" yMin="0" xMax="242" yMax="340">
      <contour>
        <pt x="142" y="0" on="1" overlap="1"/>
        <pt x="116" y="0" on="0"/>
        <pt x="69" y="27" on="0"/>
        <pt x="40" y="73" on="0"/>
        <pt x="40" y="102" on="1"/>
        <pt x="40" y="128" on="0"/>
        <pt x="65" y="195" on="0"/>
        <pt x="100" y="264" on="0"/>
        <pt x="135" y="323" on="0"/>
        <pt x="144" y="340" on="1"/>
        <pt x="234" y="340" on="1"/>
        <pt x="177" y="185" on="1"/>
        <pt x="206" y="179" on="0"/>
        <pt x="242" y="133" on="0"/>
        <pt x="242" y="101" on="1"/>
        <pt x="242" y="75" on="0"/>
        <pt x="215" y="29" on="0"/>
        <pt x="170" y="0" on="0"/>
      </contour>
    </TTGlyph>
    <TTGlyph name="uni066D" xMin="10" yMin="-1" xMax="488" yMax="458">
      <contour>
        <pt x="409" y="-1" on="1" overlap="1"/>
        <pt x="246" y="93" on="1"/>
        <pt x="91" y="0" on="1"/>
        <pt x="85" y="4" on="1"/>
        <pt x="131" y="179" on="1"/>
        <pt x="10" y="279" on="1"/>
        <pt x="12" y="287" on="1"/>
        <pt x="178" y="307" on="1"/>
        <pt x="246" y="458" on="1"/>
        <pt x="253" y="458" on="1"/>
        <pt x="318" y="307" on="1"/>
        <pt x="486" y="287" on="1"/>
        <pt x="488" y="279" on="1"/>
        <pt x="363" y="178" on="1"/>
        <pt x="414" y="3" on="1"/>
      </contour>
    </TTGlyph>
    <TTGlyph name="uni066E" xMin="58" yMin="-21" xMax="1013" yMax="472">
      <contour>
        <pt x="478" y="-21" on="1" overlap="1"/>
        <pt x="504" y="147" on="1"/>
        <pt x="597" y="147" on="0"/>
        <pt x="725" y="159" on="0"/>
        <pt x="805" y="183" on="0"/>
        <pt x="841" y="219" on="0"/>
        <pt x="841" y="242" on="1"/>
        <pt x="841" y="283" on="0"/>
        <pt x="819" y="377" on="0"/>
        <pt x="802" y="426" on="1"/>
        <pt x="962" y="472" on="1"/>
        <pt x="975" y="437" on="0"/>
        <pt x="998" y="356" on="0"/>
        <pt x="1013" y="273" on="0"/>
        <pt x="1013" y="234" on="1"/>
        <pt x="1013" y="171" on="0"/>
        <pt x="956" y="75" on="0"/>
        <pt x="830" y="11" on="0"/>
        <pt x="626" y="-21" on="0"/>
      </contour>
      <contour>
        <pt x="478" y="-21" on="1"/>
        <pt x="352" y="-21" on="0"/>
        <pt x="188" y="19" on="0"/>
        <pt x="96" y="87" on="0"/>
        <pt x="58" y="173" on="0"/>
        <pt x="58" y="219" on="1"/>
        <pt x="58" y="259" on="0"/>
        <pt x="71" y="334" on="0"/>
        <pt x="90" y="400" on="0"/>
        <pt x="98" y="425" on="1"/>
        <pt x="245" y="390" on="1"/>
        <pt x="240" y="370" on="0"/>
        <pt x="231" y="328" on="0"/>
        <pt x="225" y="287" on="0"/>
        <pt x="225" y="268" on="1"/>
        <pt x="225" y="232" on="0"/>
        <pt x="276" y="178" on="0"/>
        <pt x="398" y="147" on="0"/>
        <pt x="504" y="147" on="1"/>
        <pt x="524" y="11" on="1"/>
      </contour>
    </TTGlyph>
    <TTGlyph name="uni066E.fina" xMin="58" yMin="-21" xMax="1292" yMax="425">
      <contour>
        <pt x="478" y="-21" on="1" overlap="1"/>
        <pt x="504" y="147" on="1"/>
        <pt x="621" y="147" on="0"/>
        <pt x="776" y="177" on="0"/>
        <pt x="875" y="233" on="0"/>
        <pt x="937" y="309" on="0"/>
        <pt x="961" y="355" on="1"/>
        <pt x="1099" y="296" on="1"/>
        <pt x="1091" y="276" on="0"/>
        <pt x="1082" y="244" on="0"/>
        <pt x="1082" y="229" on="1"/>
        <pt x="1082" y="209" on="0"/>
        <pt x="1110" y="179" on="0"/>
        <pt x="1163" y="163" on="0"/>
        <pt x="1202" y="163" on="1"/>
        <pt x="1250" y="163" on="0"/>
        <pt x="1292" y="115" on="0"/>
        <pt x="1292" y="81" on="1"/>
        <pt x="1292" y="43" on="0"/>
        <pt x="1242" y="-5" on="0"/>
        <pt x="1192" y="-5" on="1"/>
        <pt x="1120" y="-5" on="0"/>
        <pt x="1021" y="29" on="0"/>
        <pt x="967" y="92" on="0"/>
        <pt x="961" y="137" on="1"/>
        <pt x="1010" y="159" on="1"/>
        <pt x="983" y="112" on="0"/>
        <pt x="888" y="44" on="0"/>
        <pt x="754" y="0" on="0"/>
        <pt x="582" y="-21" on="0"/>
      </contour>
      <contour>
        <pt x="478" y="-21" on="1"/>
        <pt x="352" y="-21" on="0"/>
        <pt x="188" y="19" on="0"/>
        <pt x="96" y="87" on="0"/>
        <pt x="58" y="173" on="0"/>
        <pt x="58" y="219" on="1"/>
        <pt x="58" y="259" on="0"/>
        <pt x="71" y="334" on="0"/>
        <pt x="90" y="400" on="0"/>
        <pt x="98" y="425" on="1"/>
        <pt x="245" y="390" on="1"/>
        <pt x="240" y="370" on="0"/>
        <pt x="231" y="328" on="0"/>
        <pt x="225" y="287" on="0"/>
        <pt x="225" y="268" on="1"/>
        <pt x="225" y="232" on="0"/>
        <pt x="276" y="178" on="0"/>
        <pt x="398" y="147" on="0"/>
        <pt x="504" y="147" on="1"/>
        <pt x="524" y="11" on="1"/>
      </contour>
    </TTGlyph>
    <TTGlyph name="uni066E.init" xMin="0" yMin="-5" xMax="290" yMax="520">
      <contour>
        <pt x="0" y="-5" on="1" overlap="1"/>
        <pt x="10" y="163" on="1"/>
        <pt x="51" y="163" on="0"/>
        <pt x="99" y="179" on="0"/>
        <pt x="121" y="214" on="0"/>
        <pt x="121" y="242" on="1"/>
        <pt x="121" y="274" on="0"/>
        <pt x="104" y="357" on="0"/>
        <pt x="81" y="443" on="0"/>
        <pt x="70" y="477" on="1"/>
        <pt x="231" y="520" on="1"/>
        <pt x="243" y="485" on="0"/>
        <pt x="271" y="392" on="0"/>
        <pt x="290" y="288" on="0"/>
        <pt x="290" y="236" on="1"/>
        <pt x="290" y="172" on="0"/>
        <pt x="255" y="86" on="0"/>
        <pt x="195" y="33" on="0"/>
        <pt x="119" y="5" on="0"/>
        <pt x="38" y="-5" on="0"/>
      </contour>
    </TTGlyph>
    <TTGlyph name="uni066E.init.short" xMin="0" yMin="-5" xMax="278" yMax="387">
      <contour>
        <pt x="0" y="-5" on="1" overlap="1"/>
        <pt x="10" y="163" on="1"/>
        <pt x="38" y="163" on="0"/>
        <pt x="81" y="168" on="0"/>
        <pt x="106" y="191" on="0"/>
        <pt x="106" y="216" on="1"/>
        <pt x="106" y="243" on="0"/>
        <pt x="88" y="310" on="0"/>
        <pt x="78" y="344" on="1"/>
        <pt x="239" y="387" on="1"/>
        <pt x="250" y="352" on="0"/>
        <pt x="278" y="247" on="0"/>
        <pt x="278" y="191" on="1"/>
        <pt x="278" y="136" on="0"/>
        <pt x="244" y="65" on="0"/>
        <pt x="186" y="22" on="0"/>
        <pt x="113" y="1" on="0"/>
        <pt x="36" y="-5" on="0"/>
      </contour>
    </TTGlyph>
    <TTGlyph name="uni066E.init.short.wide" xMin="0" yMin="-5" xMax="318" yMax="387">
      <contour>
        <pt x="0" y="-5" on="1" overlap="1"/>
        <pt x="10" y="163" on="1"/>
        <pt x="53" y="163" on="0"/>
        <pt x="113" y="168" on="0"/>
        <pt x="146" y="191" on="0"/>
        <pt x="146" y="216" on="1"/>
        <pt x="146" y="243" on="0"/>
        <pt x="129" y="310" on="0"/>
        <pt x="118" y="344" on="1"/>
        <pt x="279" y="387" on="1"/>
        <pt x="290" y="352" on="0"/>
        <pt x="318" y="247" on="0"/>
        <pt x="318" y="191" on="1"/>
        <pt x="318" y="123" on="0"/>
        <pt x="264" y="44" on="0"/>
        <pt x="174" y="6" on="0"/>
        <pt x="60" y="-5" on="0"/>
      </contour>
    </TTGlyph>
    <TTGlyph name="uni066E.init.wide" xMin="0" yMin="-5" xMax="333" yMax="520">
      <contour>
        <pt x="0" y="-5" on="1" overlap="1"/>
        <pt x="10" y="163" on="1"/>
        <pt x="73" y="163" on="0"/>
        <pt x="140" y="181" on="0"/>
        <pt x="164" y="218" on="0"/>
        <pt x="164" y="246" on="1"/>
        <pt x="164" y="278" on="0"/>
        <pt x="148" y="359" on="0"/>
        <pt x="126" y="443" on="0"/>
        <pt x="115" y="477" on="1"/>
        <pt x="276" y="520" on="1"/>
        <pt x="288" y="485" on="0"/>
        <pt x="315" y="394" on="0"/>
        <pt x="333" y="292" on="0"/>
        <pt x="333" y="240" on="1"/>
        <pt x="333" y="161" on="0"/>
        <pt x="278" y="63" on="0"/>
        <pt x="184" y="13" on="0"/>
        <pt x="65" y="-5" on="0"/>
      </contour>
    </TTGlyph>
    <TTGlyph name="uni066E.medi" xMin="0" yMin="-5" xMax="510" yMax="376">
      <contour>
        <pt x="0" y="-5" on="1" overlap="1"/>
        <pt x="10" y="163" on="1"/>
        <pt x="44" y="163" on="0"/>
        <pt x="89" y="176" on="0"/>
        <pt x="117" y="219" on="0"/>
        <pt x="136" y="304" on="0"/>
        <pt x="145" y="376" on="1"/>
        <pt x="310" y="350" on="1"/>
        <pt x="309" y="336" on="0"/>
        <pt x="304" y="300" on="0"/>
        <pt x="300" y="260" on="0"/>
        <pt x="300" y="241" on="1"/>
        <pt x="300" y="215" on="0"/>
        <pt x="322" y="180" on="0"/>
        <pt x="375" y="163" on="0"/>
        <pt x="420" y="163" on="1"/>
        <pt x="468" y="163" on="0"/>
        <pt x="510" y="115" on="0"/>
        <pt x="510" y="81" on="1"/>
        <pt x="510" y="43" on="0"/>
        <pt x="460" y="-5" on="0"/>
        <pt x="410" y="-5" on="1"/>
        <pt x="338" y="-5" on="0"/>
        <pt x="245" y="29" on="0"/>
        <pt x="198" y="101" on="0"/>
        <pt x="192" y="157" on="1"/>
        <pt x="251" y="157" on="1"/>
        <pt x="233" y="101" on="0"/>
        <pt x="176" y="35" on="0"/>
        <pt x="107" y="4" on="0"/>
        <pt x="34" y="-5" on="0"/>
      </contour>
    </TTGlyph>
    <TTGlyph name="uni066E.medi.tall" xMin="0" yMin="-5" xMax="491" yMax="468">
      <contour>
        <pt x="0" y="-5" on="1" overlap="1"/>
        <pt x="10" y="163" on="1"/>
        <pt x="51" y="163" on="0"/>
        <pt x="98" y="179" on="0"/>
        <pt x="116" y="218" on="0"/>
        <pt x="111" y="251" on="1"/>
        <pt x="108" y="271" on="0"/>
        <pt x="97" y="337" on="0"/>
        <pt x="85" y="407" on="0"/>
        <pt x="80" y="431" on="1"/>
        <pt x="244" y="468" on="1"/>
        <pt x="252" y="426" on="0"/>
        <pt x="266" y="354" on="0"/>
        <pt x="279" y="294" on="0"/>
        <pt x="288" y="251" on="0"/>
        <pt x="291" y="237" on="1"/>
        <pt x="298" y="208" on="0"/>
        <pt x="330" y="176" on="0"/>
        <pt x="375" y="163" on="0"/>
        <pt x="401" y="163" on="1"/>
        <pt x="449" y="163" on="0"/>
        <pt x="491" y="115" on="0"/>
        <pt x="491" y="81" on="1"/>
        <pt x="491" y="43" on="0"/>
        <pt x="441" y="-5" on="0"/>
        <pt x="391" y="-5" on="1"/>
        <pt x="357" y="-5" on="0"/>
        <pt x="286" y="5" on="0"/>
        <pt x="224" y="35" on="0"/>
        <pt x="180" y="91" on="0"/>
        <pt x="171" y="137" on="1"/>
        <pt x="230" y="137" on="1"/>
        <pt x="213" y="93" on="0"/>
        <pt x="160" y="29" on="0"/>
        <pt x="71" y="-5" on="0"/>
      </contour>
    </TTGlyph>
    <TTGlyph name="uni066E.medi.tall.wide" xMin="0" yMin="-5" xMax="551" yMax="468">
      <contour>
        <pt x="0" y="-5" on="1" overlap="1"/>
        <pt x="10" y="163" on="1"/>
        <pt x="71" y="163" on="0"/>
        <pt x="135" y="179" on="0"/>
        <pt x="156" y="218" on="0"/>
        <pt x="151" y="251" on="1"/>
        <pt x="148" y="271" on="0"/>
        <pt x="137" y="337" on="0"/>
        <pt x="125" y="407" on="0"/>
        <pt x="120" y="431" on="1"/>
        <pt x="284" y="468" on="1"/>
        <pt x="292" y="426" on="0"/>
        <pt x="306" y="354" on="0"/>
        <pt x="318" y="294" on="0"/>
        <pt x="328" y="251" on="0"/>
        <pt x="331" y="237" on="1"/>
        <pt x="338" y="208" on="0"/>
        <pt x="368" y="176" on="0"/>
        <pt x="420" y="163" on="0"/>
        <pt x="461" y="163" on="1"/>
        <pt x="509" y="163" on="0"/>
        <pt x="551" y="115" on="0"/>
        <pt x="551" y="81" on="1"/>
        <pt x="551" y="43" on="0"/>
        <pt x="501" y="-5" on="0"/>
        <pt x="451" y="-5" on="1"/>
        <pt x="405" y="-5" on="0"/>
        <pt x="326" y="5" on="0"/>
        <pt x="262" y="35" on="0"/>
        <pt x="220" y="91" on="0"/>
        <pt x="211" y="137" on="1"/>
        <pt x="270" y="137" on="1"/>
        <pt x="252" y="93" on="0"/>
        <pt x="196" y="29" on="0"/>
        <pt x="91" y="-5" on="0"/>
      </contour>
    </TTGlyph>
    <TTGlyph name="uni066E.medi.wide" xMin="0" yMin="-5" xMax="545" yMax="376">
      <contour>
        <pt x="0" y="-5" on="1" overlap="1"/>
        <pt x="10" y="163" on="1"/>
        <pt x="52" y="163" on="0"/>
        <pt x="104" y="176" on="0"/>
        <pt x="137" y="219" on="0"/>
        <pt x="156" y="304" on="0"/>
        <pt x="165" y="376" on="1"/>
        <pt x="330" y="350" on="1"/>
        <pt x="329" y="336" on="0"/>
        <pt x="324" y="300" on="0"/>
        <pt x="320" y="260" on="0"/>
        <pt x="320" y="241" on="1"/>
        <pt x="320" y="221" on="0"/>
        <pt x="332" y="192" on="0"/>
        <pt x="361" y="172" on="0"/>
        <pt x="414" y="163" on="0"/>
        <pt x="455" y="163" on="1"/>
        <pt x="503" y="163" on="0"/>
        <pt x="545" y="115" on="0"/>
        <pt x="545" y="81" on="1"/>
        <pt x="545" y="43" on="0"/>
        <pt x="495" y="-5" on="0"/>
        <pt x="445" y="-5" on="1"/>
        <pt x="384" y="-5" on="0"/>
        <pt x="299" y="14" on="0"/>
        <pt x="245" y="54" on="0"/>
        <pt x="216" y="115" on="0"/>
        <pt x="212" y="157" on="1"/>
        <pt x="271" y="157" on="1"/>
        <pt x="253" y="101" on="0"/>
        <pt x="195" y="35" on="0"/>
        <pt x="123" y="4" on="0"/>
        <pt x="42" y="-5" on="0"/>
      </contour>
    </TTGlyph>
    <TTGlyph name="uni066F" xMin="24" yMin="-188" xMax="824" yMax="460">
      <contour>
        <pt x="364" y="-188" on="1" overlap="1"/>
        <pt x="293" y="-188" on="0"/>
        <pt x="169" y="-158" on="0"/>
        <pt x="76" y="-93" on="0"/>
        <pt x="24" y="8" on="0"/>
        <pt x="24" y="78" on="1"/>
        <pt x="24" y="106" on="0"/>
        <pt x="32" y="167" on="0"/>
        <pt x="56" y="249" on="0"/>
        <pt x="80" y="308" on="1"/>
        <pt x="235" y="253" on="1"/>
        <pt x="221" y="214" on="0"/>
        <pt x="206" y="165" on="0"/>
        <pt x="201" y="129" on="0"/>
        <pt x="201" y="109" on="1"/>
        <pt x="201" y="81" on="0"/>
        <pt x="224" y="34" on="0"/>
        <pt x="270" y="-1" on="0"/>
        <pt x="342" y="-20" on="0"/>
        <pt x="390" y="-20" on="1"/>
        <pt x="455" y="-20" on="0"/>
        <pt x="543" y="-9" on="0"/>
        <pt x="599" y="12" on="0"/>
        <pt x="631" y="43" on="0"/>
        <pt x="639" y="63" on="1"/>
        <pt x="649" y="86" on="0"/>
        <pt x="657" y="136" on="0"/>
        <pt x="657" y="173" on="1"/>
        <pt x="657" y="227" on="0"/>
        <pt x="641" y="293" on="0"/>
        <pt x="614" y="322" on="0"/>
        <pt x="597" y="322" on="1"/>
        <pt x="583" y="322" on="0"/>
        <pt x="561" y="303" on="0"/>
        <pt x="550" y="270" on="0"/>
        <pt x="550" y="250" on="1"/>
        <pt x="550" y="236" on="0"/>
        <pt x="562" y="212" on="0"/>
        <pt x="585" y="199" on="0"/>
        <pt x="602" y="199" on="1"/>
        <pt x="620" y="199" on="0"/>
        <pt x="663" y="206" on="0"/>
        <pt x="684" y="215" on="1"/>
        <pt x="688" y="92" on="1"/>
        <pt x="663" y="76" on="0"/>
        <pt x="596" y="59" on="0"/>
        <pt x="564" y="59" on="1"/>
        <pt x="512" y="59" on="0"/>
        <pt x="433" y="97" on="0"/>
        <pt x="389" y="170" on="0"/>
        <pt x="389" y="222" on="1"/>
        <pt x="389" y="267" on="0"/>
        <pt x="420" y="352" on="0"/>
        <pt x="477" y="420" on="0"/>
        <pt x="556" y="460" on="0"/>
        <pt x="604" y="460" on="1"/>
        <pt x="670" y="460" on="0"/>
        <pt x="769" y="388" on="0"/>
        <pt x="824" y="260" on="0"/>
        <pt x="824" y="175" on="1"/>
        <pt x="824" y="113" on="0"/>
        <pt x="796" y="16" on="0"/>
        <pt x="770" y="-28" on="1"/>
        <pt x="745" y="-71" on="0"/>
        <pt x="670" y="-132" on="0"/>
        <pt x="569" y="-170" on="0"/>
        <pt x="441" y="-188" on="0"/>
      </contour>
    </TTGlyph>
</ttFont>
